<svg version="1.1" id="Layer_1" xmlns="http://www.w3.org/2000/svg" xmlns:xlink="http://www.w3.org/1999/xlink" x="0px" y="0px"
	 width="100%" viewBox="0 0 256 256" enable-background="new 0 0 256 256" xml:space="preserve">
<path fill="#000000" opacity="1.000000" stroke="none" 
	d="
M257.000000,76.000000 
	C257.000000,105.354225 257.000000,134.708450 256.701569,164.819855 
	C252.517685,160.611832 246.702301,159.405212 241.718552,161.404144 
	C236.284775,163.583542 234.627579,169.220886 234.897552,175.394958 
	C235.294785,184.479111 235.000000,193.593552 235.000000,203.000000 
	C232.066116,203.000000 229.578690,202.775757 227.144821,203.041794 
	C219.686371,203.857071 214.389572,198.318695 214.908829,190.915329 
	C215.350342,184.620300 215.111847,178.267258 214.970047,171.944443 
	C214.812515,164.920242 210.043442,160.846207 202.466599,161.000031 
	C196.293930,161.125320 193.003235,164.963669 193.000626,172.049713 
	C192.997849,179.541016 193.195953,187.038483 192.959808,194.522339 
	C192.444153,210.864258 207.138672,225.557358 223.355408,225.018539 
	C227.129303,224.893143 230.910919,225.000000 234.709457,225.000000 
	C234.851669,225.916870 234.957886,226.382004 234.991745,226.852341 
	C235.726028,237.057220 232.240906,247.961563 240.000000,257.000000 
	C219.645767,257.000000 199.291550,257.000000 178.181396,256.709320 
	C177.711731,256.010101 177.934265,255.531631 178.294098,255.203842 
	C182.016998,251.812256 184.383423,247.975647 182.248932,242.760651 
	C179.804764,236.789047 176.857605,235.001953 169.709213,235.000320 
	C163.296051,234.998856 156.882874,235.000000 149.270844,235.000000 
	C151.485947,233.168091 152.837814,232.119156 154.113007,230.984085 
	C161.623871,224.298630 170.086060,218.386841 176.380203,210.701309 
	C185.007523,200.166824 185.304367,189.475662 178.454849,176.971588 
	C172.131927,165.428787 162.065414,161.268738 149.074371,160.771133 
	C132.917053,160.152222 117.090775,176.675613 117.941780,192.218246 
	C118.300629,198.772232 122.127571,203.737488 127.805832,203.999954 
	C135.034058,204.334076 139.192291,200.614700 140.002197,193.102310 
	C140.521286,188.287384 143.187546,184.752258 147.568588,183.291977 
	C151.255157,182.063171 154.999756,182.946869 157.804413,186.273956 
	C161.261688,190.375275 161.182663,195.727737 156.279144,200.050217 
	C148.731079,206.703766 140.507538,212.584167 132.795776,219.060699 
	C124.201431,226.278458 117.378380,234.764343 118.169571,246.799820 
	C118.397614,250.268814 120.666679,253.603653 122.000000,257.000000 
	C81.744881,257.000000 41.489765,257.000000 1.000000,257.000000 
	C1.000000,222.312790 1.000000,187.625061 1.350299,152.169556 
	C2.120125,151.894943 2.827881,152.341125 2.917053,152.888123 
	C5.189226,166.826462 9.945525,179.836761 16.981192,192.087814 
	C31.910547,218.083939 53.052578,237.089157 80.898468,248.161011 
	C87.929779,250.956772 93.585106,249.364563 96.336746,243.129669 
	C98.919258,237.277985 95.705765,230.169098 89.835426,227.260910 
	C82.088478,223.423035 74.237900,219.624893 67.037354,214.889069 
	C52.338528,205.221649 41.611229,191.800858 33.754505,176.201645 
	C23.729689,156.297791 20.962433,135.212341 23.925163,113.137283 
	C26.866014,91.225250 36.490105,72.552879 51.160969,56.550812 
	C63.941032,42.611099 79.711601,32.968647 97.977081,27.466228 
	C118.871750,21.171780 139.618744,21.292187 160.419250,27.793888 
	C186.144974,35.835087 205.473129,51.878174 219.995850,75.000031 
	C210.744415,75.000031 201.990067,74.931213 193.237366,75.022423 
	C186.568680,75.091911 181.901352,79.948814 182.000000,86.473839 
	C182.106308,93.505707 185.787964,96.997818 193.106033,96.999374 
	C204.267365,97.001762 215.438110,96.713341 226.587418,97.079453 
	C238.068817,97.456482 251.211258,88.917694 255.059479,77.453125 
	C255.271103,76.822662 256.333557,76.477798 257.000000,76.000000 
M132.631592,139.865433 
	C136.328522,137.402679 140.032211,135.019073 140.018372,129.762329 
	C139.970627,111.610039 140.027069,93.457481 139.982574,75.305183 
	C139.970139,70.229523 136.679352,65.741188 132.673874,65.009514 
	C125.758881,63.746368 121.478897,65.466187 119.122238,70.807655 
	C118.366615,72.520302 118.059052,74.558487 118.047028,76.450912 
	C117.959564,90.211151 118.000000,103.972206 118.000000,118.000000 
	C107.019630,118.000000 96.556885,117.984650 86.094208,118.005775 
	C79.850937,118.018379 74.936501,122.964973 75.000107,129.108521 
	C75.063667,135.247803 79.970413,139.992172 86.311234,139.996078 
	C101.465981,140.005417 116.620743,139.994370 132.631592,139.865433 
z"/>
<path fill="#FFFFFF" opacity="1.000000" stroke="none" 
	d="
M257.000000,75.531342 
	C256.333557,76.477798 255.271103,76.822662 255.059479,77.453125 
	C251.211258,88.917694 238.068817,97.456482 226.587418,97.079453 
	C215.438110,96.713341 204.267365,97.001762 193.106033,96.999374 
	C185.787964,96.997818 182.106308,93.505707 182.000000,86.473839 
	C181.901352,79.948814 186.568680,75.091911 193.237366,75.022423 
	C201.990067,74.931213 210.744415,75.000031 219.995850,75.000031 
	C205.473129,51.878174 186.144974,35.835087 160.419250,27.793888 
	C139.618744,21.292187 118.871750,21.171780 97.977081,27.466228 
	C79.711601,32.968647 63.941032,42.611099 51.160969,56.550812 
	C36.490105,72.552879 26.866014,91.225250 23.925163,113.137283 
	C20.962433,135.212341 23.729689,156.297791 33.754505,176.201645 
	C41.611229,191.800858 52.338528,205.221649 67.037354,214.889069 
	C74.237900,219.624893 82.088478,223.423035 89.835426,227.260910 
	C95.705765,230.169098 98.919258,237.277985 96.336746,243.129669 
	C93.585106,249.364563 87.929779,250.956772 80.898468,248.161011 
	C53.052578,237.089157 31.910547,218.083939 16.981192,192.087814 
	C9.945525,179.836761 5.189226,166.826462 2.917053,152.888123 
	C2.827881,152.341125 2.120125,151.894943 1.350299,151.700897 
	C1.000000,136.979111 1.000000,121.958214 1.350302,106.767761 
	C2.128607,105.940666 2.723316,105.337807 2.959625,104.617401 
	C6.540180,93.701721 9.171824,82.369148 13.817954,71.932030 
	C21.910236,53.753456 35.084541,39.211086 50.627796,26.994894 
	C66.383896,14.611421 84.347549,6.786889 104.038162,2.931652 
	C104.789375,2.784571 105.350372,1.665918 106.000000,1.000001 
	C121.020897,1.000000 136.041794,1.000000 151.232239,1.350297 
	C152.060486,2.128658 152.664795,2.719172 153.385971,2.960507 
	C164.902283,6.814346 176.958344,9.521193 187.838348,14.701253 
	C204.169174,22.476490 217.819626,34.211697 229.075790,48.537743 
	C230.777069,50.702988 232.687515,52.703884 235.000061,55.352051 
	C235.000061,47.196198 234.875305,40.036533 235.034454,32.883186 
	C235.199966,25.444778 242.333755,20.046406 249.274048,22.184551 
	C251.983978,23.019426 254.432449,24.702990 257.000000,26.000000 
	C257.000000,42.354229 257.000000,58.708454 257.000000,75.531342 
z"/>
<path fill="#FFFFFF" opacity="1.000000" stroke="none" 
	d="
M122.468658,257.000000 
	C120.666679,253.603653 118.397614,250.268814 118.169571,246.799820 
	C117.378380,234.764343 124.201431,226.278458 132.795776,219.060699 
	C140.507538,212.584167 148.731079,206.703766 156.279144,200.050217 
	C161.182663,195.727737 161.261688,190.375275 157.804413,186.273956 
	C154.999756,182.946869 151.255157,182.063171 147.568588,183.291977 
	C143.187546,184.752258 140.521286,188.287384 140.002197,193.102310 
	C139.192291,200.614700 135.034058,204.334076 127.805832,203.999954 
	C122.127571,203.737488 118.300629,198.772232 117.941780,192.218246 
	C117.090775,176.675613 132.917053,160.152222 149.074371,160.771133 
	C162.065414,161.268738 172.131927,165.428787 178.454849,176.971588 
	C185.304367,189.475662 185.007523,200.166824 176.380203,210.701309 
	C170.086060,218.386841 161.623871,224.298630 154.113007,230.984085 
	C152.837814,232.119156 151.485947,233.168091 149.270844,235.000000 
	C156.882874,235.000000 163.296051,234.998856 169.709213,235.000320 
	C176.857605,235.001953 179.804764,236.789047 182.248932,242.760651 
	C184.383423,247.975647 182.016998,251.812256 178.294098,255.203842 
	C177.934265,255.531631 177.711731,256.010101 177.712738,256.709320 
	C159.645767,257.000000 141.291550,257.000000 122.468658,257.000000 
z"/>
<path fill="#FFFFFF" opacity="1.000000" stroke="none" 
	d="
M240.470459,257.000000 
	C232.240906,247.961563 235.726028,237.057220 234.991745,226.852341 
	C234.957886,226.382004 234.851669,225.916870 234.709457,225.000000 
	C230.910919,225.000000 227.129303,224.893143 223.355408,225.018539 
	C207.138672,225.557358 192.444153,210.864258 192.959808,194.522339 
	C193.195953,187.038483 192.997849,179.541016 193.000626,172.049713 
	C193.003235,164.963669 196.293930,161.125320 202.466599,161.000031 
	C210.043442,160.846207 214.812515,164.920242 214.970047,171.944443 
	C215.111847,178.267258 215.350342,184.620300 214.908829,190.915329 
	C214.389572,198.318695 219.686371,203.857071 227.144821,203.041794 
	C229.578690,202.775757 232.066116,203.000000 235.000000,203.000000 
	C235.000000,193.593552 235.294785,184.479111 234.897552,175.394958 
	C234.627579,169.220886 236.284775,163.583542 241.718552,161.404144 
	C246.702301,159.405212 252.517685,160.611832 256.701569,165.288513 
	C257.000000,195.666718 257.000000,226.333435 257.000000,257.000000 
	C251.564224,257.000000 246.252563,257.000000 240.470459,257.000000 
z"/>
<path fill="#000000" opacity="1.000000" stroke="none" 
	d="
M105.531342,1.000001 
	C105.350372,1.665918 104.789375,2.784571 104.038162,2.931652 
	C84.347549,6.786889 66.383896,14.611421 50.627796,26.994894 
	C35.084541,39.211086 21.910236,53.753456 13.817954,71.932030 
	C9.171824,82.369148 6.540180,93.701721 2.959625,104.617401 
	C2.723316,105.337807 2.128607,105.940666 1.350302,106.299103 
	C1.000000,71.073059 1.000000,36.146111 1.000000,1.000000 
	C35.687252,1.000000 70.374969,1.000000 105.531342,1.000001 
z"/>
<path fill="#000000" opacity="1.000000" stroke="none" 
	d="
M257.000000,25.531319 
	C254.432449,24.702990 251.983978,23.019426 249.274048,22.184551 
	C242.333755,20.046406 235.199966,25.444778 235.034454,32.883186 
	C234.875305,40.036533 235.000061,47.196198 235.000061,55.352051 
	C232.687515,52.703884 230.777069,50.702988 229.075790,48.537743 
	C217.819626,34.211697 204.169174,22.476490 187.838348,14.701253 
	C176.958344,9.521193 164.902283,6.814346 153.385971,2.960507 
	C152.664795,2.719172 152.060486,2.128658 151.700897,1.350297 
	C186.881790,1.000000 221.763596,1.000000 257.000000,1.000000 
	C257.000000,9.017396 257.000000,17.040018 257.000000,25.531319 
z"/>
<path fill="#FFFFFF" opacity="1.000000" stroke="none" 
	d="
M132.203552,139.928497 
	C116.620743,139.994370 101.465981,140.005417 86.311234,139.996078 
	C79.970413,139.992172 75.063667,135.247803 75.000107,129.108521 
	C74.936501,122.964973 79.850937,118.018379 86.094208,118.005775 
	C96.556885,117.984650 107.019630,118.000000 118.000000,118.000000 
	C118.000000,103.972206 117.959564,90.211151 118.047028,76.450912 
	C118.059052,74.558487 118.366615,72.520302 119.122238,70.807655 
	C121.478897,65.466187 125.758881,63.746368 132.673874,65.009514 
	C136.679352,65.741188 139.970139,70.229523 139.982574,75.305183 
	C140.027069,93.457481 139.970627,111.610039 140.018372,129.762329 
	C140.032211,135.019073 136.328522,137.402679 132.203552,139.928497 
z"/>
</svg>