<svg width="16" height="16" viewBox="0 0 16 16" fill="none" xmlns="http://www.w3.org/2000/svg">
<path fill-rule="evenodd" clip-rule="evenodd" d="M11.5 2.00061C10.6716 2.00061 10 2.67218 10 3.50061C10 4.32904 10.6716 5.00061 11.5 5.00061C12.3284 5.00061 13 4.32904 13 3.50061C13 2.67218 12.3284 2.00061 11.5 2.00061ZM9.05001 3.00061C9.28164 1.85949 10.2905 1.00061 11.5 1.00061C12.7095 1.00061 13.7184 1.85949 13.95 3.00061H16V4.00061H13.95C13.7184 5.14173 12.7095 6.00061 11.5 6.00061C10.2905 6.00061 9.28164 5.14173 9.05001 4.00061H0V3.00061H9.05001ZM4.5 7.00061C3.67157 7.00061 3 7.67218 3 8.50061C3 9.32904 3.67157 10.0006 4.5 10.0006C5.32843 10.0006 6 9.32904 6 8.50061C6 7.67218 5.32843 7.00061 4.5 7.00061ZM2.05001 8.00061C2.28164 6.85949 3.29052 6.00061 4.5 6.00061C5.70948 6.00061 6.71836 6.85949 6.94999 8.00061H16V9.00061H6.94999C6.71836 10.1417 5.70948 11.0006 4.5 11.0006C3.29052 11.0006 2.28164 10.1417 2.05001 9.00061H0V8.00061H2.05001ZM11.5 12.0006C10.6716 12.0006 10 12.6722 10 13.5006C10 14.329 10.6716 15.0006 11.5 15.0006C12.3284 15.0006 13 14.329 13 13.5006C13 12.6722 12.3284 12.0006 11.5 12.0006ZM9.05001 13.0006C9.28164 11.8595 10.2905 11.0006 11.5 11.0006C12.7095 11.0006 13.7184 11.8595 13.95 13.0006H16V14.0006H13.95C13.7184 15.1417 12.7095 16.0006 11.5 16.0006C10.2905 16.0006 9.28164 15.1417 9.05001 14.0006H0V13.0006H9.05001Z" fill="#92929C"/>
</svg>
