<svg width="17" height="16" viewBox="0 0 17 16" fill="none" xmlns="http://www.w3.org/2000/svg">
<path fill-rule="evenodd" clip-rule="evenodd" d="M8.25 5C8.25 6.10457 7.35457 7 6.25 7C5.14543 7 4.25 6.10457 4.25 5C4.25 3.89543 5.14543 3 6.25 3C7.35457 3 8.25 3.89543 8.25 5ZM6.25 8C7.90685 8 9.25 6.65685 9.25 5C9.25 3.34315 7.90685 2 6.25 2C4.59315 2 3.25 3.34315 3.25 5C3.25 6.65685 4.59315 8 6.25 8ZM12.25 13C12.25 14 11.25 14 11.25 14H1.25C1.25 14 0.25 14 0.25 13C0.25 12 1.25 9 6.25 9C11.25 9 12.25 12 12.25 13ZM11.25 12.9965C11.2486 12.7497 11.0962 12.0104 10.4179 11.3321C9.76563 10.6798 8.5391 10 6.24999 10C3.96088 10 2.73435 10.6798 2.0821 11.3321C1.40375 12.0104 1.25142 12.7497 1.25 12.9965H11.25Z" fill="#92929C"/>
<path fill-rule="evenodd" clip-rule="evenodd" d="M13.75 5C14.0261 5 14.25 5.22386 14.25 5.5V7H15.75C16.0261 7 16.25 7.22386 16.25 7.5C16.25 7.77614 16.0261 8 15.75 8H14.25V9.5C14.25 9.77614 14.0261 10 13.75 10C13.4739 10 13.25 9.77614 13.25 9.5V8H11.75C11.4739 8 11.25 7.77614 11.25 7.5C11.25 7.22386 11.4739 7 11.75 7H13.25V5.5C13.25 5.22386 13.4739 5 13.75 5Z" fill="#92929C"/>
</svg>
