<svg width="16" height="16" viewBox="0 0 16 16" fill="none" xmlns="http://www.w3.org/2000/svg">
<path fill-rule="evenodd" clip-rule="evenodd" d="M11 2.00024C11 1.44796 11.4477 1.00024 12 1.00024H14C14.5523 1.00024 15 1.44796 15 2.00024V14.0002H15.5C15.7761 14.0002 16 14.2241 16 14.5002C16 14.7764 15.7761 15.0002 15.5 15.0002H0.5C0.223858 15.0002 0 14.7764 0 14.5002C0 14.2241 0.223858 14.0002 0.5 14.0002H1V11.0002C1 10.448 1.44772 10.0002 2 10.0002H4C4.55228 10.0002 5 10.448 5 11.0002V14.0002H6V7.00024C6 6.44796 6.44772 6.00024 7 6.00024H9C9.55228 6.00024 10 6.44796 10 7.00024V14.0002H11V2.00024ZM12 14.0002H14V2.00024H12V14.0002ZM9 14.0002V7.00024H7V14.0002H9ZM4 14.0002V11.0002H2V14.0002H4Z" fill="#92929C"/>
</svg>
