<svg width="17" height="16" viewBox="0 0 17 16" fill="none" xmlns="http://www.w3.org/2000/svg">
<path fill-rule="evenodd" clip-rule="evenodd" d="M10.25 12.5C10.25 12.7761 10.0261 13 9.75 13L1.75 13C1.47386 13 1.25 12.7761 1.25 12.5L1.25 3.5C1.25 3.22386 1.47386 3 1.75 3L9.75 3C10.0261 3 10.25 3.22386 10.25 3.5L10.25 5.5C10.25 5.77614 10.4739 6 10.75 6C11.0261 6 11.25 5.77614 11.25 5.5L11.25 3.5C11.25 2.67157 10.5784 2 9.75 2L1.75 2C0.921574 2 0.25 2.67157 0.25 3.5L0.25 12.5C0.25 13.3284 0.921573 14 1.75 14L9.75 14C10.5784 14 11.25 13.3284 11.25 12.5L11.25 10.5C11.25 10.2239 11.0261 10 10.75 10C10.4739 10 10.25 10.2239 10.25 10.5L10.25 12.5Z" fill="#92929C"/>
<path fill-rule="evenodd" clip-rule="evenodd" d="M16.1036 8.35355C16.2988 8.15829 16.2988 7.84171 16.1036 7.64645L13.1036 4.64645C12.9083 4.45118 12.5917 4.45118 12.3964 4.64645C12.2012 4.84171 12.2012 5.15829 12.3964 5.35355L14.5429 7.5L5.75 7.5C5.47386 7.5 5.25 7.72386 5.25 8C5.25 8.27614 5.47386 8.5 5.75 8.5L14.5429 8.5L12.3964 10.6464C12.2012 10.8417 12.2012 11.1583 12.3964 11.3536C12.5917 11.5488 12.9083 11.5488 13.1036 11.3536L16.1036 8.35355Z" fill="#92929C"/>
</svg>
