<svg xmlns="http://www.w3.org/2000/svg" xmlns:xlink="http://www.w3.org/1999/xlink" width="512" zoomAndPan="magnify" viewBox="0 0 384 383.999986" height="512" preserveAspectRatio="xMidYMid meet" version="1.0"><defs><clipPath id="78c96699dd"><path d="M 124 115.199219 L 322 115.199219 L 322 330.449219 L 124 330.449219 Z M 124 115.199219 " clip-rule="nonzero"/></clipPath></defs><g clip-path="url(#78c96699dd)"><path fill="#000000" d="M 139.710938 115.832031 C 133.027344 117.636719 127.726562 122.640625 125.625 129.199219 C 124.871094 131.429688 124.742188 133.277344 124.574219 142.105469 C 124.363281 153.625 124.617188 155.433594 126.59375 156.148438 C 128.066406 156.652344 129.789062 156.191406 130.417969 155.011719 C 130.796875 154.339844 131.007812 150.808594 131.175781 142.527344 L 131.386719 130.964844 L 132.648438 128.695312 C 134.035156 126.171875 136.261719 124.113281 139.121094 122.683594 L 141.054688 121.714844 L 238.171875 121.714844 L 240.105469 122.683594 C 242.960938 124.113281 245.191406 126.171875 246.578125 128.695312 L 247.839844 130.964844 L 247.964844 139.878906 L 248.089844 148.832031 L 243.929688 148.832031 L 243.761719 140.929688 C 243.550781 132.3125 243.257812 131.050781 240.609375 128.570312 C 238.253906 126.296875 237.203125 126.128906 226.3125 126.128906 C 213.574219 126.128906 213.785156 126.046875 211.515625 132.941406 L 210.550781 135.800781 L 168.675781 135.800781 L 167.710938 132.941406 C 166.40625 128.949219 165.816406 127.894531 164.261719 126.972656 C 163.042969 126.214844 162.117188 126.128906 152.828125 126.128906 C 143.914062 126.128906 142.527344 126.257812 141.011719 126.929688 C 138.910156 127.894531 136.347656 130.839844 135.925781 132.816406 C 135.503906 134.792969 135.503906 310.859375 135.925781 312.835938 C 136.347656 314.8125 138.910156 317.753906 141.011719 318.71875 C 142.652344 319.476562 144.964844 319.519531 189.527344 319.519531 C 240.734375 319.519531 237.917969 319.644531 240.609375 317.082031 C 243.257812 314.601562 243.59375 313.253906 243.636719 306.023438 C 243.636719 300.136719 243.550781 299.339844 242.835938 298.539062 C 241.742188 297.320312 239.222656 297.320312 238.128906 298.539062 C 237.457031 299.296875 237.328125 300.265625 237.160156 305.6875 C 237.035156 311.53125 236.949219 311.992188 236.152344 312.582031 C 235.351562 313.128906 229.214844 313.214844 189.613281 313.214844 C 149 313.214844 143.871094 313.128906 143.03125 312.539062 L 142.105469 311.910156 L 142.105469 133.738281 L 143.03125 133.109375 C 143.828125 132.5625 145.46875 132.4375 152.449219 132.4375 L 160.941406 132.4375 L 162.117188 135.882812 C 163.378906 139.710938 164.765625 141.390625 166.953125 141.855469 C 168.675781 142.191406 210.550781 142.191406 212.273438 141.855469 C 214.457031 141.390625 215.847656 139.710938 217.105469 135.882812 L 218.285156 132.4375 L 226.777344 132.4375 C 233.753906 132.4375 235.394531 132.5625 236.195312 133.109375 C 237.078125 133.738281 237.117188 133.949219 237.117188 141.308594 L 237.117188 148.832031 L 199.40625 148.832031 C 162.371094 148.832031 161.699219 148.832031 159.933594 149.671875 C 157.578125 150.851562 155.433594 152.953125 154.257812 155.433594 L 153.246094 157.453125 L 153.246094 247 L 154.214844 248.933594 C 155.433594 251.414062 157.660156 253.640625 160.140625 254.859375 L 162.074219 255.828125 L 199.578125 255.953125 L 237.078125 256.078125 L 237.203125 271.550781 C 237.328125 286.097656 237.371094 287.105469 238.128906 287.945312 C 239.222656 289.164062 241.742188 289.164062 242.835938 287.945312 C 243.59375 287.105469 243.636719 286.097656 243.761719 271.550781 L 243.886719 256.039062 L 248.089844 256.039062 L 247.964844 285.382812 L 247.839844 314.683594 L 246.578125 316.953125 C 245.191406 319.476562 242.960938 321.539062 240.105469 322.964844 L 238.171875 323.933594 L 141.054688 323.933594 L 139.121094 322.964844 C 136.261719 321.539062 134.035156 319.476562 132.648438 316.953125 L 131.386719 314.683594 L 131.175781 240.859375 C 130.964844 168.96875 130.921875 166.996094 130.167969 166.113281 C 129.074219 164.890625 126.550781 164.890625 125.457031 166.113281 C 124.660156 166.996094 124.660156 168.800781 124.660156 240.019531 C 124.660156 310.019531 124.703125 313.128906 125.457031 315.863281 C 126.84375 320.949219 130.839844 325.824219 135.464844 328.179688 C 140.003906 330.492188 138.910156 330.449219 189.445312 330.449219 C 219.503906 330.449219 236.949219 330.28125 238.421875 330.03125 C 245.359375 328.726562 251.285156 323.429688 253.640625 316.449219 C 254.523438 313.929688 254.523438 313.046875 254.691406 284.960938 L 254.816406 256.078125 L 283.488281 255.953125 C 311.65625 255.828125 312.203125 255.828125 314.097656 254.945312 C 316.449219 253.851562 318.761719 251.496094 320.023438 248.933594 L 320.992188 247 L 321.117188 204.367188 C 321.199219 178.34375 321.074219 160.605469 320.824219 158.796875 C 320.316406 155.140625 318.550781 152.320312 315.527344 150.386719 L 313.464844 149.042969 L 302.703125 148.917969 C 292.152344 148.789062 291.984375 148.789062 291.269531 149.714844 C 290.300781 150.894531 290.300781 152.699219 291.308594 153.917969 C 292.109375 154.929688 292.234375 154.929688 302.074219 155.140625 L 312.035156 155.347656 L 313.253906 156.738281 L 314.472656 158.082031 L 314.472656 246.367188 L 313.296875 247.628906 C 312.625 248.429688 311.488281 249.101562 310.480469 249.3125 C 308.253906 249.855469 165.984375 249.855469 163.757812 249.3125 C 162.75 249.101562 161.613281 248.429688 160.941406 247.628906 C 159.890625 246.492188 159.761719 246.03125 159.761719 243.214844 L 159.761719 240.105469 L 178.597656 239.976562 L 197.390625 239.851562 L 199.492188 238.800781 C 202.183594 237.457031 205 234.636719 206.132812 232.15625 C 207.4375 229.171875 207.605469 224.128906 206.472656 221.101562 C 204.707031 216.433594 200.835938 213.28125 195.707031 212.355469 C 194.195312 212.0625 186.796875 211.894531 176.496094 211.894531 L 159.761719 211.894531 L 159.761719 158.082031 L 160.984375 156.738281 L 162.203125 155.347656 L 221.058594 155.140625 C 278.191406 154.929688 279.957031 154.886719 280.800781 154.128906 C 281.933594 153.078125 282.019531 150.515625 280.925781 149.546875 C 280.253906 148.917969 278.699219 148.832031 267.515625 148.832031 L 254.902344 148.832031 L 254.648438 140.296875 C 254.480469 133.445312 254.273438 131.300781 253.597656 129.199219 C 251.496094 122.597656 246.199219 117.597656 239.347656 115.832031 C 235.859375 114.90625 143.074219 114.949219 139.710938 115.832031 Z M 196.886719 219.210938 C 199.40625 220.46875 200.710938 222.445312 200.878906 225.515625 C 201.089844 228.921875 199.828125 231.402344 197.179688 232.789062 C 195.371094 233.753906 195.332031 233.753906 177.546875 233.753906 L 159.761719 233.753906 L 159.761719 218.160156 L 177.546875 218.285156 C 193.941406 218.410156 195.414062 218.453125 196.886719 219.210938 Z M 196.886719 219.210938 " fill-opacity="1" fill-rule="nonzero"/></g><path fill="#000000" d="M 174.855469 165.945312 C 174.226562 166.320312 173.386719 167.203125 172.964844 167.917969 C 172.25 169.097656 172.164062 170.191406 172.164062 179.101562 C 172.164062 190.074219 172.292969 190.746094 175.066406 192.386719 C 176.285156 193.144531 177.421875 193.1875 190.875 193.1875 C 210.757812 193.1875 209.582031 194.070312 209.582031 179.101562 C 209.582031 170.148438 209.496094 169.097656 208.785156 167.917969 C 207.144531 165.230469 207.226562 165.230469 190.789062 165.230469 C 177.800781 165.230469 175.824219 165.355469 174.855469 165.945312 Z M 203.066406 179.3125 L 203.066406 187.089844 L 178.683594 187.089844 L 178.683594 171.535156 L 203.066406 171.535156 Z M 203.066406 179.3125 " fill-opacity="1" fill-rule="nonzero"/><path fill="#000000" d="M 231.234375 173.636719 C 230.519531 174.351562 230.390625 175.023438 230.390625 178.261719 C 230.390625 182.632812 231.023438 183.726562 233.460938 183.726562 C 235.984375 183.726562 236.699219 182.464844 236.699219 178.136719 C 236.699219 175.613281 236.53125 174.8125 235.816406 173.890625 C 234.722656 172.5 232.496094 172.375 231.234375 173.636719 Z M 231.234375 173.636719 " fill-opacity="1" fill-rule="nonzero"/><path fill="#000000" d="M 247.628906 173.636719 C 246.914062 174.351562 246.789062 175.023438 246.789062 178.175781 C 246.789062 182.71875 247.335938 183.726562 249.730469 183.726562 C 252.253906 183.726562 253.09375 182.382812 253.09375 178.261719 C 253.09375 175.613281 252.925781 174.8125 252.210938 173.890625 C 251.117188 172.5 248.890625 172.375 247.628906 173.636719 Z M 247.628906 173.636719 " fill-opacity="1" fill-rule="nonzero"/><path fill="#000000" d="M 259.441406 173.890625 C 258.726562 174.8125 258.558594 175.613281 258.558594 178.429688 C 258.601562 182.085938 258.980469 183.011719 260.703125 183.683594 C 261.964844 184.148438 264.191406 183.347656 264.613281 182.253906 C 264.738281 181.878906 264.867188 179.941406 264.867188 178.007812 C 264.867188 175.023438 264.738281 174.351562 264.023438 173.636719 C 262.765625 172.375 260.535156 172.5 259.441406 173.890625 Z M 259.441406 173.890625 " fill-opacity="1" fill-rule="nonzero"/><path fill="#000000" d="M 283.363281 173.636719 C 282.648438 174.351562 282.523438 175.023438 282.523438 178.386719 C 282.523438 181.792969 282.648438 182.421875 283.363281 183.097656 C 284.542969 184.148438 286.558594 184.0625 287.695312 182.929688 C 288.492188 182.128906 288.621094 181.582031 288.621094 178.304688 C 288.621094 175.234375 288.492188 174.394531 287.820312 173.679688 C 286.769531 172.542969 284.5 172.5 283.363281 173.636719 Z M 283.363281 173.636719 " fill-opacity="1" fill-rule="nonzero"/><path fill="#000000" d="M 294.460938 173.679688 C 293.789062 174.394531 293.664062 175.234375 293.664062 178.261719 C 293.664062 182.675781 294.253906 183.726562 296.859375 183.726562 C 299.214844 183.726562 299.761719 182.71875 299.761719 178.175781 C 299.761719 175.023438 299.632812 174.351562 298.917969 173.636719 C 297.785156 172.5 295.515625 172.542969 294.460938 173.679688 Z M 294.460938 173.679688 " fill-opacity="1" fill-rule="nonzero"/><path fill="#000000" d="M 243.425781 211.136719 C 241.363281 212.230469 241.324219 212.820312 241.40625 226.734375 L 241.535156 239.726562 L 242.542969 240.523438 C 243.804688 241.574219 245.738281 241.535156 246.789062 240.480469 C 247.503906 239.765625 247.628906 239.09375 247.628906 235.226562 L 247.628906 230.8125 L 250.320312 230.8125 C 254.902344 230.8125 258.179688 229.171875 260.03125 225.976562 C 261.375 223.707031 261.796875 220.511719 261.082031 217.992188 C 260.410156 215.550781 257.804688 212.609375 255.53125 211.683594 C 253.136719 210.71875 244.9375 210.339844 243.425781 211.136719 Z M 252.882812 217.527344 C 255.492188 218.621094 255.996094 221.269531 253.976562 223.289062 C 252.882812 224.378906 252.464844 224.507812 250.195312 224.507812 L 247.628906 224.507812 L 247.628906 221.015625 C 247.628906 219.082031 247.753906 217.359375 247.921875 217.234375 C 248.386719 216.730469 251.371094 216.898438 252.882812 217.527344 Z M 252.882812 217.527344 " fill-opacity="1" fill-rule="nonzero"/><path fill="#000000" d="M 270.332031 211.390625 C 268.902344 212.0625 268.691406 212.523438 263.855469 225.179688 C 259.191406 237.539062 258.9375 238.378906 259.441406 239.472656 C 260.15625 240.945312 261.921875 241.660156 263.519531 241.070312 C 264.402344 240.777344 264.867188 240.105469 265.664062 238.042969 L 266.714844 235.394531 L 271.929688 235.519531 L 277.140625 235.648438 L 277.898438 237.707031 C 278.949219 240.441406 279.832031 241.324219 281.515625 241.324219 C 282.984375 241.324219 284.625 239.765625 284.625 238.378906 C 284.625 236.949219 275.292969 212.945312 274.410156 212.0625 C 273.0625 210.71875 271.972656 210.550781 270.332031 211.390625 Z M 273.230469 225.390625 C 273.945312 227.28125 274.492188 228.921875 274.367188 229.003906 C 274.28125 229.089844 273.0625 229.132812 271.71875 229.046875 L 269.195312 228.921875 L 270.5 225.472656 C 271.214844 223.539062 271.84375 221.984375 271.886719 221.984375 C 271.929688 221.984375 272.515625 223.539062 273.230469 225.390625 Z M 273.230469 225.390625 " fill-opacity="1" fill-rule="nonzero"/><path fill="#000000" d="M 284.371094 211.054688 C 283.28125 211.472656 282.101562 213.070312 282.101562 214.039062 C 282.101562 214.417969 283.910156 217.484375 286.097656 220.890625 L 290.089844 227.027344 L 290.089844 233.335938 C 290.089844 239.09375 290.175781 239.726562 290.929688 240.480469 C 291.984375 241.535156 293.917969 241.574219 295.175781 240.523438 C 296.144531 239.765625 296.1875 239.472656 296.3125 233.082031 L 296.4375 226.484375 L 300.222656 220.722656 C 302.367188 217.402344 303.964844 214.542969 303.964844 213.914062 C 303.964844 211.894531 300.769531 210.253906 299.085938 211.390625 C 298.835938 211.558594 297.40625 213.535156 295.851562 215.847656 L 293.117188 219.964844 L 290.132812 215.511719 C 288.492188 213.070312 286.980469 211.054688 286.769531 211.054688 C 286.558594 211.054688 286.140625 210.96875 285.800781 210.886719 C 285.507812 210.757812 284.835938 210.84375 284.371094 211.054688 Z M 284.371094 211.054688 " fill-opacity="1" fill-rule="nonzero"/><path fill="#000000" d="M 168.632812 269.363281 C 166.070312 270.289062 163.042969 273.398438 162.160156 276.007812 C 160.5625 280.632812 161.613281 285.675781 164.808594 288.871094 C 168.296875 292.359375 168.507812 292.402344 189.613281 292.402344 C 206.472656 292.402344 208.070312 292.359375 210.171875 291.605469 C 218.117188 288.871094 220.46875 278.023438 214.417969 272.011719 C 211.09375 268.648438 211.136719 268.648438 189.445312 268.691406 C 173.34375 268.691406 170.191406 268.816406 168.632812 269.363281 Z M 208.953125 275.628906 C 210.550781 276.59375 211.472656 278.320312 211.472656 280.421875 C 211.472656 282.566406 210.550781 284.246094 208.785156 285.296875 C 207.5625 286.054688 206.386719 286.097656 189.824219 286.097656 C 175.824219 286.097656 171.871094 285.96875 170.820312 285.507812 C 166.996094 283.910156 166.699219 277.5625 170.359375 275.542969 C 171.113281 275.125 175.527344 274.996094 189.527344 274.957031 C 205.671875 274.957031 207.902344 275.039062 208.953125 275.628906 Z M 208.953125 275.628906 " fill-opacity="1" fill-rule="nonzero"/></svg>