<svg width="17" height="16" viewBox="0 0 17 16" fill="none" xmlns="http://www.w3.org/2000/svg">
<path fill-rule="evenodd" clip-rule="evenodd" d="M9.21963 4.96967C9.51253 4.67678 9.9874 4.67678 10.2803 4.96967C10.5696 5.25897 10.5731 5.72582 10.2909 6.01947L6.29873 11.0097C6.29297 11.0169 6.28682 11.0238 6.28029 11.0303C5.9874 11.3232 5.51253 11.3232 5.21963 11.0303L2.57319 8.38388C2.28029 8.09099 2.28029 7.61612 2.57319 7.32322C2.86608 7.03033 3.34095 7.03033 3.63385 7.32322L5.72737 9.41674L9.19974 4.9921C9.20592 4.98424 9.21256 4.97674 9.21963 4.96967Z" fill="#3CB187"/>
<path fill-rule="evenodd" clip-rule="evenodd" d="M8.29921 10.1099L9.21963 11.0303C9.51253 11.3232 9.9874 11.3232 10.2803 11.0303C10.2868 11.0238 10.293 11.0169 10.2987 11.0097L14.2909 6.01947C14.5731 5.72582 14.5696 5.25897 14.2803 4.96967C13.9874 4.67678 13.5125 4.67678 13.2196 4.96967C13.2126 4.97674 13.2059 4.98424 13.1997 4.9921L9.72737 9.41674L9.24202 8.9314L8.29921 10.1099Z" fill="#3CB187"/>
</svg>
