<svg width="17" height="16" viewBox="0 0 17 16" fill="none" xmlns="http://www.w3.org/2000/svg">
<g clip-path="url(#clip0_1883_10740)">
<g clip-path="url(#clip1_1883_10740)">
<path fill-rule="evenodd" clip-rule="evenodd" d="M4.25 1.50024H3.25C2.14543 1.50024 1.25 2.39567 1.25 3.50024V14.0002C1.25 15.1048 2.14543 16.0002 3.25 16.0002H13.25C14.3546 16.0002 15.25 15.1048 15.25 14.0002V3.50024C15.25 2.39567 14.3546 1.50024 13.25 1.50024H12.25V2.50024H13.25C13.8023 2.50024 14.25 2.94796 14.25 3.50024V14.0002C14.25 14.5525 13.8023 15.0002 13.25 15.0002H3.25C2.69772 15.0002 2.25 14.5525 2.25 14.0002V3.50024C2.25 2.94796 2.69772 2.50024 3.25 2.50024H4.25V1.50024Z" fill="#92929C"/>
<path fill-rule="evenodd" clip-rule="evenodd" d="M9.75 1.00024H6.75C6.47386 1.00024 6.25 1.2241 6.25 1.50024V2.50024C6.25 2.77639 6.47386 3.00024 6.75 3.00024H9.75C10.0261 3.00024 10.25 2.77639 10.25 2.50024V1.50024C10.25 1.2241 10.0261 1.00024 9.75 1.00024ZM6.75 0.000244141C5.92157 0.000244141 5.25 0.671817 5.25 1.50024V2.50024C5.25 3.32867 5.92157 4.00024 6.75 4.00024H9.75C10.5784 4.00024 11.25 3.32867 11.25 2.50024V1.50024C11.25 0.671817 10.5784 0.000244141 9.75 0.000244141H6.75Z" fill="#92929C"/>
</g>
<path d="M4.25 11.0002C4.25 10.448 4.69772 10.0002 5.25 10.0002C5.80228 10.0002 6.25 10.448 6.25 11.0002V12.0002C6.25 12.5525 5.80228 13.0002 5.25 13.0002C4.69772 13.0002 4.25 12.5525 4.25 12.0002V11.0002Z" fill="#92929C"/>
<path d="M10.25 7.00024C10.25 6.44796 10.6977 6.00024 11.25 6.00024C11.8023 6.00024 12.25 6.44796 12.25 7.00024V12.0002C12.25 12.5525 11.8023 13.0002 11.25 13.0002C10.6977 13.0002 10.25 12.5525 10.25 12.0002V7.00024Z" fill="#92929C"/>
<path d="M7.25 9.00024C7.25 8.44796 7.69772 8.00024 8.25 8.00024C8.80228 8.00024 9.25 8.44796 9.25 9.00024V12.0002C9.25 12.5525 8.80228 13.0002 8.25 13.0002C7.69772 13.0002 7.25 12.5525 7.25 12.0002V9.00024Z" fill="#92929C"/>
</g>
<defs>
<clipPath id="clip0_1883_10740">
<rect width="16" height="16" fill="white" transform="translate(0.25 0.000244141)"/>
</clipPath>
<clipPath id="clip1_1883_10740">
<rect width="14" height="16" fill="white" transform="translate(1.25 0.000244141)"/>
</clipPath>
</defs>
</svg>
