<svg xmlns="http://www.w3.org/2000/svg" xmlns:xlink="http://www.w3.org/1999/xlink" width="512" zoomAndPan="magnify" viewBox="0 0 384 383.999986" height="512" preserveAspectRatio="xMidYMid meet" version="1.0"><defs><clipPath id="b834e4dc9f"><path d="M 84.375 88 L 299.625 88 L 299.625 296 L 84.375 296 Z M 84.375 88 " clip-rule="nonzero"/></clipPath><clipPath id="0b98a1ae21"><path d="M 84.375 232 L 93 232 L 93 241 L 84.375 241 Z M 84.375 232 " clip-rule="nonzero"/></clipPath></defs><g clip-path="url(#b834e4dc9f)"><path fill="#000000" d="M 195.824219 89.25 C 192.925781 90.050781 191.285156 91.058594 189.058594 93.457031 C 183.339844 99.679688 184.265625 109.429688 191.074219 114.433594 C 192.167969 115.234375 193.765625 116.117188 194.648438 116.410156 L 196.203125 116.871094 L 196.203125 127.550781 L 193.175781 128.308594 C 183.382812 130.664062 171.566406 136.464844 162.78125 143.191406 C 159.585938 145.628906 152.566406 152.355469 149.832031 155.632812 L 147.730469 158.15625 L 131.628906 158.367188 L 115.570312 158.578125 L 114.476562 159.585938 C 112.375 161.605469 112.835938 165.179688 115.359375 166.3125 C 116.03125 166.605469 120.78125 166.773438 128.9375 166.773438 C 135.875 166.773438 141.550781 166.859375 141.550781 166.945312 C 141.550781 167.027344 140.542969 169.046875 139.28125 171.441406 C 138.0625 173.839844 136.421875 177.453125 135.664062 179.472656 L 134.277344 183.171875 L 86.941406 183.171875 L 85.847656 184.097656 C 84.417969 185.359375 83.996094 187.796875 85.003906 189.308594 C 86.476562 191.539062 86.730469 191.578125 110.273438 191.578125 L 131.964844 191.578125 L 131.714844 192.503906 C 131.417969 193.640625 130.324219 201.628906 129.949219 205.117188 L 129.738281 207.554688 L 120.066406 207.554688 C 109.558594 207.554688 108.546875 207.722656 107.582031 209.867188 C 106.949219 211.253906 106.949219 212.265625 107.582031 213.652344 C 108.546875 215.796875 109.558594 215.964844 120.234375 215.964844 L 130.074219 215.964844 L 130.367188 219.328125 C 130.621094 222.5625 132.132812 230.886719 132.554688 231.601562 C 132.679688 231.769531 126.625 231.9375 119.058594 231.9375 C 104.21875 231.9375 103.210938 232.066406 101.820312 234.210938 C 100.8125 235.722656 101.234375 238.160156 102.664062 239.421875 C 103.757812 240.347656 103.796875 240.347656 119.519531 240.347656 L 135.285156 240.347656 L 135.75 241.691406 C 136.589844 244.128906 140.582031 251.949219 142.8125 255.523438 C 150.96875 268.683594 163.285156 279.699219 177.496094 286.59375 C 198.136719 296.640625 220.292969 297.984375 242.660156 290.585938 C 246.316406 289.367188 256.574219 284.488281 259.8125 282.386719 C 263.21875 280.203125 263.847656 277.175781 261.285156 275.03125 C 259.601562 273.601562 257.792969 273.6875 255.273438 275.285156 C 251.320312 277.804688 244.128906 281.167969 239.210938 282.808594 C 216.511719 290.332031 191.746094 287.011719 172.03125 273.769531 C 140.582031 252.625 129.402344 211.757812 145.710938 177.496094 C 156.140625 155.632812 175.5625 140.542969 199.988281 135.371094 C 204.78125 134.320312 206.082031 134.234375 214.703125 134.234375 C 223.363281 134.234375 224.625 134.320312 229.457031 135.371094 C 237.152344 137.011719 241.902344 138.648438 248.964844 142.179688 C 256.027344 145.710938 260.988281 149.074219 266.496094 154.164062 C 292.898438 178.503906 298.828125 218.570312 280.539062 249.300781 C 278.226562 253.253906 277.933594 254.261719 278.605469 255.945312 C 279.488281 258.003906 282.515625 259.054688 284.53125 258.003906 C 285.582031 257.414062 287.769531 253.925781 290.542969 248.417969 C 304.921875 219.703125 301.9375 185.441406 282.765625 159.628906 C 279.53125 155.257812 272.382812 147.816406 268.09375 144.367188 C 259.097656 137.09375 247.832031 131.335938 236.859375 128.433594 L 233.199219 127.46875 L 233.199219 116.957031 L 235.554688 115.949219 C 238.539062 114.644531 241.398438 111.871094 242.785156 108.84375 C 244.339844 105.4375 244.382812 100.730469 242.785156 97.367188 C 241.273438 94.042969 239.042969 91.773438 235.808594 90.175781 L 232.988281 88.789062 L 215.542969 88.707031 C 201.207031 88.621094 197.675781 88.707031 195.824219 89.25 Z M 231.097656 97.238281 C 232.90625 97.617188 235.175781 99.972656 235.554688 101.78125 C 235.890625 103.714844 235.132812 105.816406 233.578125 107.328125 L 232.316406 108.546875 L 215.082031 108.675781 C 198.304688 108.800781 197.757812 108.757812 196.414062 107.917969 C 193.722656 106.277344 192.882812 102.496094 194.648438 99.886719 C 196.539062 97.03125 196.707031 96.988281 214.113281 96.988281 C 222.691406 96.988281 230.339844 97.113281 231.097656 97.238281 Z M 224.792969 121.457031 L 224.792969 125.785156 L 204.613281 125.785156 L 204.613281 117.167969 L 224.792969 117.167969 Z M 224.792969 121.457031 " fill-opacity="1" fill-rule="nonzero"/></g><path fill="#000000" d="M 206.714844 145.628906 C 198.011719 147.015625 191.621094 149.035156 184.851562 152.523438 C 167.238281 161.605469 155.003906 177.789062 150.714844 197.632812 C 149.371094 203.855469 149.371094 216.761719 150.757812 223.109375 C 154.542969 240.851562 164.671875 255.648438 179.597656 265.234375 C 200.914062 278.941406 228.492188 278.941406 249.804688 265.234375 C 264.730469 255.648438 274.863281 240.851562 278.648438 223.109375 C 280.035156 216.761719 280.035156 203.855469 278.6875 197.632812 C 272.886719 170.851562 252.117188 150.671875 225.71875 146.132812 C 221.261719 145.375 210.078125 145.082031 206.714844 145.628906 Z M 223.742188 154.375 C 248.292969 158.410156 267.042969 177.496094 270.867188 202.300781 C 271.667969 207.386719 271.457031 216.71875 270.449219 221.429688 C 267.96875 232.90625 262.882812 242.28125 254.683594 250.4375 C 246.359375 258.71875 237.277344 263.636719 225.925781 266.035156 C 220.25 267.253906 209.953125 267.378906 204.484375 266.285156 C 196.625 264.6875 188.847656 261.453125 182.332031 257.039062 C 180.605469 255.816406 177.160156 252.875 174.722656 250.4375 C 166.523438 242.28125 161.4375 232.90625 158.957031 221.429688 C 157.945312 216.71875 157.738281 207.386719 158.535156 202.300781 C 162.320312 177.664062 181.113281 158.453125 205.410156 154.375 C 209.867188 153.617188 219.199219 153.617188 223.742188 154.375 Z M 223.742188 154.375 " fill-opacity="1" fill-rule="nonzero"/><path fill="#000000" d="M 212.640625 161.898438 C 211.085938 162.738281 210.539062 164.210938 210.496094 167.320312 C 210.496094 170.515625 211.210938 172.28125 212.894531 173.039062 C 214.238281 173.671875 215.375 173.628906 216.761719 172.914062 C 218.359375 172.074219 218.90625 170.601562 218.90625 166.945312 C 218.90625 164 218.820312 163.664062 217.6875 162.527344 C 216.300781 161.183594 214.40625 160.933594 212.640625 161.898438 Z M 212.640625 161.898438 " fill-opacity="1" fill-rule="nonzero"/><path fill="#000000" d="M 242.660156 177.035156 C 241.988281 177.371094 236.691406 182.371094 230.929688 188.132812 L 220.460938 198.640625 L 218.78125 198.054688 C 216.71875 197.339844 212.472656 197.339844 210.496094 198.097656 L 209.027344 198.640625 L 203.730469 193.429688 C 198.851562 188.636719 198.304688 188.214844 196.875 188.214844 C 194.859375 188.214844 193.851562 188.761719 193.050781 190.316406 C 191.746094 192.839844 192.042969 193.429688 197.675781 199.105469 L 202.886719 204.402344 L 202.300781 206.460938 C 200.953125 210.917969 201.964844 215.542969 205.074219 219.03125 C 210.121094 224.792969 219.285156 224.792969 224.328125 219.03125 C 227.441406 215.542969 228.449219 210.917969 227.105469 206.460938 L 226.472656 204.402344 L 237.402344 193.472656 C 248.125 182.707031 248.335938 182.457031 248.335938 180.773438 C 248.335938 179.515625 248.039062 178.800781 247.242188 177.957031 C 246.609375 177.371094 245.898438 176.863281 245.558594 176.863281 C 245.265625 176.863281 244.804688 176.78125 244.46875 176.65625 C 244.171875 176.570312 243.375 176.738281 242.660156 177.035156 Z M 217.898438 207.304688 C 219.578125 208.984375 219.789062 210.792969 218.527344 212.851562 C 216.132812 216.761719 210.078125 214.828125 210.078125 210.121094 C 210.078125 207.976562 212.347656 205.875 214.703125 205.875 C 216.132812 205.875 216.71875 206.125 217.898438 207.304688 Z M 217.898438 207.304688 " fill-opacity="1" fill-rule="nonzero"/><path fill="#000000" d="M 166.984375 207.304688 C 165.050781 209.238281 165.179688 212.011719 167.28125 213.566406 C 168.5 214.492188 171.820312 214.953125 174.046875 214.535156 C 177.578125 213.859375 178.925781 209.992188 176.488281 207.511719 C 175.308594 206.335938 175.058594 206.292969 171.609375 206.292969 C 168.332031 206.292969 167.910156 206.378906 166.984375 207.304688 Z M 166.984375 207.304688 " fill-opacity="1" fill-rule="nonzero"/><path fill="#000000" d="M 252.917969 207.511719 C 252.035156 208.4375 251.699219 209.152344 251.699219 210.289062 C 251.699219 213.609375 253.589844 214.871094 258.339844 214.617188 C 261.242188 214.492188 261.535156 214.367188 262.671875 213.105469 C 263.972656 211.632812 264.183594 210.328125 263.386719 208.605469 C 262.628906 206.925781 260.988281 206.292969 257.375 206.292969 C 254.390625 206.292969 254.050781 206.378906 252.917969 207.511719 Z M 252.917969 207.511719 " fill-opacity="1" fill-rule="nonzero"/><path fill="#000000" d="M 213.566406 247.367188 C 213.0625 247.453125 212.136719 248.125 211.550781 248.796875 C 210.625 249.933594 210.496094 250.480469 210.496094 253.421875 C 210.496094 256.492188 210.582031 256.828125 211.71875 258.089844 C 213.105469 259.644531 215.164062 259.894531 216.972656 258.675781 C 218.445312 257.753906 218.90625 256.449219 218.90625 253.378906 C 218.90625 252.035156 218.738281 250.4375 218.484375 249.847656 C 217.855469 248.167969 215.542969 246.988281 213.566406 247.367188 Z M 213.566406 247.367188 " fill-opacity="1" fill-rule="nonzero"/><g clip-path="url(#0b98a1ae21)"><path fill="#000000" d="M 87.023438 232.570312 C 82.863281 234.378906 84.039062 240.347656 88.535156 240.347656 C 92.574219 240.347656 94.339844 235.132812 91.015625 233.074219 C 89.460938 232.066406 88.453125 231.9375 87.023438 232.570312 Z M 87.023438 232.570312 " fill-opacity="1" fill-rule="nonzero"/></g><path fill="#000000" d="M 268.894531 264.6875 C 267.296875 266.328125 267.253906 268.347656 268.765625 270.152344 C 269.648438 271.246094 270.152344 271.457031 271.625 271.457031 C 273.6875 271.457031 274.945312 270.699219 275.660156 268.976562 C 277.34375 264.855469 272.089844 261.535156 268.894531 264.6875 Z M 268.894531 264.6875 " fill-opacity="1" fill-rule="nonzero"/></svg>