<svg width="17" height="16" viewBox="0 0 17 16" fill="none" xmlns="http://www.w3.org/2000/svg">
<path fill-rule="evenodd" clip-rule="evenodd" d="M15.6036 2.64657C15.7988 2.84183 15.7988 3.15841 15.6036 3.35368L8.60355 10.3537C8.40829 10.5489 8.09171 10.5489 7.89645 10.3537L4.89645 7.35368C4.70118 7.15841 4.70118 6.84183 4.89645 6.64657C5.09171 6.45131 5.40829 6.45131 5.60355 6.64657L8.25 9.29302L14.8964 2.64657C15.0917 2.45131 15.4083 2.45131 15.6036 2.64657Z" fill="#3CBA54"/>
<path fill-rule="evenodd" clip-rule="evenodd" d="M8.25 2.50012C5.21243 2.50012 2.75 4.96256 2.75 8.00012C2.75 11.0377 5.21243 13.5001 8.25 13.5001C11.2876 13.5001 13.75 11.0377 13.75 8.00012C13.75 7.72398 13.9739 7.50012 14.25 7.50012C14.5261 7.50012 14.75 7.72398 14.75 8.00012C14.75 11.59 11.8399 14.5001 8.25 14.5001C4.66015 14.5001 1.75 11.59 1.75 8.00012C1.75 4.41027 4.66015 1.50012 8.25 1.50012C9.4331 1.50012 10.5438 1.81666 11.5004 2.37001C11.7394 2.50828 11.8211 2.81415 11.6828 3.05318C11.5445 3.29221 11.2387 3.37389 10.9996 3.23562C10.1912 2.76795 9.25262 2.50012 8.25 2.50012Z" fill="#3CBA54"/>
</svg>
