<svg width="17" height="16" viewBox="0 0 17 16" fill="none" xmlns="http://www.w3.org/2000/svg">
<path fill-rule="evenodd" clip-rule="evenodd" d="M15.25 14C15.25 14 16.25 14 16.25 13C16.25 12 15.25 9 11.25 9C7.25 9 6.25 12 6.25 13C6.25 14 7.25 14 7.25 14H15.25ZM7.27235 13H15.2277C15.2311 12.9996 15.236 12.999 15.2419 12.998C15.2446 12.9975 15.2473 12.997 15.25 12.9965C15.2485 12.7325 15.0831 11.9669 14.4907 11.2758C13.9367 10.6294 12.9673 10 11.25 10C9.53269 10 8.56334 10.6294 8.00926 11.2758C7.41687 11.9669 7.25146 12.7325 7.25001 12.9965C7.25266 12.997 7.25538 12.9975 7.25815 12.998C7.26403 12.999 7.26888 12.9996 7.27235 13Z" fill="#92929C"/>
<path fill-rule="evenodd" clip-rule="evenodd" d="M11.25 7C12.3546 7 13.25 6.10457 13.25 5C13.25 3.89543 12.3546 3 11.25 3C10.1454 3 9.25 3.89543 9.25 5C9.25 6.10457 10.1454 7 11.25 7ZM14.25 5C14.25 6.65685 12.9069 8 11.25 8C9.59315 8 8.25 6.65685 8.25 5C8.25 3.34315 9.59315 2 11.25 2C12.9069 2 14.25 3.34315 14.25 5Z" fill="#92929C"/>
<path fill-rule="evenodd" clip-rule="evenodd" d="M7.18593 9.27996C6.81813 9.16232 6.40954 9.07679 5.95628 9.03306C5.73195 9.01141 5.49668 9 5.25 9C1.25 9 0.25 12 0.25 13C0.25 13.6667 0.583333 14 1.25 14H5.46636C5.32556 13.7159 5.25 13.3791 5.25 13C5.25 11.9897 5.62724 10.958 6.33982 10.0962C6.58327 9.80174 6.86587 9.52713 7.18593 9.27996ZM5.17004 10.0005C3.50249 10.0197 2.55468 10.6395 2.00926 11.2758C1.41424 11.97 1.25 12.7393 1.25 13H4.25C4.25 11.9547 4.57256 10.9136 5.17004 10.0005Z" fill="#92929C"/>
<path fill-rule="evenodd" clip-rule="evenodd" d="M1.75 5.5C1.75 3.84315 3.09315 2.5 4.75 2.5C6.40685 2.5 7.75 3.84315 7.75 5.5C7.75 7.15685 6.40685 8.5 4.75 8.5C3.09315 8.5 1.75 7.15685 1.75 5.5ZM4.75 3.5C3.64543 3.5 2.75 4.39543 2.75 5.5C2.75 6.60457 3.64543 7.5 4.75 7.5C5.85457 7.5 6.75 6.60457 6.75 5.5C6.75 4.39543 5.85457 3.5 4.75 3.5Z" fill="#92929C"/>
</svg>
