<svg xmlns="http://www.w3.org/2000/svg" xmlns:xlink="http://www.w3.org/1999/xlink" width="1920" zoomAndPan="magnify" viewBox="0 0 1440 809.999993" height="1080" preserveAspectRatio="xMidYMid meet" version="1.0"><defs><clipPath id="1d5539e0d7"><path d="M 383.839844 118.164062 L 1007.839844 118.164062 L 1007.839844 691.636719 L 383.839844 691.636719 Z M 383.839844 118.164062 " clip-rule="nonzero"/></clipPath><clipPath id="aef50dd3d0"><path d="M 867 371.875 L 1007.839844 371.875 L 1007.839844 598 L 867 598 Z M 867 371.875 " clip-rule="nonzero"/></clipPath></defs><rect x="-144" width="1728" fill="#ffffff" y="-80.999999" height="971.999992" fill-opacity="1"/><rect x="-144" width="1728" fill="#ffffff" y="-80.999999" height="971.999992" fill-opacity="1"/><rect x="-144" width="1728" fill="#ffffff" y="-80.999999" height="971.999992" fill-opacity="1"/><g clip-path="url(#1d5539e0d7)"><path fill="#95afb7" d="M 650.253906 688.589844 C 649.324219 688.402344 648.363281 688.273438 647.394531 688.191406 C 633.257812 686.089844 619.253906 683.164062 605.464844 679.417969 C 591.742188 675.523438 578.285156 670.816406 565.136719 665.316406 C 552.472656 659.855469 540.113281 653.65625 528.183594 646.738281 C 516.730469 639.921875 505.683594 632.464844 495.085938 624.382812 C 484.992188 616.464844 475.324219 607.996094 466.195312 598.976562 C 457.324219 590 448.976562 580.53125 441.203125 570.601562 C 434.269531 561.492188 427.820312 552.019531 421.914062 542.21875 C 432.777344 522.832031 449.46875 505.617188 467.003906 490.988281 C 446.011719 495.523438 424.863281 500.804688 403.558594 505.367188 C 399.492188 495.226562 395.988281 484.871094 393.0625 474.347656 C 390.0625 462.96875 387.746094 451.4375 386.125 439.769531 C 385.3125 433.34375 384.714844 426.882812 384.339844 420.414062 C 384.332031 420.253906 384.324219 420.097656 384.304688 419.933594 C 384.011719 414.722656 383.851562 409.507812 383.839844 404.285156 C 383.878906 399.789062 384.019531 395.300781 384.265625 390.820312 C 384.273438 390.703125 384.285156 390.582031 384.289062 390.464844 C 384.300781 390.199219 384.316406 389.929688 384.332031 389.660156 C 384.351562 389.347656 384.371094 389.027344 384.390625 388.710938 C 384.394531 388.632812 384.394531 388.554688 384.40625 388.484375 C 384.765625 382.730469 385.285156 377 385.984375 371.28125 C 385.984375 371.277344 385.984375 371.265625 385.984375 371.261719 C 386.035156 370.878906 386.085938 370.492188 386.132812 370.109375 C 386.144531 369.925781 386.171875 369.742188 386.195312 369.566406 C 386.222656 369.34375 386.257812 369.132812 386.277344 368.914062 C 386.292969 368.761719 386.324219 368.625 386.339844 368.480469 C 387.007812 363.851562 387.785156 359.242188 388.675781 354.652344 C 388.695312 354.578125 388.710938 354.496094 388.714844 354.421875 C 388.75 354.25 388.78125 354.085938 388.816406 353.914062 C 390.15625 347.09375 391.746094 340.332031 393.5625 333.628906 C 393.734375 333.03125 393.90625 332.433594 394.078125 331.84375 C 394.183594 331.484375 394.28125 331.125 394.386719 330.769531 C 394.394531 330.753906 394.394531 330.75 394.40625 330.738281 C 396.449219 323.84375 398.742188 317.023438 401.273438 310.296875 C 401.289062 310.261719 401.308594 310.226562 401.324219 310.179688 C 401.40625 309.957031 401.492188 309.738281 401.578125 309.523438 C 401.644531 309.351562 401.699219 309.171875 401.765625 309.011719 C 401.800781 308.929688 401.832031 308.847656 401.855469 308.773438 C 402.910156 306.042969 403.996094 303.335938 405.113281 300.644531 C 409.789062 289.882812 415.058594 279.386719 420.925781 269.238281 C 427.171875 258.71875 434.042969 248.570312 441.472656 238.863281 C 449.070312 229.175781 457.21875 219.933594 465.863281 211.164062 C 469.484375 207.585938 473.179688 204.082031 476.964844 200.667969 C 477.125 200.515625 477.285156 200.378906 477.445312 200.234375 C 477.460938 200.21875 477.480469 200.203125 477.5 200.183594 C 482.859375 195.375 488.363281 190.734375 494.019531 186.277344 C 536.605469 168.261719 580.121094 151.976562 622.871094 135.898438 C 607.835938 137.019531 591.929688 138.5 575.378906 140.371094 C 585.765625 136.410156 596.335938 132.9375 607.042969 129.949219 C 621.53125 126.089844 636.25 123.136719 651.097656 121.089844 C 655.792969 120.492188 660.492188 119.992188 665.207031 119.578125 C 675.480469 118.675781 685.800781 118.210938 696.117188 118.160156 C 696.496094 118.160156 696.875 118.160156 697.253906 118.160156 C 697.820312 118.171875 698.378906 118.171875 698.933594 118.175781 C 711.484375 118.359375 724.027344 119.167969 736.496094 120.605469 C 738.3125 120.851562 740.164062 121.207031 741.988281 121.277344 C 742.378906 121.339844 742.769531 121.382812 743.15625 121.433594 C 757.640625 123.546875 771.984375 126.519531 786.117188 130.355469 C 794.167969 132.621094 802.144531 135.179688 810.019531 138.023438 C 813.980469 139.460938 817.921875 140.953125 821.832031 142.527344 C 823.410156 143.164062 824.996094 143.816406 826.574219 144.476562 C 828.125 145.144531 829.671875 145.820312 831.214844 146.507812 C 835.078125 148.242188 838.90625 150.027344 842.707031 151.90625 C 849.757812 155.394531 856.703125 159.109375 863.5 163.050781 C 874.660156 169.679688 885.421875 176.921875 895.75 184.765625 C 877.355469 193.84375 857.359375 200.605469 837.886719 207.175781 C 742.417969 237.957031 646.574219 268.5 555.359375 308.675781 C 681.050781 273.617188 809.261719 246.394531 938.621094 224.871094 C 942.683594 229.488281 946.609375 234.222656 950.398438 239.066406 C 957.898438 248.894531 964.824219 259.160156 971.117188 269.800781 C 977.015625 280.0625 982.308594 290.660156 986.972656 301.539062 C 991.539062 312.582031 995.4375 323.898438 998.640625 335.410156 C 1001.636719 346.761719 1003.957031 358.28125 1005.570312 369.910156 C 1007.058594 381.824219 1007.847656 393.820312 1007.867188 405.824219 C 1007.742188 417.738281 1006.90625 429.632812 1005.359375 441.4375 C 1003.65625 453.175781 1001.242188 464.785156 998.136719 476.21875 C 994.898438 487.535156 990.988281 498.652344 986.433594 509.507812 C 981.824219 520.140625 976.597656 530.488281 970.8125 540.507812 C 964.636719 550.921875 957.855469 560.957031 950.515625 570.578125 C 942.753906 580.492188 934.445312 589.9375 925.589844 598.890625 C 916.351562 608.015625 906.585938 616.59375 896.347656 624.582031 C 885.578125 632.804688 874.320312 640.359375 862.660156 647.238281 C 850.535156 654.214844 838.007812 660.441406 825.140625 665.929688 C 811.742188 671.449219 798.039062 676.15625 784.082031 680.003906 C 769.707031 683.8125 755.105469 686.726562 740.359375 688.738281 C 725.144531 690.648438 709.828125 691.613281 694.503906 691.636719 C 679.714844 691.492188 664.933594 690.480469 650.253906 688.589844 " fill-opacity="1" fill-rule="nonzero"/></g><path fill="#ffffff" d="M 868.304688 298.039062 C 868.566406 324.542969 866.105469 350.996094 867.1875 377.496094 C 868.472656 397.050781 868.015625 416.796875 863.160156 435.890625 C 860.285156 451.546875 863.574219 454.824219 844.871094 456.195312 C 818.46875 458.660156 791.894531 459.078125 765.402344 460.214844 C 672.40625 463.695312 579.316406 463.15625 486.308594 466.15625 C 482.414062 465.996094 477.921875 465.824219 475.070312 462.800781 C 455.238281 429.617188 459.878906 389.183594 458.335938 352.097656 C 458.195312 328.460938 457.25 304.847656 455.824219 281.25 C 455.929688 277.199219 454.882812 272.382812 457.554688 268.972656 C 457.011719 268.289062 457.679688 267.167969 458.5625 267.347656 C 459.875 267.339844 461.179688 267.234375 462.496094 267.144531 C 581.152344 260.878906 700.0625 258.085938 818.863281 256.414062 C 868.613281 257.324219 867.378906 242.722656 868.304688 298.039062 " fill-opacity="1" fill-rule="nonzero"/><path fill="#30568f" d="M 495.355469 314.625 C 489.449219 308.757812 482.910156 303.867188 476.976562 298.089844 C 474.765625 296.332031 471.777344 292.929688 474.414062 290.289062 C 477.3125 288.316406 480.328125 291.039062 482.28125 293.089844 C 488.210938 298.851562 494.675781 303.679688 500.515625 309.488281 C 503.855469 312.78125 498.667969 317.992188 495.355469 314.625 " fill-opacity="1" fill-rule="nonzero"/><path fill="#30568f" d="M 474.132812 317.0625 C 473.113281 315.683594 473.507812 313.882812 474.210938 312.484375 C 480.398438 305.109375 486.507812 297.890625 492.933594 290.851562 C 492.820312 290.96875 492.707031 291.101562 492.613281 291.195312 C 492.800781 290.980469 492.992188 290.769531 493.179688 290.554688 C 493.085938 290.664062 492.984375 290.785156 492.898438 290.890625 C 496.152344 285.265625 503.703125 290.78125 498.675781 295.308594 C 498.796875 295.164062 498.933594 295.011719 499.050781 294.867188 C 498.648438 295.34375 498.332031 295.667969 497.933594 296.144531 C 498.054688 295.996094 498.1875 295.863281 498.316406 295.71875 C 492.726562 301.890625 487.269531 308.210938 481.996094 314.546875 C 480.367188 316.863281 476.671875 319.757812 474.132812 317.0625 " fill-opacity="1" fill-rule="nonzero"/><path fill="#30568f" d="M 484.261719 315.019531 C 484.183594 306.9375 483.644531 298.859375 483.539062 290.796875 C 483.296875 288.359375 484.503906 284.695312 487.484375 284.960938 C 490.203125 285.558594 491.046875 288.609375 490.820312 291.058594 C 490.929688 299.039062 491.449219 307.03125 491.539062 315.019531 C 491.582031 319.707031 484.222656 319.730469 484.261719 315.019531 " fill-opacity="1" fill-rule="nonzero"/><path fill="#30568f" d="M 473.109375 306.199219 C 469.230469 304.730469 469.894531 300.476562 473.71875 299.496094 C 482.917969 298.824219 492.183594 298.785156 501.382812 297.734375 C 506.082031 297.613281 506.136719 304.960938 501.4375 305.003906 C 492.066406 305.617188 482.460938 307.089844 473.109375 306.199219 " fill-opacity="1" fill-rule="nonzero"/><path fill="#7a7575" d="M 837.992188 399.425781 C 842.789062 404.921875 835.425781 421.253906 835.105469 428.835938 C 834.222656 437.742188 833.136719 439.15625 823.222656 438.710938 C 716.089844 443.789062 608.882812 442.960938 501.671875 445.339844 C 491.449219 445.113281 488.636719 443.269531 487.183594 432.710938 C 486.554688 427.972656 483.878906 414.566406 486.15625 409.007812 C 528.988281 406.0625 572.152344 406.546875 615.097656 404.816406 C 689.097656 403.289062 763.769531 399.761719 837.453125 399.238281 C 837.632812 399.242188 837.8125 399.296875 837.992188 399.425781 " fill-opacity="1" fill-rule="nonzero"/><path fill="#3a3333" d="M 508.046875 445.988281 C 504 445.550781 498.90625 447.226562 495.871094 443.828125 C 494.09375 441.867188 495.460938 438.976562 497.753906 438.140625 C 607.769531 435.082031 718.050781 438.296875 828.046875 434.351562 C 830.289062 434.207031 832.230469 436.148438 832.300781 438.335938 C 832.375 440.640625 830.550781 442.449219 828.308594 442.597656 C 721.628906 446.238281 614.78125 443.84375 508.046875 445.988281 " fill-opacity="1" fill-rule="nonzero"/><path fill="#ffffff" d="M 616.523438 439.3125 C 616.644531 440.433594 615.714844 441.449219 614.617188 441.53125 C 611.421875 441.546875 612.410156 436.917969 612 434.789062 C 611.390625 424.566406 613.488281 420.335938 600.878906 421.144531 C 585.0625 421.355469 569.257812 421.789062 553.453125 422.394531 C 553.972656 426.171875 553.988281 430.003906 554.175781 433.800781 C 553.929688 436.015625 555.707031 440.414062 552.511719 440.898438 C 551.402344 440.984375 550.34375 440.113281 550.289062 438.988281 C 549.929688 433.523438 549.972656 427.972656 549.273438 422.5625 C 534.800781 423.066406 520.367188 424.132812 505.886719 424.421875 C 502.988281 424.628906 499.742188 424.285156 497.125 425.667969 C 496.171875 430.644531 496.152344 435.746094 495.230469 440.722656 C 495.128906 442.582031 492.695312 443.585938 491.472656 442.046875 L 491.511719 442.105469 C 491.023438 441.496094 490.847656 440.601562 491.179688 439.875 C 491.726562 436.867188 491.898438 433.875 492.277344 430.851562 C 492.695312 428.371094 492.421875 425.601562 493.671875 423.355469 C 496.628906 418.929688 511.117188 420.636719 516.53125 419.976562 C 544.09375 418.480469 571.679688 417.429688 599.28125 417.03125 C 617.875 415.382812 615.523438 424.5 616.523438 439.3125 " fill-opacity="1" fill-rule="nonzero"/><path fill="#ffffff" d="M 637.746094 405.078125 C 640.527344 405.773438 638.945312 409.148438 639.070312 411.152344 C 638.59375 413.277344 639.667969 417.484375 636.507812 417.589844 C 633.148438 417.085938 635.148438 412.691406 634.96875 410.421875 C 635.203125 408.460938 634.742188 404.683594 637.746094 405.078125 " fill-opacity="1" fill-rule="nonzero"/><path fill="#ffffff" d="M 645.328125 437 C 645.488281 438.242188 644.359375 439.34375 643.144531 439.273438 C 641.328125 439.183594 641.058594 437.265625 641.183594 435.878906 C 641.113281 431.136719 640.746094 426.453125 640.746094 421.808594 C 640.605469 419.109375 644.601562 418.796875 644.886719 421.503906 C 644.886719 426.691406 645.289062 431.8125 645.328125 437 " fill-opacity="1" fill-rule="nonzero"/><path fill="#ffffff" d="M 835.914062 419.183594 C 836.519531 421.730469 836.308594 436.945312 832.253906 435.785156 C 831.195312 435.578125 830.328125 434.453125 830.605469 433.363281 C 831.144531 431.253906 831.554688 429.113281 831.820312 427.082031 C 831.984375 424.421875 833.09375 417.757812 829.648438 417.046875 C 817.753906 415.46875 805.632812 416.117188 793.660156 415.945312 C 794.117188 423.304688 793.023438 428.265625 793.167969 434.738281 C 793.003906 437.429688 788.929688 437.210938 789.035156 434.503906 C 788.949219 428.335938 790.011719 422.101562 789.414062 415.980469 C 767.515625 416.285156 745.59375 416.882812 723.726562 418.359375 C 724.371094 423.277344 724.492188 428.160156 724.28125 433.125 C 723.859375 435.3125 724.929688 440.683594 721.695312 440.621094 C 718.347656 440.136719 720.355469 435.839844 720.117188 433.601562 C 720.332031 428.546875 720.253906 423.480469 719.566406 418.53125 C 706.304688 418.859375 692.632812 419.457031 679.441406 419.617188 C 672.207031 419.753906 664.957031 419.242188 657.976562 420.933594 C 655.125 421.550781 654.839844 422.523438 654.96875 425.46875 C 655.183594 430.320312 655.59375 435.191406 656.152344 440.015625 C 656.695312 442.675781 652.597656 443.480469 652.085938 440.800781 C 651.828125 434.957031 649.460938 425.070312 651.839844 419.960938 C 658.675781 411.925781 705.390625 416.578125 719.574219 414.351562 C 720.304688 413.472656 721.816406 413.339844 722.699219 414.21875 C 753.238281 412.410156 783.863281 411.433594 814.46875 411.949219 C 821.34375 412.863281 834.640625 409.660156 835.914062 419.183594 " fill-opacity="1" fill-rule="nonzero"/><path fill="#cbc1c1" d="M 504.257812 366.078125 C 510.902344 365.085938 531.597656 364.535156 532.019531 375.285156 C 530.5625 385.707031 507.289062 384.175781 500.214844 383.789062 C 476.398438 381.773438 485.699219 367.070312 504.257812 366.078125 " fill-opacity="1" fill-rule="nonzero"/><path fill="#f7ac7b" d="M 920.171875 478.910156 C 934.550781 490.46875 930.605469 500.253906 916.378906 508.71875 C 911.570312 511.808594 906.019531 516.191406 899.523438 514.824219 C 894.027344 513.644531 890.839844 508.996094 887.007812 505.695312 C 879.296875 498.113281 871.726562 490.667969 864.515625 482.8125 C 851.679688 467.863281 859.253906 456.28125 863.386719 440.761719 C 865.257812 433.71875 864.621094 426.648438 865.707031 419.578125 C 867.121094 412.855469 869.710938 406.539062 873.269531 417.398438 C 880.835938 441.011719 892.894531 467.382812 918.449219 479.191406 C 918.710938 478.570312 919.648438 478.453125 920.171875 478.910156 " fill-opacity="1" fill-rule="nonzero"/><path fill="#f7ac7b" d="M 993.121094 394.203125 C 992.402344 409.035156 961.402344 434.988281 946.554688 434.316406 C 942.820312 433.507812 939.300781 431.546875 935.601562 430.652344 C 927.203125 428.679688 917.96875 429.742188 910.207031 433.3125 C 909.238281 433.496094 908.683594 432.140625 909.53125 431.609375 C 897.726562 425.675781 886.835938 408.394531 885.0625 395.484375 C 884.304688 388.984375 887.535156 386.707031 892.148438 383.054688 C 904.082031 373.824219 916.8125 365.402344 930.542969 359.097656 C 935.484375 357.070312 940.484375 354.496094 945.863281 354.023438 C 949.058594 353.875 949.796875 357.492188 950.941406 359.773438 C 961.855469 385.410156 990.230469 385.035156 993.121094 394.203125 " fill-opacity="1" fill-rule="nonzero"/><path fill="#f7ac7b" d="M 913.394531 421.0625 C 918.433594 445.832031 893.488281 427.414062 884.34375 421.320312 C 871.90625 415.457031 873.726562 410.90625 865.523438 402.359375 C 862.964844 399.96875 860.027344 397.945312 857.921875 395.101562 C 847.152344 381.136719 837.433594 365.332031 839.660156 346.960938 C 839.824219 346.035156 839.421875 344.398438 840.753906 344.351562 C 841.320312 344.375 841.707031 344.890625 841.648438 345.433594 C 853.007812 359.449219 862.210938 375.402344 874.1875 388.949219 C 875.839844 390.398438 877.671875 392.09375 879.84375 392.566406 C 881.046875 387.914062 884.191406 386.304688 888.859375 386.664062 C 898.664062 388.539062 907.621094 398.0625 908.40625 408.078125 C 908.480469 409.71875 907.25 411.144531 907.597656 412.734375 C 907.914062 413.859375 909.175781 414.261719 909.890625 415.117188 C 911.570312 416.710938 912.792969 418.929688 913.394531 421.0625 " fill-opacity="1" fill-rule="nonzero"/><path fill="#df8253" d="M 897.808594 402.570312 C 897.21875 400.859375 895.019531 395.128906 892.746094 397.898438 C 892.28125 396.871094 893.378906 395.769531 894.292969 395.460938 C 898.019531 394.703125 899.929688 399.996094 897.808594 402.570312 " fill-opacity="1" fill-rule="nonzero"/><path fill="#df8253" d="M 912.734375 432.394531 C 913.671875 423.476562 913.402344 423.269531 907.476562 416.898438 C 906.53125 415.628906 905.4375 414.460938 905.503906 412.894531 C 908.949219 406.34375 905.160156 398.832031 900.933594 393.5 C 906.292969 397.597656 908.921875 405.042969 907.644531 411.632812 C 911.792969 413.1875 915.914062 417.246094 914.417969 422.007812 C 913.757812 425.429688 913.738281 429.117188 912.734375 432.394531 " fill-opacity="1" fill-rule="nonzero"/><path fill="#000000" d="M 960.917969 374.371094 C 967.699219 386.828125 953.671875 378.414062 935.378906 399.878906 C 933.320312 402.332031 931.734375 404.976562 930.117188 407.691406 C 929.21875 409.035156 928.273438 411.496094 926.265625 410.664062 C 920.613281 407.296875 915.042969 403.933594 909.621094 400.210938 C 904.28125 396.5625 895.246094 388.3125 888.554688 388.988281 C 884.609375 390.195312 886.570312 395.390625 885.847656 398.402344 C 885.277344 402.835938 879.242188 403.277344 876.054688 401.394531 C 873.46875 399.691406 872.460938 396.523438 870.992188 393.9375 C 870.023438 390.210938 854.074219 369.273438 850.898438 373.152344 C 849.164062 380.761719 841.277344 389.316406 833.320312 383.832031 C 828.800781 378.949219 832.65625 371.4375 832.765625 365.601562 C 832.761719 337.1875 844.449219 303.421875 875.246094 296.398438 C 876.609375 296 885.390625 294.183594 883.507812 297.175781 C 884.898438 297.597656 886.242188 297.128906 887.535156 296.648438 C 909.265625 288.816406 931.851562 304.484375 941.019531 323.878906 C 949.746094 339.957031 950.441406 359.0625 960.917969 374.371094 " fill-opacity="1" fill-rule="nonzero"/><path fill="#000000" d="M 868.519531 302.191406 C 874.433594 294.484375 890.769531 295.730469 899.132812 298.453125 C 900.414062 298.765625 902.097656 299.992188 901.089844 301.414062 C 899.765625 302.964844 894.109375 301.179688 892.085938 301 C 888.546875 300.390625 884.972656 299.648438 881.367188 299.6875 C 878.984375 300.074219 876.671875 300.707031 874.289062 301.039062 C 874.300781 300.945312 874.449219 300.847656 874.515625 300.75 C 872.515625 301.195312 870.476562 301.726562 868.519531 302.191406 " fill-opacity="1" fill-rule="nonzero"/><path fill="#000000" d="M 887.960938 308.402344 C 883.683594 299.429688 885.65625 297.214844 875.566406 292.175781 C 882.875 289.148438 890.808594 300.546875 887.960938 308.402344 " fill-opacity="1" fill-rule="nonzero"/><path fill="#000000" d="M 873.511719 326.976562 C 870.9375 315.652344 883.738281 290.039062 896.949219 291.179688 C 896.695312 291.316406 896.332031 291.539062 896.066406 291.734375 C 887.496094 297.195312 880.515625 305.125 877.589844 314.964844 C 876.359375 319 875.871094 323.414062 873.511719 326.976562 " fill-opacity="1" fill-rule="nonzero"/><path fill="#f7ac7b" d="M 856.554688 627.980469 C 835.03125 603.707031 823.167969 572.832031 809.011719 544.101562 C 796.234375 511.4375 784.585938 479.855469 746.957031 470.117188 C 742.75 469.027344 729.117188 464.546875 738.28125 460.617188 C 754.367188 454.953125 771.453125 459.296875 788.027344 457.183594 C 804.214844 455.914062 821.753906 453.050781 823.871094 473.980469 C 828.816406 498.855469 836.414062 523.601562 849.203125 545.742188 C 850.800781 548.335938 868.289062 578.984375 870.488281 571.441406 C 872.132812 566.320312 874.707031 562.722656 880.679688 564.210938 C 889.921875 566.359375 917.851562 582.890625 916.988281 592.824219 C 919.070312 593.132812 917.109375 595.792969 916.816406 596.898438 C 914.230469 603.214844 911.117188 609.203125 907.820312 615.214844 C 897.234375 624.332031 885.914062 632.582031 874.175781 640.140625 C 866.898438 638.382812 861.265625 633.425781 856.554688 627.980469 " fill-opacity="1" fill-rule="nonzero"/><g clip-path="url(#aef50dd3d0)"><path fill="#294273" d="M 912.613281 597.585938 C 895.152344 594.734375 879.390625 583.503906 867.65625 570.707031 C 866.851562 568.644531 867.347656 566.332031 867.425781 564.175781 C 872.664062 528.84375 868.609375 485.480469 900.640625 461.566406 C 912.726562 451.230469 924 439.476562 935.570312 428.902344 C 952.832031 428.109375 968.515625 414.589844 977.046875 400.292969 C 978.140625 398.105469 978.902344 395.804688 979.394531 393.429688 C 980.101562 390.578125 979.824219 387.378906 981.386719 384.800781 C 988.023438 378.46875 997.667969 375.878906 1005.820312 371.925781 C 1015.058594 443.597656 993.105469 517.851562 947.8125 573.984375 C 944.796875 568.207031 941.65625 562.265625 938.066406 556.859375 C 928.027344 541.15625 922.65625 572.054688 922.925781 578.988281 C 922.554688 587.835938 922.90625 599.8125 912.613281 597.585938 " fill-opacity="1" fill-rule="nonzero"/></g></svg>