<svg width="17" height="16" viewBox="0 0 17 16" fill="none" xmlns="http://www.w3.org/2000/svg">
<path fill-rule="evenodd" clip-rule="evenodd" d="M9.08727 1.62622C8.84121 0.791423 7.65879 0.791422 7.41273 1.62622L7.31888 1.94464C6.98155 3.08912 5.67432 3.63058 4.62653 3.05984L4.33501 2.90106C3.57074 2.48475 2.73463 3.32086 3.15093 4.08514L3.30972 4.37665C3.88046 5.42445 3.33899 6.73167 2.19451 7.069L1.8761 7.16285C1.0413 7.40891 1.0413 8.59134 1.8761 8.83739L2.19452 8.93124C3.339 9.26858 3.88046 10.5758 3.30972 11.6236L3.15093 11.9151C2.73463 12.6794 3.57074 13.5155 4.33501 13.0992L4.62653 12.9404C5.67433 12.3697 6.98155 12.9111 7.31888 14.0556L7.41273 14.374C7.65879 15.2088 8.84121 15.2088 9.08727 14.374L9.18112 14.0556C9.51845 12.9111 10.8257 12.3697 11.8735 12.9404L12.165 13.0992C12.9293 13.5155 13.7654 12.6794 13.3491 11.9151L13.1903 11.6236C12.6195 10.5758 13.161 9.26858 14.3055 8.93124L14.6239 8.83739C15.4587 8.59134 15.4587 7.40891 14.6239 7.16285L14.3055 7.069C13.161 6.73167 12.6195 5.42445 13.1903 4.37665L13.3491 4.08513C13.7654 3.32086 12.9293 2.48475 12.165 2.90106L11.8735 3.05985C10.8257 3.63059 9.51845 3.08912 9.18112 1.94464L9.08727 1.62622ZM6.45353 1.3435C6.98147 -0.447669 9.51853 -0.44767 10.0465 1.3435L10.1403 1.66192C10.2975 2.19531 10.9068 2.44767 11.3951 2.18167L11.6866 2.02288C13.3265 1.12965 15.1205 2.92361 14.2272 4.56348L14.0684 4.85499C13.8024 5.34333 14.0548 5.95258 14.5882 6.1098L14.9066 6.20365C16.6978 6.73159 16.6978 9.26865 14.9066 9.79659L14.5882 9.89045C14.0548 10.0477 13.8024 10.6569 14.0684 11.1453L14.2272 11.4368C15.1205 13.0766 13.3265 14.8706 11.6866 13.9774L11.3951 13.8186C10.9068 13.5526 10.2975 13.8049 10.1403 14.3383L10.0465 14.6567C9.51853 16.4479 6.98147 16.4479 6.45353 14.6567L6.35968 14.3383C6.20246 13.8049 5.59321 13.5526 5.10487 13.8186L4.81335 13.9774C3.17349 14.8706 1.37953 13.0766 2.27276 11.4368L2.43155 11.1453C2.69755 10.6569 2.44519 10.0477 1.91179 9.89045L1.59338 9.79659C-0.197791 9.26865 -0.197793 6.73159 1.59338 6.20365L1.91179 6.1098C2.44519 5.95258 2.69755 5.34333 2.43155 4.85499L2.27276 4.56348C1.37953 2.92362 3.1735 1.12965 4.81336 2.02288L5.10487 2.18167C5.59321 2.44767 6.20246 2.19531 6.35968 1.66191L6.45353 1.3435Z" fill="#92929C"/>
<path fill-rule="evenodd" clip-rule="evenodd" d="M8.24991 5.75439C7.00961 5.75439 6.00415 6.75986 6.00415 8.00016C6.00415 9.24046 7.00961 10.2459 8.24991 10.2459C9.49021 10.2459 10.4957 9.24046 10.4957 8.00016C10.4957 6.75986 9.49021 5.75439 8.24991 5.75439ZM5.00415 8.00016C5.00415 6.20757 6.45733 4.75439 8.24991 4.75439C10.0425 4.75439 11.4957 6.20757 11.4957 8.00016C11.4957 9.79274 10.0425 11.2459 8.24991 11.2459C6.45733 11.2459 5.00415 9.79274 5.00415 8.00016Z" fill="#92929C"/>
</svg>
