<svg width="17" height="16" viewBox="0 0 17 16" fill="none" xmlns="http://www.w3.org/2000/svg">
<path fill-rule="evenodd" clip-rule="evenodd" d="M8.76496 1.01921C8.59401 1.0066 8.42225 1.00024 8.25 1.00024V0.000244141C8.44685 0.000244141 8.64314 0.00750613 8.83852 0.0219163L8.76496 1.01921ZM10.7693 1.46929C10.4485 1.34558 10.1191 1.24565 9.78371 1.17033L10.0028 0.194626C10.3861 0.280707 10.7626 0.39491 11.1292 0.536299L10.7693 1.46929ZM12.139 2.17996C11.9958 2.08426 11.8494 1.99412 11.7003 1.90963L12.1932 1.03955C12.3636 1.13611 12.5309 1.23913 12.6946 1.34849C12.8582 1.45785 13.0174 1.57294 13.1719 1.69347L12.5566 2.48182C12.4215 2.37636 12.2822 2.27565 12.139 2.17996ZM13.9731 3.96959C13.7752 3.68853 13.5568 3.42243 13.3197 3.17346L14.044 2.48392C14.3149 2.76846 14.5645 3.07257 14.7907 3.39377L13.9731 3.96959ZM14.7172 5.32146C14.6512 5.16232 14.5796 5.00607 14.5026 4.85296L15.3958 4.40335C15.4839 4.57834 15.5657 4.75692 15.641 4.93878C15.7164 5.12064 15.7848 5.30477 15.8462 5.49079L14.8967 5.80448C14.8429 5.64172 14.7831 5.4806 14.7172 5.32146ZM15.2479 7.82846C15.2395 7.4848 15.2057 7.14221 15.1469 6.80351L16.1322 6.63255C16.1994 7.01964 16.238 7.41116 16.2476 7.80391L15.2479 7.82846ZM15.1155 9.36588C15.1491 9.19694 15.1764 9.02724 15.1974 8.85711L16.1898 8.97953C16.1659 9.17396 16.1347 9.36791 16.0963 9.56097C16.0579 9.75403 16.0125 9.94514 15.9602 10.1339L14.9964 9.86724C15.0422 9.70204 15.0819 9.53481 15.1155 9.36588ZM14.164 11.7452C14.3479 11.4548 14.5102 11.1512 14.6495 10.8369L15.5637 11.2422C15.4045 11.6013 15.219 11.9483 15.0088 12.2802L14.164 11.7452ZM13.1997 12.95C13.3215 12.8282 13.4385 12.7022 13.5505 12.5725L14.3077 13.2256C14.1797 13.374 14.046 13.5179 13.9069 13.6571L13.1997 12.95Z" fill="#92929C"/>
<path fill-rule="evenodd" clip-rule="evenodd" d="M8.25 1.00024C7.09885 1.00024 5.96545 1.28414 4.95022 1.8268C3.93499 2.36945 3.06926 3.1541 2.42971 4.11125C1.79017 5.0684 1.39654 6.16851 1.28371 7.31412C1.17088 8.45974 1.34232 9.6155 1.78285 10.679C2.22337 11.7426 2.91939 12.681 3.80925 13.4113C4.69911 14.1416 5.75533 14.6412 6.88437 14.8657C8.01341 15.0903 9.18041 15.033 10.282 14.6988C11.3836 14.3647 12.3858 13.764 13.1997 12.95L13.9069 13.6571C12.9766 14.5874 11.8312 15.2739 10.5723 15.6558C9.31332 16.0377 7.97961 16.1032 6.68928 15.8465C5.39895 15.5899 4.19183 15.0189 3.17486 14.1843C2.15788 13.3497 1.36243 12.2772 0.858966 11.0617C0.355504 9.84625 0.159572 8.52538 0.288524 7.21611C0.417476 5.90683 0.867333 4.64957 1.59825 3.55568C2.32916 2.46179 3.31857 1.56505 4.47883 0.944874C5.63909 0.324701 6.93439 0.000244141 8.25 0.000244141V1.00024Z" fill="#92929C"/>
<path fill-rule="evenodd" clip-rule="evenodd" d="M7.75 3.00024C8.02614 3.00024 8.25 3.2241 8.25 3.50024V8.71008L11.4981 10.5661C11.7378 10.7031 11.8211 11.0086 11.6841 11.2483C11.5471 11.4881 11.2417 11.5714 11.0019 11.4344L7.50193 9.43437C7.34615 9.34534 7.25 9.17967 7.25 9.00024V3.50024C7.25 3.2241 7.47386 3.00024 7.75 3.00024Z" fill="#92929C"/>
</svg>
