<svg width="17" height="16" viewBox="0 0 17 16" fill="none" xmlns="http://www.w3.org/2000/svg">
<path fill-rule="evenodd" clip-rule="evenodd" d="M2.25 13.5005V7.00054H3.25V13.5005C3.25 13.7767 3.47386 14.0005 3.75 14.0005H12.75C13.0261 14.0005 13.25 13.7767 13.25 13.5005V7.00054H14.25V13.5005C14.25 14.329 13.5784 15.0005 12.75 15.0005H3.75C2.92157 15.0005 2.25 14.329 2.25 13.5005Z" fill="#92929C"/>
<path fill-rule="evenodd" clip-rule="evenodd" d="M13.25 2.50054V6.00054L11.25 4.00054V2.50054C11.25 2.22439 11.4739 2.00054 11.75 2.00054H12.75C13.0261 2.00054 13.25 2.22439 13.25 2.50054Z" fill="#92929C"/>
<path fill-rule="evenodd" clip-rule="evenodd" d="M7.54289 1.50054C7.93342 1.11001 8.56658 1.11001 8.95711 1.50054L15.6036 8.14698C15.7988 8.34224 15.7988 8.65883 15.6036 8.85409C15.4083 9.04935 15.0917 9.04935 14.8964 8.85409L8.25 2.20764L1.60355 8.85409C1.40829 9.04935 1.09171 9.04935 0.896447 8.85409C0.701184 8.65883 0.701184 8.34224 0.896447 8.14698L7.54289 1.50054Z" fill="#92929C"/>
</svg>
