<?xml version="1.0" standalone="no"?>
<!DOCTYPE svg PUBLIC "-//W3C//DTD SVG 20010904//EN"
 "http://www.w3.org/TR/2001/REC-SVG-20010904/DTD/svg10.dtd">
<svg version="1.0" xmlns="http://www.w3.org/2000/svg"
 width="1855.000000pt" height="1855.000000pt" viewBox="0 0 1855.000000 1855.000000"
 preserveAspectRatio="xMidYMid meet">

<g transform="translate(0.000000,1855.000000) scale(0.100000,-0.100000)"
fill="#000000" stroke="none">
<path d="M8800 18125 c-19 -8 -70 -14 -113 -14 -45 -1 -93 -7 -114 -16 -19 -8
-44 -15 -55 -15 -17 0 -19 -5 -14 -27 19 -82 35 -183 36 -218 0 -22 5 -57 10
-77 6 -20 15 -76 20 -125 5 -48 14 -119 20 -158 6 -38 19 -133 31 -210 11 -77
25 -168 30 -203 10 -55 9 -65 -6 -82 -13 -15 -22 -16 -48 -9 -18 5 -40 19 -50
31 -10 13 -225 231 -478 484 l-459 462 -88 -5 c-48 -2 -100 -9 -117 -15 -16
-6 -59 -14 -95 -17 -51 -5 -64 -9 -61 -21 4 -19 33 -216 65 -445 25 -178 75
-530 96 -675 6 -41 15 -100 20 -130 5 -30 17 -109 25 -175 9 -66 23 -160 31
-209 8 -49 14 -93 14 -98 0 -13 202 -6 232 9 15 7 40 13 57 13 16 0 33 5 36
10 5 8 11 7 20 0 29 -24 34 1 10 53 -21 43 -24 62 -19 112 4 42 1 73 -10 104
-9 24 -16 76 -16 115 -1 41 -8 88 -17 111 -9 22 -18 75 -19 118 -2 43 -10 103
-19 132 -8 29 -15 82 -15 117 0 34 -7 88 -15 118 -29 110 -16 145 45 120 17
-7 241 -226 500 -489 l470 -476 78 -2 c54 -2 84 2 100 13 15 10 50 15 105 16
88 1 101 4 92 19 -4 5 -8 40 -10 78 -2 41 -11 84 -23 107 -15 30 -18 53 -15
104 4 49 0 78 -14 116 -15 37 -19 67 -15 107 3 38 -1 74 -13 109 -9 29 -18 91
-20 138 -1 55 -8 97 -19 117 -11 22 -15 55 -15 105 1 52 -5 88 -19 126 -15 39
-19 66 -15 106 4 35 0 72 -12 112 -10 32 -18 95 -19 139 -2 52 -8 91 -19 112
-13 24 -17 53 -15 110 3 88 -3 94 -72 68z"/>
<path d="M10813 17960 c-12 -5 -50 -12 -85 -15 -61 -6 -80 -13 -178 -59 -84
-40 -210 -191 -210 -253 0 -12 -9 -42 -20 -68 -17 -39 -19 -60 -14 -119 3 -39
12 -84 20 -100 8 -16 14 -39 14 -51 0 -13 7 -28 15 -35 8 -7 15 -19 15 -28 0
-17 121 -138 154 -153 34 -16 68 -37 75 -46 3 -5 17 -14 31 -21 43 -22 71 -39
83 -51 6 -6 19 -11 28 -11 9 0 22 -7 29 -15 7 -8 19 -15 27 -15 8 0 26 -9 40
-20 14 -11 34 -20 43 -20 10 0 20 -7 24 -15 3 -8 14 -15 24 -15 10 0 27 -9 37
-20 10 -11 23 -20 30 -20 13 0 74 -63 98 -102 11 -18 17 -49 17 -88 0 -55 -3
-63 -36 -99 -20 -23 -48 -42 -67 -46 -18 -4 -37 -12 -44 -17 -14 -11 -98 -6
-183 11 -49 9 -94 27 -140 52 -8 5 -24 13 -36 18 -80 35 -220 137 -321 234
-82 79 -78 79 -140 -7 -21 -28 -61 -79 -91 -113 -62 -72 -62 -70 25 -153 103
-98 157 -142 186 -152 15 -5 27 -13 27 -17 0 -4 25 -20 55 -36 31 -15 58 -32
61 -36 3 -5 16 -9 30 -9 14 0 27 -7 30 -15 4 -8 17 -15 31 -15 14 0 36 -9 50
-20 14 -11 40 -20 57 -20 18 0 37 -5 44 -12 7 -7 38 -13 70 -14 33 -1 75 -9
94 -17 49 -21 242 -21 282 0 16 8 48 15 72 16 24 0 49 6 55 14 6 7 21 13 34
13 12 0 30 9 40 20 10 11 22 20 28 20 34 0 157 141 157 181 0 9 7 22 15 29 8
7 15 29 15 49 0 20 4 41 10 47 19 19 23 155 6 204 -9 25 -16 53 -16 62 0 9 -6
23 -12 30 -7 7 -21 30 -32 50 -10 21 -44 63 -75 96 -59 61 -102 89 -316 206
-234 128 -323 199 -335 268 -22 116 49 192 175 190 63 -1 147 -17 180 -35 17
-9 37 -17 46 -17 9 0 22 -7 29 -15 7 -8 20 -15 29 -15 9 0 25 -7 35 -15 11 -8
27 -15 37 -15 9 0 19 -7 23 -15 3 -8 16 -20 28 -26 36 -16 66 -34 86 -52 10
-10 22 -17 26 -17 3 0 23 -15 42 -32 20 -18 41 -33 47 -34 14 0 87 76 87 91 0
6 15 26 33 46 50 55 97 117 97 127 0 21 -246 202 -275 202 -7 0 -18 7 -25 15
-7 8 -27 17 -46 21 -19 3 -34 10 -34 15 0 4 -17 11 -37 15 -21 4 -47 13 -58
20 -11 8 -35 14 -55 14 -20 0 -44 6 -55 14 -11 7 -56 16 -101 19 -44 3 -93 11
-108 17 -33 12 -102 12 -133 0z"/>
<path d="M12171 17073 c-375 -751 -539 -1075 -551 -1087 -18 -18 -12 -39 10
-33 14 4 25 -1 33 -14 6 -10 22 -19 34 -19 12 0 25 -4 28 -10 8 -12 103 -60
120 -60 7 0 15 -7 19 -15 3 -8 16 -15 29 -15 13 0 32 -9 42 -20 24 -27 45 -25
45 4 0 13 7 29 15 36 8 7 15 21 15 31 0 10 4 20 9 23 4 3 21 32 36 63 15 32
31 65 36 73 5 8 11 21 14 28 3 6 7 18 10 25 3 6 18 35 34 62 16 28 30 58 30
68 1 10 8 20 16 23 8 4 15 14 15 24 0 10 7 25 15 33 7 8 17 26 20 40 8 29 40
67 58 67 26 0 91 -23 104 -36 8 -8 23 -14 32 -14 10 0 24 -7 31 -15 7 -8 19
-15 27 -15 8 0 26 -9 40 -20 14 -11 32 -20 40 -20 8 0 21 -7 29 -15 9 -8 24
-15 33 -15 10 0 24 -7 31 -15 7 -8 19 -15 27 -15 8 0 26 -9 40 -20 14 -11 32
-20 40 -20 8 0 21 -7 29 -15 9 -8 24 -15 33 -15 10 0 24 -7 31 -15 7 -8 19
-15 28 -15 8 0 23 -7 33 -16 10 -9 33 -19 51 -23 32 -7 33 -8 30 -57 -2 -27
-9 -54 -17 -60 -7 -5 -17 -23 -21 -40 -4 -16 -13 -35 -21 -42 -7 -7 -13 -22
-13 -31 0 -10 -7 -24 -15 -31 -8 -7 -15 -19 -15 -28 0 -8 -7 -23 -15 -32 -9
-10 -17 -27 -20 -39 -2 -12 -11 -28 -19 -37 -9 -8 -16 -24 -16 -33 0 -10 -7
-24 -15 -31 -8 -7 -15 -20 -15 -30 0 -10 -7 -23 -15 -30 -8 -7 -15 -20 -15
-30 0 -9 -9 -27 -20 -40 -11 -13 -20 -28 -20 -33 0 -6 -7 -18 -16 -28 -14 -16
-14 -19 10 -34 14 -9 30 -14 36 -10 7 4 18 -2 26 -14 8 -12 23 -21 33 -21 10
0 24 -7 31 -15 7 -8 22 -15 34 -15 12 0 29 -9 39 -20 9 -11 24 -20 34 -20 9 0
24 -7 33 -15 21 -19 91 -9 97 15 2 9 16 39 31 68 15 28 40 77 56 109 16 32 39
78 52 103 13 25 42 83 64 130 23 47 45 92 50 100 5 8 27 53 50 100 23 47 45
92 50 100 5 8 79 157 165 330 86 173 161 322 166 330 37 62 91 184 82 187 -5
2 -86 42 -178 88 -120 61 -171 82 -176 73 -4 -7 -6 -15 -3 -19 2 -4 -3 -12
-11 -19 -8 -7 -15 -20 -15 -30 0 -9 -9 -27 -20 -40 -11 -13 -20 -31 -20 -40 0
-10 -7 -23 -15 -30 -8 -7 -15 -20 -15 -30 0 -10 -7 -23 -15 -30 -8 -7 -15 -20
-15 -30 0 -9 -9 -27 -20 -40 -11 -13 -20 -31 -20 -40 0 -10 -7 -23 -15 -30 -8
-7 -15 -20 -15 -30 0 -10 -7 -23 -15 -30 -8 -7 -15 -20 -15 -30 0 -9 -9 -27
-20 -40 -11 -13 -20 -31 -20 -40 0 -10 -7 -23 -15 -30 -8 -7 -15 -20 -15 -29
0 -25 -20 -41 -50 -41 -28 0 -699 332 -712 353 -13 20 -9 43 12 67 11 13 20
29 20 35 0 7 7 18 15 25 8 7 15 23 15 37 0 13 7 26 15 29 8 4 15 10 15 16 0
15 50 117 61 123 5 4 9 17 9 31 0 14 7 27 15 30 8 4 15 10 15 16 0 15 50 117
61 123 5 4 9 17 9 30 0 13 6 28 13 32 17 11 48 73 42 83 -8 12 -324 170 -341
170 -9 0 -109 -190 -253 -477z"/>
<path d="M5924 17440 c-12 -5 -25 -13 -29 -19 -3 -6 -17 -11 -29 -11 -13 0
-29 -7 -36 -15 -7 -8 -19 -15 -27 -15 -8 0 -27 -6 -41 -14 -15 -8 -49 -24 -77
-37 -27 -12 -61 -27 -75 -35 l-25 -13 3 -323 c1 -178 5 -612 8 -966 l6 -643
32 7 c17 3 39 13 48 21 10 9 24 13 32 10 8 -3 22 3 32 14 9 10 30 19 46 19 16
0 31 6 34 15 4 8 18 15 33 15 14 0 36 11 49 24 13 15 30 22 41 19 26 -7 29 15
19 157 -5 68 -8 147 -6 174 3 46 5 50 34 58 17 4 37 15 44 23 7 8 23 15 35 15
12 0 28 7 35 15 7 8 23 15 36 15 12 0 29 7 38 15 8 8 23 15 34 15 11 0 31 9
45 20 14 11 34 20 45 20 10 0 27 9 38 21 10 11 26 18 36 16 9 -3 22 1 29 9 6
8 19 14 29 14 9 0 29 9 43 20 14 11 34 20 45 20 11 0 25 7 32 15 7 8 23 15 36
15 12 0 30 7 39 17 9 9 39 18 66 21 l50 5 124 -123 c86 -85 128 -121 139 -117
9 4 16 11 16 17 0 5 11 10 23 10 13 0 34 9 47 20 13 11 33 20 45 20 13 0 28 7
35 15 7 8 23 15 35 15 12 0 28 7 35 15 7 8 22 15 35 15 12 0 30 9 40 20 10 11
29 20 42 20 34 0 29 12 -29 65 -29 27 -98 92 -154 144 -96 92 -132 125 -289
270 -39 36 -122 115 -185 176 -63 61 -173 165 -245 230 -71 65 -173 160 -225
210 -232 224 -245 235 -270 234 -14 0 -35 -4 -46 -9z m44 -469 c38 -24 522
-517 520 -529 -3 -16 -7 -18 -83 -52 -27 -12 -62 -28 -77 -36 -14 -8 -33 -14
-41 -14 -8 0 -20 -7 -27 -15 -7 -8 -22 -15 -33 -15 -11 0 -28 -6 -36 -13 -9
-7 -49 -26 -89 -42 -40 -16 -75 -32 -78 -37 -8 -12 -58 -10 -72 4 -7 7 -12 41
-12 82 0 39 -7 150 -16 246 -17 201 -23 399 -11 418 9 14 36 16 55 3z"/>
<path d="M4364 16607 c-28 -23 -109 -89 -180 -145 -71 -57 -167 -135 -214
-172 -125 -101 -193 -155 -310 -248 -58 -46 -143 -114 -190 -152 -47 -38 -94
-76 -104 -83 -18 -13 -17 -17 25 -73 24 -32 68 -89 99 -126 30 -37 84 -104
120 -149 36 -44 89 -110 118 -145 29 -36 63 -80 76 -99 13 -19 48 -62 77 -96
30 -33 58 -68 63 -77 5 -10 37 -49 70 -89 34 -39 72 -87 86 -106 14 -18 42
-54 63 -78 41 -48 86 -104 177 -221 98 -126 115 -141 141 -133 25 8 33 15 83
63 19 17 58 48 87 68 29 19 67 51 85 70 18 19 36 34 39 34 10 0 84 58 119 92
16 16 51 42 77 60 27 17 49 35 49 40 0 4 4 8 10 8 5 0 22 13 38 29 15 16 52
46 82 66 29 20 68 52 86 71 18 19 36 34 41 34 4 1 31 20 59 43 29 23 76 61
105 84 30 24 61 50 70 58 9 8 20 15 25 15 5 0 17 12 27 25 18 24 17 25 -18 39
-19 8 -35 20 -35 25 0 11 -116 167 -130 176 -7 4 -121 -82 -206 -154 -17 -14
-77 -62 -134 -106 -56 -44 -132 -105 -169 -135 -36 -31 -82 -67 -101 -81 -19
-15 -53 -43 -75 -63 -52 -49 -99 -70 -124 -56 -11 5 -30 27 -42 47 -21 35
-103 136 -166 205 -34 39 -29 88 12 107 17 8 32 18 33 23 2 4 8 8 13 8 5 0 35
25 65 55 31 30 61 55 68 55 10 0 32 18 120 98 20 18 38 32 42 32 12 0 103 75
109 90 3 8 23 24 45 34 22 11 40 23 40 28 0 4 5 8 11 8 13 0 79 67 79 80 0 5
-4 10 -9 12 -5 2 -21 21 -35 43 -15 22 -45 60 -66 85 -21 25 -47 56 -57 69
l-20 24 -119 -95 c-260 -209 -456 -367 -489 -397 -25 -21 -46 -31 -69 -31 -28
0 -40 8 -82 61 -27 34 -59 76 -70 93 -12 17 -40 51 -63 76 -35 37 -41 50 -39
80 2 26 8 36 23 38 18 4 94 59 120 88 15 16 92 74 99 74 4 0 32 25 63 55 31
30 62 55 68 55 7 0 43 29 81 65 38 35 73 64 78 65 9 0 74 51 129 102 18 15 39
31 48 33 35 11 30 37 -18 92 -27 30 -55 65 -63 77 -32 49 -74 96 -84 95 -6 0
-34 -19 -62 -42z"/>
<path d="M14384 16314 c-27 -36 -65 -84 -85 -107 -20 -23 -54 -67 -76 -97 -23
-30 -49 -64 -59 -75 -11 -11 -35 -42 -54 -68 -19 -27 -42 -56 -50 -66 -37 -41
-90 -109 -90 -115 0 -4 -20 -31 -45 -59 -24 -29 -82 -101 -129 -162 -47 -60
-103 -132 -126 -160 -22 -27 -54 -69 -72 -92 -119 -154 -167 -215 -211 -266
l-49 -57 23 -20 c13 -11 29 -19 35 -20 6 0 28 -16 48 -36 21 -20 59 -51 86
-69 27 -18 64 -47 82 -64 43 -40 61 -39 89 7 13 20 41 56 64 80 22 24 45 54
50 66 6 13 30 46 55 73 25 28 83 100 130 162 47 62 104 134 127 162 24 27 49
62 57 77 8 15 24 36 36 47 13 11 47 54 78 95 30 41 66 86 78 99 13 13 39 46
58 75 19 28 48 64 65 80 17 17 31 34 31 40 0 5 22 35 48 65 26 31 70 85 97
121 28 36 58 71 68 78 27 21 20 39 -30 76 -27 20 -55 41 -62 48 -67 58 -189
148 -202 148 -9 0 -39 -30 -65 -66z"/>
<path d="M15070 15478 c-352 -300 -684 -583 -908 -773 -177 -150 -199 -172
-186 -185 8 -8 29 -37 46 -63 17 -27 60 -78 94 -115 35 -36 64 -69 64 -74 0
-5 12 -6 26 -4 32 6 83 44 204 152 25 22 83 72 130 111 96 80 287 242 413 351
85 73 102 80 138 62 23 -13 25 -36 4 -56 -9 -9 -15 -34 -15 -60 0 -25 -9 -62
-20 -84 -11 -22 -20 -59 -20 -85 0 -25 -7 -57 -16 -70 -11 -17 -14 -36 -10
-58 4 -22 0 -43 -14 -70 -11 -20 -20 -53 -20 -73 0 -19 -10 -57 -21 -84 -13
-31 -19 -59 -15 -75 4 -16 -1 -39 -14 -65 -11 -21 -20 -59 -20 -83 0 -24 -7
-52 -15 -63 -8 -10 -15 -40 -15 -66 0 -28 -9 -64 -21 -88 -15 -28 -19 -50 -15
-72 4 -21 0 -41 -15 -68 -15 -26 -20 -49 -17 -71 3 -21 -1 -43 -9 -56 -21 -31
-10 -55 58 -125 32 -33 59 -63 59 -65 0 -11 94 -123 102 -123 10 0 18 7 118
98 30 28 90 79 132 114 84 69 303 254 329 278 26 25 71 63 124 105 28 21 55
44 60 50 6 5 53 46 105 89 52 44 122 103 155 132 70 61 274 234 312 264 30 23
34 14 -62 120 -44 49 -68 77 -143 170 l-20 24 -84 -74 c-46 -41 -108 -95 -138
-120 -29 -25 -121 -103 -204 -174 -83 -71 -178 -152 -211 -179 -33 -27 -88
-76 -123 -108 -59 -56 -81 -66 -116 -53 -21 8 -20 28 5 132 36 154 57 245 74
322 9 41 22 100 30 130 7 30 20 87 29 125 8 39 22 99 30 135 36 157 55 240 71
315 10 44 27 112 38 152 23 84 26 77 -74 188 -35 39 -80 92 -99 118 -19 25
-39 46 -45 46 -5 0 -116 -90 -245 -201z"/>
<path d="M2364 14648 c-43 -56 -95 -120 -114 -143 -67 -76 -69 -66 16 -130 42
-31 83 -65 92 -76 9 -10 22 -19 29 -19 7 0 13 -4 13 -9 0 -4 19 -21 43 -37 23
-16 47 -34 52 -40 6 -6 53 -44 105 -84 52 -41 101 -79 108 -85 7 -5 21 -18 30
-27 9 -10 22 -18 29 -18 6 0 16 -6 20 -13 4 -8 51 -47 103 -87 52 -41 100 -79
105 -86 6 -6 42 -34 80 -63 39 -28 77 -57 85 -65 8 -7 49 -39 90 -71 41 -31
79 -63 83 -71 4 -8 12 -14 16 -14 5 0 22 -11 37 -24 68 -58 195 -156 202 -155
11 1 111 120 128 153 8 16 30 42 49 58 19 17 47 53 63 81 16 29 48 68 70 88
22 19 47 50 56 67 9 18 36 54 60 81 24 27 65 78 91 115 25 36 50 66 54 66 4 0
33 35 64 78 31 42 68 88 82 101 14 13 25 28 24 35 0 6 -57 56 -126 110 l-126
99 -21 -25 c-26 -30 -189 -234 -216 -268 -152 -196 -238 -295 -258 -298 -16
-2 -37 9 -65 35 -24 21 -69 58 -101 83 -32 25 -88 69 -125 98 -189 151 -338
269 -479 382 -87 69 -201 160 -254 203 -53 42 -101 77 -106 77 -5 0 -44 -46
-88 -102z"/>
<path d="M2000 13804 c-227 -124 -376 -277 -475 -488 -55 -117 -79 -209 -95
-361 -16 -149 23 -338 105 -504 64 -128 186 -259 283 -301 12 -5 22 -14 22
-20 0 -5 8 -10 18 -10 11 0 27 -9 37 -20 10 -11 28 -20 40 -20 13 0 28 -7 35
-15 7 -9 21 -13 35 -9 16 4 29 -1 43 -16 16 -17 26 -20 55 -15 27 5 43 2 64
-13 37 -26 70 -35 78 -22 8 14 172 13 181 -1 8 -14 53 -3 77 19 11 10 37 17
61 17 27 1 53 9 70 22 14 12 35 19 45 16 12 -3 24 3 34 17 10 14 22 20 32 17
9 -4 22 1 32 13 10 11 25 20 35 20 10 0 18 5 18 10 0 6 9 10 19 10 11 0 59 39
109 88 86 84 145 161 177 233 8 19 19 41 25 49 17 28 47 105 60 150 36 135 36
491 0 562 -11 21 -17 44 -14 52 3 8 1 17 -4 20 -9 5 -136 -32 -200 -60 -18 -8
-50 -17 -72 -20 -48 -8 -53 -20 -32 -75 13 -33 17 -77 17 -179 0 -117 -3 -143
-23 -195 -34 -88 -79 -163 -128 -215 -89 -94 -263 -170 -389 -170 -238 0 -506
196 -574 419 -23 76 -25 217 -5 281 20 62 54 142 64 150 4 3 14 19 23 35 23
44 79 101 122 124 20 11 44 29 52 40 8 12 21 21 29 21 9 0 22 7 30 15 9 8 26
15 39 15 14 0 29 9 35 20 6 11 17 20 25 20 17 0 18 4 6 28 -5 9 -26 53 -46 97
-20 44 -43 92 -51 107 -8 14 -14 35 -14 46 0 17 -19 33 -38 32 -4 -1 -36 -17
-72 -36z"/>
<path d="M16680 13740 c-73 -38 -239 -118 -290 -139 -14 -6 -32 -15 -40 -20
-8 -5 -22 -12 -30 -15 -8 -3 -22 -10 -30 -15 -8 -5 -35 -18 -60 -29 -179 -81
-525 -246 -550 -263 -8 -5 -22 -12 -30 -15 -8 -3 -42 -18 -75 -34 -33 -16 -71
-34 -85 -40 -14 -5 -32 -14 -40 -19 -8 -5 -72 -35 -142 -67 -70 -33 -128 -62
-128 -66 0 -4 9 -9 20 -13 15 -5 18 -12 14 -34 -4 -18 0 -32 10 -40 9 -8 16
-24 16 -36 0 -13 7 -25 15 -29 8 -3 15 -16 15 -29 0 -14 6 -30 14 -36 8 -7 18
-25 21 -41 3 -16 13 -34 21 -41 8 -6 14 -19 14 -29 0 -9 9 -29 20 -43 11 -14
20 -32 20 -40 0 -8 7 -20 15 -27 8 -7 15 -20 15 -29 0 -9 8 -27 17 -41 9 -13
18 -32 18 -41 1 -9 9 -24 18 -34 9 -9 17 -25 17 -36 0 -10 8 -24 18 -30 12 -8
17 -20 14 -35 -3 -16 1 -26 12 -30 9 -4 16 -18 16 -34 0 -16 7 -30 15 -34 8
-3 15 -15 15 -27 0 -13 6 -30 14 -38 8 -9 25 -43 39 -76 14 -33 40 -87 56
-119 17 -33 31 -65 31 -72 0 -6 7 -17 15 -24 8 -7 15 -21 15 -31 0 -11 9 -28
19 -38 12 -12 17 -27 14 -40 -4 -16 -1 -21 15 -21 11 0 25 7 32 15 7 8 22 15
35 15 12 0 30 9 40 20 10 11 28 20 40 20 13 0 25 7 29 15 3 8 17 15 31 15 14
0 28 7 31 15 4 8 12 15 20 15 15 0 19 16 6 24 -4 3 -20 29 -34 58 -79 163
-156 323 -190 398 -22 47 -71 149 -109 227 -38 78 -71 153 -75 167 -9 36 11
66 45 66 16 0 34 7 41 15 7 8 21 15 31 15 9 0 24 7 33 15 8 8 21 15 28 15 7 0
27 9 43 20 17 11 37 20 46 20 9 0 24 9 34 20 13 14 25 18 44 14 32 -8 81 -52
81 -74 0 -8 8 -27 17 -40 10 -14 19 -34 21 -45 1 -11 9 -23 17 -28 8 -4 15
-18 15 -31 0 -13 7 -29 15 -36 8 -7 15 -18 15 -24 0 -17 89 -194 100 -201 6
-4 10 -17 10 -29 0 -13 7 -29 15 -36 8 -7 15 -21 15 -31 0 -9 7 -25 16 -33 9
-9 17 -28 19 -42 1 -15 7 -29 12 -33 6 -3 14 -20 17 -37 6 -26 13 -33 37 -36
17 -3 34 1 40 9 6 7 22 13 36 13 13 0 26 7 29 15 4 9 19 15 35 15 17 0 32 6
35 15 4 8 16 15 28 15 12 0 31 6 42 14 21 15 20 16 -37 133 -31 65 -94 195
-139 288 -45 94 -101 209 -124 257 -30 59 -42 95 -39 113 6 31 47 65 78 65 12
0 28 7 35 15 7 8 20 15 30 15 9 0 27 9 40 20 13 11 31 20 40 20 10 0 23 6 29
14 6 8 25 17 41 20 17 3 42 9 58 12 25 5 29 1 55 -49 15 -30 27 -59 27 -65 0
-7 4 -12 9 -12 5 0 12 -13 16 -29 3 -16 13 -32 21 -35 8 -3 14 -18 14 -35 0
-16 6 -31 15 -35 8 -3 15 -16 15 -29 0 -14 7 -30 15 -37 8 -7 15 -21 15 -31 0
-9 8 -25 18 -35 9 -10 18 -29 19 -43 1 -13 9 -29 18 -33 8 -5 15 -19 15 -32 0
-13 7 -29 15 -36 8 -7 15 -19 15 -27 0 -8 9 -31 20 -51 10 -20 22 -44 25 -52
3 -8 18 -37 34 -65 16 -27 30 -58 30 -67 1 -9 16 -24 33 -33 29 -14 34 -14 44
0 6 8 23 15 38 15 15 0 29 7 32 15 4 8 16 15 29 15 12 0 30 9 40 20 10 11 28
20 39 20 12 0 27 4 34 9 14 8 16 3 -158 366 -78 162 -160 334 -212 445 -22 47
-71 150 -110 230 -39 80 -77 160 -84 178 -18 41 -31 40 -124 -8z"/>
<path d="M16002 6661 c-18 -36 -32 -72 -32 -79 0 -7 -7 -15 -15 -18 -8 -4 -15
-17 -15 -29 0 -13 -7 -31 -16 -39 -8 -9 -14 -24 -12 -33 2 -9 -7 -27 -19 -40
-13 -12 -23 -29 -23 -38 0 -9 -7 -23 -16 -32 -8 -9 -13 -22 -10 -29 3 -7 1
-16 -4 -19 -6 -4 -28 -45 -51 -93 -23 -48 -59 -124 -80 -168 -21 -45 -39 -86
-39 -91 0 -6 -7 -16 -15 -23 -8 -7 -15 -22 -15 -34 0 -12 -9 -29 -20 -39 -11
-9 -20 -24 -20 -32 0 -9 -7 -27 -16 -40 -9 -13 -13 -28 -10 -33 3 -5 -3 -17
-14 -27 -11 -10 -20 -28 -20 -40 0 -13 -7 -28 -15 -35 -8 -7 -15 -21 -15 -31
0 -10 -4 -20 -9 -23 -9 -6 -51 -87 -51 -99 0 -3 16 -9 35 -13 19 -3 39 -12 46
-20 6 -8 20 -14 31 -14 11 0 26 -7 34 -15 9 -8 24 -15 33 -15 10 0 24 -7 31
-15 7 -8 18 -15 24 -15 6 0 43 -16 81 -35 39 -19 75 -35 80 -35 6 0 21 -9 35
-20 14 -11 32 -20 41 -20 9 0 22 -7 29 -15 7 -8 22 -15 35 -15 12 0 30 -9 40
-20 10 -11 23 -19 29 -17 6 2 22 -4 35 -14 13 -11 32 -19 41 -19 10 0 23 -7
30 -15 7 -8 23 -15 35 -15 12 0 28 -7 35 -15 7 -8 20 -15 30 -15 10 0 23 -7
30 -15 7 -8 17 -15 23 -15 10 0 88 -34 117 -51 8 -5 22 -12 30 -15 50 -21 121
-58 126 -65 3 -5 13 -9 23 -9 10 0 30 -9 45 -21 14 -11 30 -18 35 -15 4 3 16
-3 26 -14 10 -11 28 -20 40 -20 13 0 28 -7 35 -15 7 -8 23 -15 35 -15 12 0 28
-7 35 -15 7 -8 20 -15 30 -15 10 0 23 -7 30 -15 7 -8 18 -15 24 -15 6 0 27 -8
46 -18 43 -21 70 -22 81 -2 5 8 29 60 55 115 79 169 134 285 194 410 32 66 76
158 98 205 95 202 166 350 203 424 42 85 44 90 29 81 -6 -4 -24 5 -41 19 -17
15 -35 23 -41 20 -5 -3 -18 3 -29 15 -11 12 -28 21 -37 21 -10 0 -23 5 -30 12
-15 15 -83 38 -94 32 -4 -3 -8 -13 -8 -23 0 -10 -7 -24 -15 -31 -8 -7 -15 -23
-15 -35 0 -12 -7 -28 -15 -35 -8 -7 -15 -22 -15 -34 0 -12 -9 -29 -20 -39 -11
-9 -20 -25 -20 -36 0 -10 -7 -24 -15 -31 -8 -7 -15 -23 -15 -37 0 -13 -7 -26
-15 -29 -8 -4 -15 -18 -15 -34 0 -15 -6 -30 -14 -33 -8 -3 -17 -19 -21 -36 -3
-16 -13 -35 -21 -42 -8 -6 -14 -22 -14 -35 0 -12 -4 -25 -9 -28 -5 -4 -18 -25
-29 -49 -11 -23 -38 -81 -61 -129 -23 -47 -41 -90 -41 -95 0 -14 -69 -83 -82
-83 -5 0 -19 11 -30 25 -14 18 -26 24 -40 19 -14 -4 -24 1 -34 15 -9 12 -22
21 -30 21 -9 0 -27 9 -41 20 -14 11 -34 20 -43 20 -10 0 -23 7 -30 15 -7 8
-24 15 -39 15 -15 0 -32 5 -39 12 -27 27 -11 78 91 289 57 118 121 252 143
299 21 47 56 118 76 157 20 40 32 75 27 78 -5 4 -9 1 -9 -5 0 -7 -5 -10 -11
-8 -6 2 -9 6 -7 9 6 11 -24 39 -42 39 -10 0 -23 7 -30 15 -7 8 -23 15 -35 15
-12 0 -28 7 -36 16 -9 11 -22 14 -41 10 -23 -4 -28 -2 -28 14 0 10 -5 22 -12
26 -15 10 -38 -24 -38 -58 0 -15 -4 -28 -10 -28 -5 0 -13 -12 -16 -27 -4 -16
-15 -39 -26 -52 -10 -13 -18 -29 -18 -35 0 -6 -23 -56 -50 -111 -27 -55 -50
-105 -50 -111 0 -6 -7 -17 -15 -24 -8 -7 -15 -23 -15 -36 0 -12 -4 -26 -10
-29 -12 -7 -60 -103 -60 -120 0 -7 -7 -18 -15 -25 -9 -7 -14 -20 -13 -29 2
-15 -15 -44 -52 -88 -7 -9 -17 -10 -37 -2 -14 5 -32 8 -39 5 -7 -3 -20 4 -30
15 -10 11 -26 18 -36 16 -11 -3 -24 3 -31 14 -8 10 -22 20 -33 22 -11 1 -30
10 -44 20 -13 9 -31 17 -40 17 -19 0 -90 65 -90 82 0 7 7 26 15 41 8 16 48 99
89 185 41 86 100 211 131 277 172 359 163 338 145 357 -9 10 -25 19 -36 21
-10 1 -30 10 -44 20 -13 9 -31 17 -39 17 -8 0 -23 8 -33 17 -11 10 -35 17 -56
17 -20 0 -39 3 -42 7 -3 4 -20 -23 -38 -60z"/>
<path d="M1970 6514 c-28 -9 -63 -12 -90 -9 -38 5 -49 3 -65 -15 -14 -15 -26
-19 -46 -15 -17 4 -32 1 -42 -9 -9 -9 -24 -16 -35 -16 -11 0 -25 -7 -32 -15
-7 -8 -18 -15 -25 -15 -7 0 -24 -9 -38 -20 -14 -11 -30 -20 -35 -20 -25 0
-165 -117 -216 -181 -94 -116 -139 -209 -177 -362 -25 -102 -26 -318 -3 -415
60 -245 167 -410 371 -571 29 -22 55 -41 59 -41 3 0 26 -13 51 -30 24 -16 50
-30 57 -30 8 0 19 -7 26 -15 7 -8 22 -15 33 -15 11 0 31 -10 44 -21 22 -21 23
-21 29 -3 3 10 14 37 25 60 10 23 19 47 19 55 0 8 7 23 15 33 8 11 15 28 15
37 0 10 8 30 17 47 20 34 13 59 -20 71 -14 5 -27 17 -31 26 -4 12 -13 15 -27
12 -15 -4 -23 0 -26 14 -3 10 -22 27 -42 36 -32 15 -71 53 -148 141 -12 14
-33 48 -47 76 -15 28 -30 58 -35 66 -19 32 -43 168 -39 215 9 102 36 179 96
275 44 70 97 126 145 152 20 12 37 25 37 30 0 4 6 8 14 8 7 0 25 9 39 20 14
11 34 20 45 20 10 0 27 9 37 20 14 16 26 19 55 14 27 -5 47 -1 69 12 28 17 36
17 88 5 32 -8 76 -14 98 -15 26 -1 51 -9 69 -23 16 -13 37 -23 46 -23 10 0 23
-7 30 -15 7 -8 16 -15 20 -15 19 0 134 -118 168 -174 63 -100 82 -171 81 -305
0 -92 -5 -129 -22 -181 l-22 -64 44 -23 c25 -14 51 -21 63 -18 11 4 36 -3 60
-15 27 -14 52 -20 69 -16 19 4 38 -2 64 -19 24 -17 37 -21 39 -12 2 6 10 32
17 57 10 32 14 106 14 260 0 183 -3 220 -18 249 -9 19 -17 46 -17 61 0 14 -7
35 -15 46 -8 10 -15 26 -15 35 0 9 -11 36 -25 60 -14 24 -30 56 -36 72 -6 15
-15 27 -20 27 -5 0 -18 19 -30 43 -26 50 -186 217 -209 217 -8 0 -30 14 -48
30 -18 17 -42 30 -52 30 -11 0 -24 9 -30 20 -11 21 -40 28 -40 10 0 -19 -28
-10 -33 10 -4 15 -14 20 -41 20 -23 0 -43 7 -57 21 -16 16 -28 19 -63 14 -27
-4 -62 -1 -96 9 -65 19 -101 19 -160 0z"/>
<path d="M15209 5113 c-25 -27 -61 -70 -80 -97 -19 -28 -47 -62 -64 -77 -24
-22 -27 -29 -17 -42 7 -8 11 -19 10 -24 -3 -9 66 -79 132 -132 25 -19 79 -65
120 -101 41 -36 100 -85 130 -109 30 -23 80 -66 110 -95 30 -29 80 -72 110
-95 30 -24 77 -63 103 -87 27 -24 54 -44 62 -44 19 0 41 -59 28 -78 -14 -23
-45 -30 -135 -31 -76 -1 -119 6 -224 35 -59 16 -110 18 -119 4 -8 -13 -270
-13 -294 0 -19 10 -107 28 -180 37 -26 3 -53 0 -67 -7 -28 -15 -265 -6 -327
12 -30 9 -40 9 -47 -1 -4 -8 -16 -11 -29 -6 -17 5 -24 0 -38 -29 -9 -20 -20
-36 -25 -36 -4 0 -8 -7 -8 -15 0 -9 -8 -19 -17 -22 -18 -7 -143 -134 -143
-145 0 -4 24 -26 53 -49 28 -23 88 -74 132 -114 44 -40 94 -84 110 -96 28 -21
163 -137 175 -149 3 -3 28 -23 55 -45 28 -21 70 -58 95 -81 25 -23 75 -66 111
-96 59 -47 149 -123 339 -287 30 -26 96 -81 145 -123 50 -41 96 -82 104 -91
23 -28 46 -19 90 35 23 29 62 73 85 98 23 25 56 64 74 86 l32 42 -72 58 c-40
33 -97 82 -128 110 -30 28 -77 68 -105 90 -27 21 -55 44 -61 49 -6 6 -29 26
-50 45 -21 19 -80 69 -130 110 -50 41 -120 101 -156 133 -36 31 -69 57 -74 57
-18 0 -64 62 -64 85 0 44 22 50 118 31 87 -17 126 -18 149 -3 12 8 232 -8 333
-25 36 -6 148 -12 250 -14 102 -2 208 -9 235 -15 28 -6 116 -12 197 -14 l148
-2 57 66 c32 36 81 92 110 124 58 64 63 79 33 100 -11 7 -41 33 -67 58 -27 24
-71 62 -98 84 -28 22 -81 67 -120 100 -38 33 -90 77 -115 97 -25 20 -59 49
-75 65 -28 25 -78 68 -340 288 -106 89 -237 201 -329 280 -89 77 -175 145
-185 145 -4 0 -27 -21 -52 -47z"/>
<path d="M3284 5084 c-21 -20 -74 -64 -118 -98 -43 -33 -111 -86 -150 -116
-39 -31 -84 -67 -101 -82 -31 -28 -64 -54 -302 -241 -76 -60 -154 -121 -173
-137 -19 -16 -87 -70 -150 -120 -63 -49 -144 -115 -180 -146 -36 -30 -86 -69
-110 -85 -24 -16 -46 -31 -48 -33 -2 -2 9 -16 23 -32 14 -15 34 -39 45 -53 43
-57 105 -136 121 -156 10 -11 56 -69 104 -130 48 -60 103 -130 123 -155 20
-24 49 -60 64 -80 15 -19 54 -67 85 -107 32 -39 83 -103 113 -142 30 -38 58
-70 63 -70 10 -1 147 99 147 107 0 4 25 23 55 42 55 35 66 52 42 67 -8 4 -26
28 -40 53 -14 25 -42 61 -62 80 -20 19 -57 65 -82 103 -24 37 -48 67 -52 67
-4 0 -36 38 -72 85 -35 47 -66 85 -70 85 -3 0 -11 11 -17 24 -6 13 -20 27 -31
31 -15 4 -21 15 -21 36 0 45 15 65 83 115 34 25 80 62 102 83 22 20 63 52 90
70 28 19 57 42 65 51 8 9 49 42 90 73 41 31 86 66 100 79 14 13 41 33 61 46
19 12 44 31 55 43 10 12 46 42 78 66 33 24 82 64 110 88 67 57 168 136 233
181 l53 37 -38 42 c-20 24 -51 62 -69 86 -18 24 -45 58 -61 74 -15 17 -38 47
-51 68 -29 48 -55 48 -107 1z"/>
<path d="M4253 3993 c-4 -10 -20 -31 -35 -48 -16 -16 -44 -49 -61 -73 -18 -24
-65 -82 -104 -130 -40 -48 -73 -93 -73 -99 0 -7 -4 -13 -8 -13 -5 0 -35 -34
-68 -76 -32 -41 -75 -94 -95 -117 -19 -23 -65 -80 -102 -127 -55 -70 -117
-148 -240 -300 -6 -9 -39 -49 -72 -90 -33 -41 -100 -124 -149 -184 l-89 -109
29 -21 c16 -12 129 -102 252 -201 123 -99 249 -200 280 -224 31 -24 111 -87
176 -140 303 -245 362 -291 371 -291 6 0 27 24 47 53 21 28 58 75 83 102 25
28 43 56 40 63 -3 8 -5 20 -5 28 0 8 -7 14 -15 14 -9 0 -18 7 -21 15 -4 8 -12
15 -20 15 -8 0 -14 4 -14 10 0 5 -12 21 -27 35 -30 28 -83 60 -83 49 0 -4 -26
20 -57 53 -51 53 -80 74 -105 77 -5 1 -25 19 -45 41 -48 52 -108 97 -116 88
-4 -3 -7 -1 -7 5 0 7 -7 12 -15 12 -8 0 -15 7 -15 15 0 8 -7 15 -15 15 -8 0
-15 4 -15 10 0 13 -38 48 -85 77 -79 49 -95 100 -50 149 14 15 25 30 25 33 0
3 15 22 33 42 66 74 85 97 98 120 19 38 57 69 75 62 14 -5 399 -309 597 -471
32 -26 63 -49 68 -51 14 -4 56 36 86 83 14 22 46 61 71 88 24 26 39 48 33 48
-6 0 -15 8 -18 18 -9 22 -58 72 -72 72 -6 0 -11 4 -11 9 0 5 -12 14 -28 20
-15 6 -56 38 -91 71 -34 33 -67 60 -73 60 -5 0 -24 13 -41 30 -85 79 -111 100
-123 100 -7 0 -38 25 -67 55 -29 30 -59 55 -65 55 -7 0 -12 4 -12 9 0 5 -14
14 -31 20 -28 10 -31 14 -25 42 5 24 77 125 107 149 4 3 15 19 25 36 32 51
108 134 124 134 8 0 74 -48 145 -106 72 -58 156 -127 189 -153 32 -25 68 -54
80 -65 63 -55 329 -261 339 -263 7 -1 48 44 92 100 81 103 99 145 63 155 -10
2 -18 8 -18 13 0 5 -6 9 -12 9 -7 0 -29 19 -48 41 -19 23 -55 53 -80 67 -25
14 -67 49 -95 77 -27 27 -69 59 -92 70 -24 11 -43 23 -43 26 0 16 -74 80 -110
96 -8 4 -46 35 -84 70 -38 35 -75 63 -83 63 -8 0 -38 25 -67 55 -28 30 -57 55
-64 55 -6 0 -12 4 -12 8 0 5 -18 17 -40 27 -22 10 -40 21 -40 25 0 9 -58 70
-66 70 -3 0 -23 14 -44 30 -43 34 -58 37 -67 13z"/>
<path d="M13805 3644 c-16 -19 -44 -42 -60 -50 -35 -16 -81 -57 -110 -97 -11
-15 -25 -25 -32 -23 -7 3 -19 -1 -27 -9 -8 -8 -19 -15 -25 -15 -36 0 -13 -33
306 -439 29 -36 66 -84 83 -106 17 -22 38 -49 47 -60 10 -11 33 -41 53 -66 44
-57 218 -280 285 -364 28 -35 88 -111 135 -170 47 -59 100 -129 119 -156 19
-27 41 -49 50 -49 9 0 54 30 101 68 47 37 111 86 143 110 69 52 77 67 48 95
-12 12 -34 39 -49 59 -27 38 -195 251 -264 337 -21 25 -50 63 -65 85 -16 21
-44 57 -64 80 -19 22 -63 77 -96 121 -33 44 -75 96 -92 115 -17 19 -31 38 -31
43 0 4 -17 26 -38 50 -21 23 -53 63 -71 90 -18 26 -40 55 -50 65 -9 9 -39 46
-67 82 -27 36 -66 85 -87 110 -22 25 -50 64 -64 88 -14 23 -30 42 -36 41 -7 0
-25 -16 -42 -35z"/>
<path d="M13165 3119 c-5 -16 -12 -19 -32 -14 -19 4 -26 1 -30 -15 -4 -14 -14
-20 -34 -20 -18 0 -32 -7 -39 -20 -8 -14 -17 -19 -30 -15 -12 4 -23 -1 -33
-15 -9 -13 -23 -19 -38 -18 -18 2 -25 -2 -27 -20 -2 -13 -10 -26 -17 -28 -11
-5 -11 -11 -3 -30 6 -13 15 -24 20 -24 4 0 8 -11 8 -24 0 -14 4 -27 9 -31 5
-3 23 -33 41 -68 17 -34 35 -69 39 -77 5 -8 21 -40 35 -70 27 -56 34 -70 54
-105 7 -11 15 -27 18 -35 3 -8 19 -42 35 -75 38 -78 38 -115 -1 -157 -23 -25
-32 -30 -38 -20 -7 11 -12 10 -26 -3 -9 -9 -16 -21 -16 -26 0 -5 -12 -6 -26
-3 -20 5 -26 2 -31 -16 -4 -17 -11 -21 -30 -17 -17 3 -28 -2 -36 -14 -7 -11
-23 -19 -39 -19 -18 0 -29 -7 -33 -21 -5 -16 -12 -19 -32 -14 -20 5 -26 1 -30
-15 -4 -17 -12 -21 -30 -17 -18 3 -28 -2 -40 -19 -11 -18 -21 -22 -38 -18 -18
4 -25 1 -30 -15 -5 -17 -12 -20 -31 -15 -20 5 -26 2 -31 -15 -4 -15 -12 -21
-27 -19 -11 1 -33 -6 -47 -15 -42 -28 -119 0 -119 43 0 10 -7 23 -15 30 -8 7
-15 18 -15 25 0 10 -55 125 -89 185 -22 39 -81 168 -81 177 0 6 -7 13 -15 17
-8 3 -15 14 -15 24 0 11 -6 25 -14 31 -8 7 -18 26 -21 42 -4 16 -10 29 -13 30
-4 0 -26 2 -49 5 -35 3 -44 0 -53 -17 -8 -13 -17 -18 -30 -14 -12 4 -23 -1
-33 -15 -8 -12 -21 -21 -28 -20 -28 4 -39 0 -39 -15 0 -10 -10 -15 -28 -15
-17 0 -32 -8 -40 -21 -9 -13 -20 -19 -32 -16 -56 15 -44 -13 354 -807 217
-433 396 -789 398 -792 3 -2 81 34 173 81 93 46 173 86 179 88 8 3 7 10 -1 23
-7 11 -32 60 -58 109 -25 50 -49 97 -54 105 -5 8 -34 68 -66 133 -32 64 -61
120 -66 122 -4 3 -10 18 -14 34 -3 16 -13 35 -21 42 -20 16 -18 73 4 91 32 29
658 338 684 338 34 0 45 -15 117 -160 34 -69 65 -132 70 -140 5 -8 21 -40 35
-70 15 -30 31 -62 36 -70 5 -8 26 -52 47 -97 21 -46 40 -82 43 -80 3 1 82 40
177 87 119 59 172 90 172 102 1 9 -3 19 -8 23 -5 3 -69 123 -141 268 -123 246
-140 279 -162 317 -4 8 -13 26 -19 40 -15 38 -52 110 -79 158 -6 9 -15 28 -21
42 -10 26 -44 94 -58 120 -5 8 -27 53 -50 100 -23 47 -45 92 -50 100 -5 8 -21
40 -36 70 -25 52 -36 73 -57 110 -4 8 -11 22 -14 30 -3 8 -10 22 -15 30 -5 8
-14 26 -20 40 -6 14 -16 32 -24 40 -7 8 -15 26 -17 40 -2 17 -10 25 -24 26
-12 1 -26 4 -32 8 -6 3 -14 -3 -17 -15z"/>
<path d="M6115 2662 c-28 -26 -104 -96 -170 -157 -141 -129 -257 -237 -340
-315 -33 -31 -87 -80 -120 -110 -33 -29 -114 -103 -180 -165 -66 -61 -151
-140 -190 -175 -78 -71 -142 -131 -258 -241 -43 -41 -85 -78 -93 -82 -17 -10
-9 -27 12 -27 15 0 27 -5 232 -98 62 -29 119 -52 126 -52 7 0 62 51 123 113
65 68 121 117 137 121 25 6 87 -16 231 -84 22 -11 143 -65 270 -120 126 -56
240 -108 253 -116 24 -16 24 -16 20 -192 l-3 -177 75 -38 c41 -21 120 -58 175
-81 l100 -43 8 26 c7 25 24 436 48 1148 9 270 9 367 0 415 -7 36 -10 112 -8
178 4 109 3 116 -21 152 -20 30 -29 37 -47 32 -17 -4 -26 0 -35 16 -9 16 -18
20 -36 16 -17 -5 -27 -1 -36 13 -9 14 -19 18 -38 14 -21 -4 -30 1 -44 22 -14
21 -20 24 -31 15 -11 -9 -19 -6 -36 14 -34 39 -66 33 -124 -22z m93 -419 c21
-18 21 -22 12 -213 -6 -107 -13 -262 -16 -345 -7 -168 -13 -190 -49 -207 -21
-10 -29 -8 -48 9 -12 11 -28 18 -35 16 -8 -3 -26 7 -42 22 -22 21 -32 25 -46
17 -14 -8 -20 -6 -29 11 -8 15 -19 21 -35 19 -13 -1 -31 6 -42 17 -10 12 -25
18 -34 14 -9 -3 -21 3 -30 16 -9 12 -26 21 -40 21 -13 0 -32 9 -41 20 -10 11
-29 20 -44 20 -32 0 -53 22 -45 48 4 11 97 109 207 218 111 110 226 225 257
257 30 31 61 57 68 57 6 0 21 -8 32 -17z"/>
<path d="M10880 2224 c-38 -22 -53 -25 -97 -20 -43 5 -54 3 -65 -12 -20 -29
-36 -34 -58 -20 -18 12 -23 10 -43 -16 -17 -21 -28 -27 -44 -22 -13 4 -25 1
-33 -9 -7 -8 -20 -15 -30 -15 -10 0 -23 -7 -30 -15 -7 -8 -18 -15 -25 -15 -21
0 -149 -125 -170 -166 -11 -22 -23 -42 -28 -45 -14 -10 -39 -114 -46 -188 -5
-58 -2 -83 11 -120 10 -25 18 -55 18 -65 0 -53 94 -182 164 -226 44 -26 143
-59 181 -60 17 0 62 -7 100 -16 39 -9 147 -19 240 -24 94 -4 181 -12 195 -18
14 -6 42 -13 62 -17 27 -4 54 -21 98 -63 l60 -58 0 -60 c0 -66 -19 -102 -76
-146 -16 -12 -32 -26 -35 -30 -3 -5 -12 -6 -20 -3 -8 3 -28 -6 -45 -20 -31
-27 -63 -32 -82 -13 -8 8 -22 7 -57 -6 -49 -19 -88 -18 -164 6 -35 10 -45 10
-48 1 -8 -23 -80 -15 -122 13 -33 21 -43 24 -60 14 -23 -12 -39 -6 -60 23 -10
15 -21 17 -47 13 -27 -6 -35 -3 -44 14 -8 14 -17 19 -30 15 -10 -3 -21 -1 -25
5 -9 15 -28 1 -21 -16 3 -7 -2 -33 -11 -56 -8 -24 -19 -61 -24 -83 -4 -22 -15
-65 -23 -95 -9 -30 -12 -58 -8 -62 22 -22 183 -73 292 -94 182 -34 246 -38
347 -26 145 18 223 31 263 44 136 44 191 69 277 124 57 38 150 128 164 159 5
11 13 27 19 35 35 56 42 92 42 225 1 108 -3 140 -16 159 -9 14 -16 36 -16 49
0 14 -7 30 -15 37 -8 7 -15 18 -15 25 0 7 -32 43 -71 79 -56 52 -76 65 -94 60
-17 -4 -24 0 -28 16 -5 19 -11 21 -32 16 -20 -5 -34 0 -57 19 -21 18 -36 24
-47 18 -28 -14 -131 -5 -187 17 -58 21 -143 27 -160 10 -18 -18 -121 0 -162
28 -29 19 -40 22 -54 13 -24 -15 -23 -15 -57 17 -16 15 -41 35 -55 45 -28 19
-66 93 -66 127 0 55 68 121 159 154 66 24 85 26 224 26 84 -1 172 -5 197 -11
25 -5 68 -14 95 -19 28 -5 67 -15 88 -21 23 -8 41 -9 47 -3 5 5 14 40 19 78 6
38 15 74 20 79 6 6 11 32 11 58 0 32 6 55 21 73 12 15 18 30 15 33 -3 4 -12
-2 -19 -11 -12 -17 -14 -17 -30 -2 -9 10 -21 24 -26 33 -8 14 -15 15 -44 6
-31 -9 -42 -7 -96 21 -52 26 -64 29 -81 18 -24 -15 -226 -17 -235 -2 -11 17
-48 11 -95 -16z"/>
<path d="M7494 2199 c-3 -6 -14 -9 -24 -6 -14 4 -17 -4 -19 -46 -1 -27 -4 -53
-7 -58 -3 -5 -12 -61 -20 -126 -8 -65 -21 -163 -30 -218 -8 -55 -19 -131 -24
-170 -5 -38 -14 -101 -20 -140 -6 -38 -17 -119 -26 -180 -8 -60 -22 -155 -30
-210 -9 -55 -20 -136 -25 -180 -5 -44 -14 -105 -19 -135 -19 -102 -39 -273
-34 -282 4 -6 18 -8 33 -5 14 3 44 1 66 -3 173 -39 251 -48 240 -30 -3 5 0 20
7 32 22 40 47 151 48 213 0 33 7 85 15 115 8 30 15 76 15 102 0 26 7 77 16
115 9 37 16 99 15 137 -1 38 3 74 8 80 15 19 29 108 30 185 0 82 12 104 55
104 32 0 62 -26 70 -59 4 -13 20 -47 38 -76 17 -29 61 -109 98 -178 101 -188
128 -238 175 -320 23 -41 62 -113 85 -160 24 -47 47 -87 52 -90 4 -3 18 -26
31 -50 13 -25 50 -94 81 -155 32 -60 63 -114 68 -120 19 -21 347 -70 363 -54
6 6 11 49 12 97 1 53 9 113 21 153 13 42 18 82 15 110 -3 29 2 69 17 117 15
48 21 87 17 113 -3 25 2 67 15 111 13 47 19 89 15 121 -3 34 2 65 15 100 11
28 19 71 18 96 0 25 -1 57 -1 71 -1 14 9 52 21 85 15 43 20 75 17 110 -3 32 2
71 14 110 11 36 19 90 19 135 0 41 7 93 15 115 20 56 19 85 -2 85 -10 0 -41
12 -70 27 -48 24 -56 25 -90 14 -28 -9 -50 -10 -82 -2 -25 5 -48 8 -52 5 -4
-2 -9 3 -13 11 -8 21 -33 19 -40 -2 -3 -10 -5 -38 -5 -63 0 -25 -5 -70 -11
-100 -6 -30 -15 -95 -20 -143 -5 -48 -12 -92 -15 -97 -3 -4 -10 -55 -16 -112
-5 -56 -17 -128 -25 -159 -7 -31 -14 -79 -14 -105 0 -27 -7 -80 -15 -119 -8
-38 -15 -88 -15 -111 0 -66 -49 -96 -88 -54 -10 11 -40 62 -66 113 -26 50 -58
110 -71 132 -13 22 -31 54 -39 70 -9 17 -20 38 -26 48 -18 31 -29 51 -55 104
-14 28 -30 55 -35 58 -6 3 -10 14 -10 24 0 10 -9 26 -20 36 -11 10 -20 26 -20
35 0 10 -7 23 -15 30 -8 7 -15 19 -15 26 0 8 -9 22 -20 31 -11 10 -20 23 -20
31 0 7 -20 48 -45 92 -25 44 -45 83 -45 88 0 5 -9 17 -20 27 -11 10 -20 26
-20 35 0 10 -7 23 -15 30 -8 7 -15 20 -15 30 0 10 -7 23 -15 30 -8 7 -26 37
-40 67 -19 40 -31 53 -42 49 -9 -4 -17 1 -20 14 -7 25 -44 35 -73 20 -28 -15
-102 -5 -153 21 -43 22 -63 24 -73 8z"/>
</g>
</svg>
