<svg version="1.1" id="Layer_1" xmlns="http://www.w3.org/2000/svg" xmlns:xlink="http://www.w3.org/1999/xlink" x="0px" y="0px"
	 width="100%" viewBox="0 0 256 256" enable-background="new 0 0 256 256" xml:space="preserve">
<path fill="#FFFFFF" opacity="1.000000" stroke="none" 
	d="
M257.000000,50.000000 
	C257.000000,88.020897 257.000000,126.041786 256.673950,164.236893 
	C255.894547,165.214478 255.289993,165.968597 255.009888,166.828400 
	C247.629990,189.482086 227.067459,204.223083 203.231491,204.061813 
	C167.919724,203.822891 132.605072,204.025803 97.291817,203.956833 
	C94.050835,203.950485 90.794075,203.455948 87.573372,202.989609 
	C61.626274,199.232651 43.254181,176.470291 43.035789,150.301804 
	C42.859261,129.148575 42.897709,107.991966 43.045086,86.838272 
	C43.114124,76.929726 43.023933,66.952995 44.119888,57.131474 
	C47.182560,29.685095 69.974457,11.531341 96.185432,11.136467 
	C132.323486,10.592041 168.476059,10.951201 204.621918,11.071181 
	C208.478226,11.083982 212.420944,11.729987 216.170792,12.683314 
	C235.550949,17.610371 248.335129,29.795038 255.056976,48.537647 
	C255.285675,49.175358 256.333832,49.519184 257.000000,50.000000 
M163.229797,127.998436 
	C162.729599,127.999985 162.215729,127.926117 161.731171,128.013962 
	C142.710098,131.462173 125.898888,127.242752 111.970894,113.445007 
	C97.412308,99.022575 82.972603,84.480156 68.472031,69.999107 
	C67.507248,69.035622 66.467041,68.147659 65.000099,66.800438 
	C65.000099,94.057121 64.939766,120.524071 65.069298,146.990097 
	C65.087402,150.688614 65.547913,154.535233 66.642815,158.052032 
	C71.179367,172.623230 82.131424,182.026382 99.181953,182.009735 
	C133.004272,181.976730 166.826675,182.027161 200.648865,181.956238 
	C203.882141,181.949463 207.201889,181.693054 210.331787,180.934677 
	C225.146042,177.345139 234.969360,165.295303 234.989990,150.293472 
	C235.025955,124.135361 235.004105,97.977165 234.986664,71.819008 
	C234.985886,70.635109 234.790375,69.451340 234.646225,67.823265 
	C221.348038,81.131828 208.324051,93.794357 195.742538,106.882256 
	C186.685638,116.303665 176.841629,124.236290 163.229797,127.998436 
M149.558411,107.000000 
	C158.882034,107.382820 166.654907,103.693367 173.093796,97.338066 
	C190.045319,80.606606 206.817139,63.693008 223.650452,46.841881 
	C224.552673,45.938705 225.362305,44.943035 226.417999,43.763714 
	C224.451172,42.026997 222.831863,40.389503 221.008545,39.024494 
	C214.467056,34.127266 206.680389,33.072845 198.955978,33.097313 
	C163.727600,33.208893 128.499527,33.604877 93.273232,34.048031 
	C85.497299,34.145855 79.565712,38.403625 73.990623,43.428394 
	C92.713715,62.168011 110.989944,80.638420 129.499649,98.871803 
	C134.674133,103.969048 141.227066,106.726173 149.558411,107.000000 
z"/>
<path fill="#000000" opacity="1.000000" stroke="none" 
	d="
M257.000000,49.531342 
	C256.333832,49.519184 255.285675,49.175358 255.056976,48.537647 
	C248.335129,29.795038 235.550949,17.610371 216.170792,12.683314 
	C212.420944,11.729987 208.478226,11.083982 204.621918,11.071181 
	C168.476059,10.951201 132.323486,10.592041 96.185432,11.136467 
	C69.974457,11.531341 47.182560,29.685095 44.119888,57.131474 
	C43.023933,66.952995 43.114124,76.929726 43.045086,86.838272 
	C42.897709,107.991966 42.859261,129.148575 43.035789,150.301804 
	C43.254181,176.470291 61.626274,199.232651 87.573372,202.989609 
	C90.794075,203.455948 94.050835,203.950485 97.291817,203.956833 
	C132.605072,204.025803 167.919724,203.822891 203.231491,204.061813 
	C227.067459,204.223083 247.629990,189.482086 255.009888,166.828400 
	C255.289993,165.968597 255.894547,165.214478 256.673950,164.705551 
	C257.000000,195.632843 257.000000,226.265686 257.000000,256.942169 
	C171.666656,256.942169 86.333328,256.942169 1.000000,256.942169 
	C1.000000,240.901993 1.000000,224.919662 1.325976,208.174210 
	C2.105332,208.214294 2.692809,208.970596 2.992493,209.827530 
	C10.729400,231.950378 30.879784,246.959824 54.754791,246.987076 
	C95.730995,247.033844 136.707291,247.000015 177.683548,247.000000 
	C182.847229,247.000000 188.013840,247.109970 193.173828,246.971832 
	C199.506317,246.802277 204.076508,241.904129 203.999985,235.616028 
	C203.913956,228.546997 200.240601,225.004364 192.985657,225.000656 
	C186.822556,224.997513 180.659149,225.041229 174.496414,224.993317 
	C133.272781,224.672852 92.046593,224.513672 50.827179,223.902145 
	C36.426910,223.688492 23.374882,209.004684 23.059206,195.011047 
	C22.777531,182.524643 23.000002,170.026871 23.000000,157.534103 
	C22.999998,130.716309 23.011917,103.898506 22.992306,77.080727 
	C22.986841,69.609436 18.741001,64.546799 12.108641,65.176224 
	C8.318931,65.535866 4.697307,67.666672 1.000000,69.000000 
	C1.000000,46.359940 1.000000,23.719881 1.000000,1.059542 
	C86.333344,1.059542 171.666687,1.059542 257.000000,1.059542 
	C257.000000,17.100285 257.000000,33.081482 257.000000,49.531342 
z"/>
<path fill="#FFFFFF" opacity="1.000000" stroke="none" 
	d="
M1.000000,69.468658 
	C4.697307,67.666672 8.318931,65.535866 12.108641,65.176224 
	C18.741001,64.546799 22.986841,69.609436 22.992306,77.080727 
	C23.011917,103.898506 22.999998,130.716309 23.000000,157.534103 
	C23.000002,170.026871 22.777531,182.524643 23.059206,195.011047 
	C23.374882,209.004684 36.426910,223.688492 50.827179,223.902145 
	C92.046593,224.513672 133.272781,224.672852 174.496414,224.993317 
	C180.659149,225.041229 186.822556,224.997513 192.985657,225.000656 
	C200.240601,225.004364 203.913956,228.546997 203.999985,235.616028 
	C204.076508,241.904129 199.506317,246.802277 193.173828,246.971832 
	C188.013840,247.109970 182.847229,247.000000 177.683548,247.000000 
	C136.707291,247.000015 95.730995,247.033844 54.754791,246.987076 
	C30.879784,246.959824 10.729400,231.950378 2.992493,209.827530 
	C2.692809,208.970596 2.105332,208.214294 1.325976,207.705551 
	C1.000000,161.979111 1.000000,115.958214 1.000000,69.468658 
z"/>
<path fill="#000000" opacity="1.000000" stroke="none" 
	d="
M163.662567,127.987114 
	C176.841629,124.236290 186.685638,116.303665 195.742538,106.882256 
	C208.324051,93.794357 221.348038,81.131828 234.646225,67.823265 
	C234.790375,69.451340 234.985886,70.635109 234.986664,71.819008 
	C235.004105,97.977165 235.025955,124.135361 234.989990,150.293472 
	C234.969360,165.295303 225.146042,177.345139 210.331787,180.934677 
	C207.201889,181.693054 203.882141,181.949463 200.648865,181.956238 
	C166.826675,182.027161 133.004272,181.976730 99.181953,182.009735 
	C82.131424,182.026382 71.179367,172.623230 66.642815,158.052032 
	C65.547913,154.535233 65.087402,150.688614 65.069298,146.990097 
	C64.939766,120.524071 65.000099,94.057121 65.000099,66.800438 
	C66.467041,68.147659 67.507248,69.035622 68.472031,69.999107 
	C82.972603,84.480156 97.412308,99.022575 111.970894,113.445007 
	C125.898888,127.242752 142.710098,131.462173 161.731171,128.013962 
	C162.215729,127.926117 162.729599,127.999985 163.662567,127.987114 
z"/>
<path fill="#000000" opacity="1.000000" stroke="none" 
	d="
M149.100555,107.000000 
	C141.227066,106.726173 134.674133,103.969048 129.499649,98.871803 
	C110.989944,80.638420 92.713715,62.168011 73.990623,43.428394 
	C79.565712,38.403625 85.497299,34.145855 93.273232,34.048031 
	C128.499527,33.604877 163.727600,33.208893 198.955978,33.097313 
	C206.680389,33.072845 214.467056,34.127266 221.008545,39.024494 
	C222.831863,40.389503 224.451172,42.026997 226.417999,43.763714 
	C225.362305,44.943035 224.552673,45.938705 223.650452,46.841881 
	C206.817139,63.693008 190.045319,80.606606 173.093796,97.338066 
	C166.654907,103.693367 158.882034,107.382820 149.100555,107.000000 
z"/>
</svg>