<svg width="17" height="16" viewBox="0 0 17 16" fill="none" xmlns="http://www.w3.org/2000/svg">
<path d="M15.7516 1.93946C15.9469 2.13472 15.9469 2.45131 15.7516 2.64657L14.7087 3.68945L12.7087 1.68945L13.7516 0.646569C13.9469 0.451306 14.2634 0.451307 14.4587 0.646569L15.7516 1.93946Z" fill="#92929C"/>
<path d="M14.0016 4.39656L12.0016 2.39656L5.18861 9.20955C5.13372 9.26444 5.09237 9.33135 5.06782 9.40499L4.26326 11.8187C4.19812 12.0141 4.38405 12.2 4.57949 12.1349L6.99317 11.3303C7.06681 11.3058 7.13372 11.2644 7.18861 11.2096L14.0016 4.39656Z" fill="#92929C"/>
<path fill-rule="evenodd" clip-rule="evenodd" d="M1.25 13.5001C1.25 14.3285 1.92157 15.0001 2.75 15.0001H13.75C14.5784 15.0001 15.25 14.3285 15.25 13.5001V7.50012C15.25 7.22398 15.0261 7.00012 14.75 7.00012C14.4739 7.00012 14.25 7.22398 14.25 7.50012V13.5001C14.25 13.7763 14.0261 14.0001 13.75 14.0001H2.75C2.47386 14.0001 2.25 13.7763 2.25 13.5001V2.50012C2.25 2.22398 2.47386 2.00012 2.75 2.00012H9.25C9.52614 2.00012 9.75 1.77626 9.75 1.50012C9.75 1.22398 9.52614 1.00012 9.25 1.00012H2.75C1.92157 1.00012 1.25 1.67169 1.25 2.50012V13.5001Z" fill="#92929C"/>
</svg>
