<svg width="17" height="16" viewBox="0 0 17 16" fill="none" xmlns="http://www.w3.org/2000/svg">
<path fill-rule="evenodd" clip-rule="evenodd" d="M10.25 5C10.25 6.10457 9.35457 7 8.25 7C7.14543 7 6.25 6.10457 6.25 5C6.25 3.89543 7.14543 3 8.25 3C9.35457 3 10.25 3.89543 10.25 5ZM8.25 8C9.90685 8 11.25 6.65685 11.25 5C11.25 3.34315 9.90685 2 8.25 2C6.59315 2 5.25 3.34315 5.25 5C5.25 6.65685 6.59315 8 8.25 8ZM14.25 13C14.25 14 13.25 14 13.25 14H3.25C3.25 14 2.25 14 2.25 13C2.25 12 3.25 9 8.25 9C13.25 9 14.25 12 14.25 13ZM13.25 12.9965C13.2486 12.7497 13.0962 12.0104 12.4179 11.3321C11.7656 10.6798 10.5391 10 8.24999 10C5.96088 10 4.73435 10.6798 4.0821 11.3321C3.40375 12.0104 3.25142 12.7497 3.25 12.9965H13.25Z" fill="#92929C"/>
</svg>
