<svg version="1.1" id="Layer_1" xmlns="http://www.w3.org/2000/svg" xmlns:xlink="http://www.w3.org/1999/xlink" x="0px" y="0px"
	 width="100%" viewBox="0 0 256 256" enable-background="new 0 0 256 256" xml:space="preserve">
<path fill="#FFFFFF" opacity="1.000000" stroke="none" 
	d="
M257.000000,191.000000 
	C257.000000,198.354248 257.000000,205.708496 256.681458,213.238190 
	C252.839310,218.514755 249.473755,223.734146 245.761765,228.694290 
	C235.542267,242.350174 222.546707,251.847656 205.450623,255.079605 
	C204.866928,255.189972 204.479111,256.336456 204.000000,257.000000 
	C193.312439,257.000000 182.624878,257.000000 171.768875,256.643250 
	C171.103027,255.871216 170.669861,255.247330 170.098724,255.071442 
	C159.103973,251.685226 147.702301,249.276993 137.161667,244.826508 
	C109.941986,233.333832 86.867439,215.460693 65.791458,195.078064 
	C57.206676,186.775726 49.196449,177.721558 41.943306,168.231064 
	C23.756672,144.434540 8.503983,119.043724 2.891163,88.970016 
	C2.811628,88.543869 1.654302,88.318871 1.000001,88.000000 
	C1.000000,76.645775 1.000000,65.291542 1.337892,53.765266 
	C2.112844,52.944813 2.781597,52.351921 2.952240,51.639687 
	C5.546249,40.812771 9.925178,30.870762 17.762819,22.791800 
	C25.078148,15.251237 32.453735,7.731221 42.044838,2.928843 
	C42.556801,2.672497 42.690311,1.660321 43.000000,1.000000 
	C50.687576,1.000000 58.375153,1.000000 66.241501,1.305754 
	C71.355408,5.622739 76.879974,9.102244 81.089142,13.768347 
	C87.595444,20.980959 92.736946,29.431505 99.296547,36.587730 
	C110.023537,48.290382 111.036003,66.680099 101.759384,79.492760 
	C97.180931,85.816399 91.907021,91.636520 86.926628,97.710289 
	C92.252457,112.035439 100.542900,124.537941 110.468208,135.784668 
	C123.522820,150.577316 139.082230,162.297501 157.427338,169.981323 
	C158.547318,170.450424 160.412521,170.684021 161.230072,170.079407 
	C166.322922,166.312988 171.402420,162.486603 176.137802,158.287064 
	C187.372314,148.323761 204.597900,146.862228 216.922272,155.508850 
	C224.345078,160.716614 231.272385,166.624908 238.575714,172.010422 
	C245.413666,177.052780 252.224136,182.016373 255.152664,190.542511 
	C255.264496,190.868118 256.361877,190.855194 257.000000,191.000000 
M83.982300,65.192757 
	C87.435928,60.589725 85.988571,56.409149 82.867981,52.381477 
	C77.102089,44.939594 71.035294,37.707382 65.669151,29.987906 
	C62.381512,25.258465 58.732754,21.526529 52.900169,23.281284 
	C49.542263,24.291525 46.908989,27.568541 43.815376,29.623213 
	C29.132273,39.375229 23.260860,53.910534 23.277742,70.614670 
	C23.286739,79.516312 25.222086,88.704994 27.894722,97.262291 
	C36.928280,126.186089 54.734566,149.799011 75.187874,171.506027 
	C82.284363,179.037506 89.946327,186.220993 98.199623,192.434982 
	C111.073517,202.127869 124.185364,211.698654 138.101639,219.758041 
	C151.739639,227.656250 166.610321,232.815002 182.756760,234.266647 
	C192.324066,235.126785 200.877563,233.632889 209.582047,230.128662 
	C219.889938,225.978943 226.203400,217.479477 232.666565,209.388947 
	C237.827896,202.928009 234.499390,196.904007 229.279358,193.003052 
	C222.396118,187.859161 215.762558,182.374237 208.787033,177.362518 
	C200.284393,171.253601 198.284332,169.415054 189.804779,176.587845 
	C183.603363,181.833603 177.035629,186.643967 170.755493,191.799850 
	C166.723068,195.110413 161.871964,196.338379 157.406906,194.629868 
	C138.280014,187.311142 120.857002,176.910873 105.698700,163.094818 
	C88.170784,147.118973 74.980171,127.977882 65.584297,106.182495 
	C62.964878,100.106277 61.105564,93.965958 65.408630,88.224144 
	C71.168694,80.538177 77.537758,73.308594 83.982300,65.192757 
z"/>
<path fill="#000000" opacity="1.000000" stroke="none" 
	d="
M257.000000,190.531342 
	C256.361877,190.855194 255.264496,190.868118 255.152664,190.542511 
	C252.224136,182.016373 245.413666,177.052780 238.575714,172.010422 
	C231.272385,166.624908 224.345078,160.716614 216.922272,155.508850 
	C204.597900,146.862228 187.372314,148.323761 176.137802,158.287064 
	C171.402420,162.486603 166.322922,166.312988 161.230072,170.079407 
	C160.412521,170.684021 158.547318,170.450424 157.427338,169.981323 
	C139.082230,162.297501 123.522820,150.577316 110.468208,135.784668 
	C100.542900,124.537941 92.252457,112.035439 86.926628,97.710289 
	C91.907021,91.636520 97.180931,85.816399 101.759384,79.492760 
	C111.036003,66.680099 110.023537,48.290382 99.296547,36.587730 
	C92.736946,29.431505 87.595444,20.980959 81.089142,13.768347 
	C76.879974,9.102244 71.355408,5.622739 66.710144,1.305754 
	C92.354225,1.000000 117.708458,1.000000 143.818604,1.290694 
	C144.288361,1.989773 144.066040,2.468337 143.706192,2.795729 
	C139.980515,6.185348 137.618790,10.023853 139.748749,15.236658 
	C142.186798,21.203390 145.149124,22.875229 152.282455,23.043793 
	C156.860764,23.151979 161.571396,23.082220 165.977997,24.125675 
	C188.997421,29.576538 207.962845,41.149162 221.066299,61.412045 
	C230.065155,75.327667 235.233078,90.377892 234.942459,107.032150 
	C234.808014,114.737305 242.330643,121.717789 250.989487,117.926064 
	C253.151489,116.979324 255.004807,115.327675 257.000000,114.000000 
	C257.000000,139.354233 257.000000,164.708450 257.000000,190.531342 
M171.270309,71.024529 
	C175.843719,75.313545 180.828613,79.248322 184.896027,83.972961 
	C191.317780,91.432365 191.753326,101.051003 193.002243,110.279678 
	C193.516159,114.077034 197.929611,118.463921 202.277298,118.921127 
	C206.758026,119.392334 210.521667,117.848457 213.054459,113.802399 
	C217.189789,107.196396 214.599106,100.374786 213.276031,93.882721 
	C210.397720,79.759575 203.164307,68.026573 192.135925,58.572056 
	C179.800217,47.996773 165.476852,43.097176 149.424881,43.064404 
	C143.964035,43.053253 139.061768,48.506744 139.000107,53.877327 
	C138.933609,59.666763 143.201431,64.154228 148.850571,65.069672 
	C156.251160,66.268936 164.015518,66.346863 171.270309,71.024529 
z"/>
<path fill="#000000" opacity="1.000000" stroke="none" 
	d="
M1.000001,88.468658 
	C1.654302,88.318871 2.811628,88.543869 2.891163,88.970016 
	C8.503983,119.043724 23.756672,144.434540 41.943306,168.231064 
	C49.196449,177.721558 57.206676,186.775726 65.791458,195.078064 
	C86.867439,215.460693 109.941986,233.333832 137.161667,244.826508 
	C147.702301,249.276993 159.103973,251.685226 170.098724,255.071442 
	C170.669861,255.247330 171.103027,255.871216 171.300217,256.643250 
	C114.406532,257.000000 57.813065,257.000000 1.000000,257.000000 
	C1.000000,200.979294 1.000000,144.958313 1.000001,88.468658 
z"/>
<path fill="#FFFFFF" opacity="1.000000" stroke="none" 
	d="
M257.000000,113.531349 
	C255.004807,115.327675 253.151489,116.979324 250.989487,117.926064 
	C242.330643,121.717789 234.808014,114.737305 234.942459,107.032150 
	C235.233078,90.377892 230.065155,75.327667 221.066299,61.412045 
	C207.962845,41.149162 188.997421,29.576538 165.977997,24.125675 
	C161.571396,23.082220 156.860764,23.151979 152.282455,23.043793 
	C145.149124,22.875229 142.186798,21.203390 139.748749,15.236658 
	C137.618790,10.023853 139.980515,6.185348 143.706192,2.795729 
	C144.066040,2.468337 144.288361,1.989773 144.287262,1.290694 
	C152.687561,1.000000 161.375137,1.000000 170.232300,1.349607 
	C172.336746,2.342741 174.240891,3.105824 176.211121,3.611510 
	C198.656296,9.372361 217.429947,20.867805 232.338486,38.762280 
	C243.804550,52.524826 251.772736,67.851273 255.080536,85.530884 
	C255.190689,86.119690 256.336792,86.514671 257.000000,87.000000 
	C257.000000,95.687561 257.000000,104.375130 257.000000,113.531349 
z"/>
<path fill="#000000" opacity="1.000000" stroke="none" 
	d="
M257.000000,86.531342 
	C256.336792,86.514671 255.190689,86.119690 255.080536,85.530884 
	C251.772736,67.851273 243.804550,52.524826 232.338486,38.762280 
	C217.429947,20.867805 198.656296,9.372361 176.211121,3.611510 
	C174.240891,3.105824 172.336746,2.342741 170.700958,1.349607 
	C199.593567,1.000000 228.187134,1.000000 257.000000,1.000000 
	C257.000000,29.353851 257.000000,57.708267 257.000000,86.531342 
z"/>
<path fill="#000000" opacity="1.000000" stroke="none" 
	d="
M204.468658,257.000000 
	C204.479111,256.336456 204.866928,255.189972 205.450623,255.079605 
	C222.546707,251.847656 235.542267,242.350174 245.761765,228.694290 
	C249.473755,223.734146 252.839310,218.514755 256.681458,213.706818 
	C257.000000,228.267700 257.000000,242.535400 257.000000,257.000000 
	C239.646271,257.000000 222.291794,257.000000 204.468658,257.000000 
z"/>
<path fill="#000000" opacity="1.000000" stroke="none" 
	d="
M42.531342,1.000000 
	C42.690311,1.660321 42.556801,2.672497 42.044838,2.928843 
	C32.453735,7.731221 25.078148,15.251237 17.762819,22.791800 
	C9.925178,30.870762 5.546249,40.812771 2.952240,51.639687 
	C2.781597,52.351921 2.112844,52.944813 1.337892,53.296608 
	C1.000000,35.747734 1.000000,18.495470 1.000000,1.000000 
	C14.686602,1.000000 28.374641,1.000000 42.531342,1.000000 
z"/>
<path fill="#000000" opacity="1.000000" stroke="none" 
	d="
M83.813812,65.537903 
	C77.537758,73.308594 71.168694,80.538177 65.408630,88.224144 
	C61.105564,93.965958 62.964878,100.106277 65.584297,106.182495 
	C74.980171,127.977882 88.170784,147.118973 105.698700,163.094818 
	C120.857002,176.910873 138.280014,187.311142 157.406906,194.629868 
	C161.871964,196.338379 166.723068,195.110413 170.755493,191.799850 
	C177.035629,186.643967 183.603363,181.833603 189.804779,176.587845 
	C198.284332,169.415054 200.284393,171.253601 208.787033,177.362518 
	C215.762558,182.374237 222.396118,187.859161 229.279358,193.003052 
	C234.499390,196.904007 237.827896,202.928009 232.666565,209.388947 
	C226.203400,217.479477 219.889938,225.978943 209.582047,230.128662 
	C200.877563,233.632889 192.324066,235.126785 182.756760,234.266647 
	C166.610321,232.815002 151.739639,227.656250 138.101639,219.758041 
	C124.185364,211.698654 111.073517,202.127869 98.199623,192.434982 
	C89.946327,186.220993 82.284363,179.037506 75.187874,171.506027 
	C54.734566,149.799011 36.928280,126.186089 27.894722,97.262291 
	C25.222086,88.704994 23.286739,79.516312 23.277742,70.614670 
	C23.260860,53.910534 29.132273,39.375229 43.815376,29.623213 
	C46.908989,27.568541 49.542263,24.291525 52.900169,23.281284 
	C58.732754,21.526529 62.381512,25.258465 65.669151,29.987906 
	C71.035294,37.707382 77.102089,44.939594 82.867981,52.381477 
	C85.988571,56.409149 87.435928,60.589725 83.813812,65.537903 
z"/>
<path fill="#FFFFFF" opacity="1.000000" stroke="none" 
	d="
M170.890228,70.989761 
	C164.015518,66.346863 156.251160,66.268936 148.850571,65.069672 
	C143.201431,64.154228 138.933609,59.666763 139.000107,53.877327 
	C139.061768,48.506744 143.964035,43.053253 149.424881,43.064404 
	C165.476852,43.097176 179.800217,47.996773 192.135925,58.572056 
	C203.164307,68.026573 210.397720,79.759575 213.276031,93.882721 
	C214.599106,100.374786 217.189789,107.196396 213.054459,113.802399 
	C210.521667,117.848457 206.758026,119.392334 202.277298,118.921127 
	C197.929611,118.463921 193.516159,114.077034 193.002243,110.279678 
	C191.753326,101.051003 191.317780,91.432365 184.896027,83.972961 
	C180.828613,79.248322 175.843719,75.313545 170.890228,70.989761 
z"/>
</svg>