<svg width="17" height="16" viewBox="0 0 17 16" fill="none" xmlns="http://www.w3.org/2000/svg">
<path fill-rule="evenodd" clip-rule="evenodd" d="M1.25 2.50037C1.25 1.67194 1.92157 1.00037 2.75 1.00037L5.75 1.00037C6.57843 1.00037 7.25 1.67194 7.25 2.50037V5.50037C7.25 6.32879 6.57843 7.00037 5.75 7.00037H2.75C1.92157 7.00037 1.25 6.32879 1.25 5.50037L1.25 2.50037ZM2.75 2.00037C2.47386 2.00037 2.25 2.22422 2.25 2.50037V5.50037C2.25 5.77651 2.47386 6.00037 2.75 6.00037H5.75C6.02614 6.00037 6.25 5.77651 6.25 5.50037V2.50037C6.25 2.22422 6.02614 2.00037 5.75 2.00037H2.75ZM9.25 2.50037C9.25 1.67194 9.92157 1.00037 10.75 1.00037L13.75 1.00037C14.5784 1.00037 15.25 1.67194 15.25 2.50037V5.50037C15.25 6.32879 14.5784 7.00037 13.75 7.00037H10.75C9.92157 7.00037 9.25 6.32879 9.25 5.50037V2.50037ZM10.75 2.00037C10.4739 2.00037 10.25 2.22422 10.25 2.50037V5.50037C10.25 5.77651 10.4739 6.00037 10.75 6.00037H13.75C14.0261 6.00037 14.25 5.77651 14.25 5.50037V2.50037C14.25 2.22422 14.0261 2.00037 13.75 2.00037H10.75ZM1.25 10.5004C1.25 9.67194 1.92157 9.00037 2.75 9.00037H5.75C6.57843 9.00037 7.25 9.67194 7.25 10.5004V13.5004C7.25 14.3288 6.57843 15.0004 5.75 15.0004H2.75C1.92157 15.0004 1.25 14.3288 1.25 13.5004L1.25 10.5004ZM2.75 10.0004C2.47386 10.0004 2.25 10.2242 2.25 10.5004V13.5004C2.25 13.7765 2.47386 14.0004 2.75 14.0004H5.75C6.02614 14.0004 6.25 13.7765 6.25 13.5004V10.5004C6.25 10.2242 6.02614 10.0004 5.75 10.0004H2.75ZM9.25 10.5004C9.25 9.67194 9.92157 9.00037 10.75 9.00037H13.75C14.5784 9.00037 15.25 9.67194 15.25 10.5004V13.5004C15.25 14.3288 14.5784 15.0004 13.75 15.0004H10.75C9.92157 15.0004 9.25 14.3288 9.25 13.5004V10.5004ZM10.75 10.0004C10.4739 10.0004 10.25 10.2242 10.25 10.5004V13.5004C10.25 13.7765 10.4739 14.0004 10.75 14.0004H13.75C14.0261 14.0004 14.25 13.7765 14.25 13.5004V10.5004C14.25 10.2242 14.0261 10.0004 13.75 10.0004H10.75Z" fill="#92929C"/>
</svg>
