<svg xmlns="http://www.w3.org/2000/svg" xmlns:xlink="http://www.w3.org/1999/xlink" width="1920" zoomAndPan="magnify" viewBox="0 0 1440 809.999993" height="1080" preserveAspectRatio="xMidYMid meet" version="1.0"><defs><clipPath id="7e3dfdb202"><path d="M 315.59375 10.28125 L 1174.34375 10.28125 L 1174.34375 799.644531 L 315.59375 799.644531 Z M 315.59375 10.28125 " clip-rule="nonzero"/></clipPath><clipPath id="e5ddbb0004"><path d="M 980 359.503906 L 1174.34375 359.503906 L 1174.34375 671 L 980 671 Z M 980 359.503906 " clip-rule="nonzero"/></clipPath></defs><g clip-path="url(#7e3dfdb202)"><path fill="#95afb7" d="M 682.230469 795.453125 C 680.949219 795.195312 679.632812 795.019531 678.296875 794.90625 C 658.839844 792.007812 639.566406 787.984375 620.59375 782.824219 C 601.707031 777.46875 583.1875 770.992188 565.089844 763.414062 C 547.660156 755.902344 530.652344 747.367188 514.238281 737.847656 C 498.472656 728.464844 483.269531 718.199219 468.6875 707.074219 C 454.796875 696.175781 441.492188 684.515625 428.929688 672.101562 C 416.722656 659.746094 405.234375 646.714844 394.539062 633.042969 C 384.992188 620.507812 376.117188 607.46875 367.992188 593.976562 C 382.941406 567.289062 405.910156 543.597656 430.042969 523.460938 C 401.15625 529.703125 372.046875 536.972656 342.726562 543.253906 C 337.128906 529.292969 332.3125 515.039062 328.285156 500.550781 C 324.152344 484.890625 320.96875 469.015625 318.734375 452.960938 C 317.621094 444.113281 316.796875 435.21875 316.277344 426.316406 C 316.269531 426.09375 316.253906 425.882812 316.234375 425.652344 C 315.828125 418.480469 315.609375 411.304688 315.59375 404.117188 C 315.644531 397.929688 315.835938 391.746094 316.179688 385.582031 C 316.1875 385.421875 316.203125 385.253906 316.210938 385.09375 C 316.226562 384.730469 316.246094 384.355469 316.269531 383.980469 C 316.292969 383.554688 316.324219 383.113281 316.347656 382.679688 C 316.355469 382.570312 316.355469 382.464844 316.371094 382.367188 C 316.867188 374.449219 317.582031 366.558594 318.542969 358.6875 C 318.542969 358.679688 318.542969 358.664062 318.542969 358.65625 C 318.609375 358.132812 318.679688 357.597656 318.75 357.074219 C 318.765625 356.820312 318.800781 356.570312 318.832031 356.324219 C 318.871094 356.019531 318.917969 355.730469 318.945312 355.425781 C 318.96875 355.21875 319.007812 355.03125 319.03125 354.832031 C 319.953125 348.460938 321.019531 342.113281 322.246094 335.792969 C 322.269531 335.695312 322.292969 335.582031 322.300781 335.480469 C 322.347656 335.246094 322.394531 335.015625 322.4375 334.78125 C 324.285156 325.390625 326.472656 316.085938 328.972656 306.859375 C 329.207031 306.035156 329.445312 305.210938 329.679688 304.402344 C 329.824219 303.910156 329.964844 303.414062 330.109375 302.925781 C 330.117188 302.902344 330.117188 302.894531 330.132812 302.878906 C 332.945312 293.390625 336.101562 284.003906 339.585938 274.742188 C 339.605469 274.695312 339.628906 274.644531 339.652344 274.582031 C 339.765625 274.277344 339.882812 273.972656 340.003906 273.675781 C 340.09375 273.441406 340.171875 273.195312 340.261719 272.976562 C 340.308594 272.859375 340.355469 272.746094 340.386719 272.648438 C 341.832031 268.890625 343.328125 265.164062 344.867188 261.460938 C 351.300781 246.644531 358.550781 232.195312 366.625 218.226562 C 375.226562 203.746094 384.679688 189.777344 394.902344 176.417969 C 405.363281 163.082031 416.578125 150.359375 428.472656 138.289062 C 433.457031 133.367188 438.542969 128.542969 443.75 123.839844 C 443.96875 123.632812 444.191406 123.445312 444.414062 123.246094 C 444.433594 123.222656 444.457031 123.199219 444.488281 123.175781 C 451.859375 116.554688 459.4375 110.167969 467.222656 104.03125 C 525.828125 79.234375 585.710938 56.820312 644.546875 34.691406 C 623.855469 36.230469 601.964844 38.269531 579.1875 40.847656 C 593.480469 35.390625 608.027344 30.613281 622.765625 26.496094 C 642.699219 21.183594 662.957031 17.125 683.390625 14.304688 C 689.855469 13.480469 696.320312 12.792969 702.808594 12.222656 C 716.949219 10.980469 731.152344 10.339844 745.347656 10.273438 C 745.867188 10.273438 746.394531 10.273438 746.910156 10.273438 C 747.6875 10.289062 748.457031 10.289062 749.222656 10.292969 C 766.496094 10.546875 783.757812 11.660156 800.917969 13.640625 C 803.417969 13.976562 805.964844 14.464844 808.472656 14.5625 C 809.015625 14.644531 809.546875 14.707031 810.082031 14.777344 C 830.019531 17.6875 849.757812 21.78125 869.207031 27.0625 C 880.28125 30.179688 891.261719 33.699219 902.101562 37.617188 C 907.554688 39.589844 912.972656 41.648438 918.355469 43.8125 C 920.527344 44.6875 922.710938 45.585938 924.882812 46.496094 C 927.015625 47.417969 929.144531 48.347656 931.269531 49.292969 C 936.585938 51.675781 941.851562 54.136719 947.082031 56.722656 C 956.789062 61.523438 966.347656 66.636719 975.703125 72.0625 C 991.058594 81.183594 1005.871094 91.152344 1020.082031 101.953125 C 994.769531 114.449219 967.25 123.757812 940.449219 132.800781 C 809.070312 175.167969 677.167969 217.210938 551.632812 272.511719 C 724.613281 224.253906 901.058594 186.78125 1079.082031 157.160156 C 1084.671875 163.515625 1090.074219 170.03125 1095.289062 176.699219 C 1105.613281 190.226562 1115.144531 204.355469 1123.804688 219.003906 C 1131.921875 233.125 1139.203125 247.710938 1145.625 262.6875 C 1151.90625 277.890625 1157.273438 293.46875 1161.679688 309.3125 C 1165.804688 324.933594 1168.996094 340.792969 1171.214844 356.796875 C 1173.265625 373.199219 1174.351562 389.714844 1174.378906 406.234375 C 1174.203125 422.636719 1173.054688 439.003906 1170.925781 455.253906 C 1168.585938 471.410156 1165.261719 487.390625 1160.984375 503.128906 C 1156.53125 518.707031 1151.152344 534.007812 1144.882812 548.953125 C 1138.539062 563.585938 1131.34375 577.828125 1123.382812 591.625 C 1114.882812 605.957031 1105.550781 619.769531 1095.449219 633.011719 C 1084.769531 646.660156 1073.332031 659.664062 1061.152344 671.988281 C 1048.433594 684.546875 1034.992188 696.351562 1020.90625 707.347656 C 1006.082031 718.664062 990.59375 729.066406 974.542969 738.53125 C 957.855469 748.136719 940.617188 756.710938 922.90625 764.261719 C 904.472656 771.859375 885.613281 778.335938 866.40625 783.632812 C 846.625 788.878906 826.527344 792.886719 806.234375 795.660156 C 785.296875 798.289062 764.21875 799.613281 743.128906 799.644531 C 722.773438 799.449219 702.433594 798.054688 682.230469 795.453125 " fill-opacity="1" fill-rule="nonzero"/></g><path fill="#ffffff" d="M 982.3125 257.871094 C 982.671875 294.351562 979.285156 330.765625 980.773438 367.238281 C 982.542969 394.15625 981.917969 421.339844 975.230469 447.617188 C 971.273438 469.167969 975.800781 473.679688 950.0625 475.570312 C 913.730469 478.960938 877.15625 479.535156 840.699219 481.105469 C 712.71875 485.890625 584.605469 485.152344 456.609375 489.28125 C 451.25 489.058594 445.066406 488.824219 441.140625 484.664062 C 413.847656 438.984375 420.238281 383.328125 418.109375 332.28125 C 417.917969 299.746094 416.617188 267.242188 414.65625 234.761719 C 414.800781 229.183594 413.359375 222.554688 417.035156 217.859375 C 416.289062 216.921875 417.210938 215.375 418.421875 215.625 C 420.230469 215.613281 422.027344 215.46875 423.835938 215.34375 C 587.128906 206.71875 750.777344 202.878906 914.269531 200.574219 C 982.738281 201.824219 981.039062 181.730469 982.3125 257.871094 " fill-opacity="1" fill-rule="nonzero"/><path fill="#30568f" d="M 469.058594 280.703125 C 460.933594 272.625 451.929688 265.894531 443.765625 257.9375 C 440.722656 255.523438 436.613281 250.835938 440.242188 247.199219 C 444.230469 244.488281 448.375 248.238281 451.066406 251.058594 C 459.226562 258.992188 468.121094 265.636719 476.15625 273.628906 C 480.753906 278.164062 473.621094 285.335938 469.058594 280.703125 " fill-opacity="1" fill-rule="nonzero"/><path fill="#30568f" d="M 439.851562 284.054688 C 438.449219 282.15625 438.992188 279.679688 439.960938 277.753906 C 448.476562 267.601562 456.886719 257.664062 465.730469 247.976562 C 465.570312 248.136719 465.417969 248.320312 465.285156 248.449219 C 465.546875 248.152344 465.804688 247.863281 466.0625 247.566406 C 465.933594 247.71875 465.796875 247.886719 465.675781 248.03125 C 470.15625 240.289062 480.550781 247.878906 473.625 254.113281 C 473.792969 253.914062 473.984375 253.703125 474.144531 253.503906 C 473.589844 254.160156 473.152344 254.609375 472.605469 255.265625 C 472.773438 255.058594 472.957031 254.875 473.132812 254.675781 C 465.4375 263.175781 457.929688 271.871094 450.671875 280.597656 C 448.429688 283.78125 443.34375 287.765625 439.851562 284.054688 " fill-opacity="1" fill-rule="nonzero"/><path fill="#30568f" d="M 453.789062 281.242188 C 453.683594 270.117188 452.945312 258.996094 452.796875 247.902344 C 452.464844 244.546875 454.125 239.503906 458.226562 239.871094 C 461.96875 240.691406 463.128906 244.890625 462.816406 248.261719 C 462.96875 259.25 463.683594 270.246094 463.808594 281.242188 C 463.867188 287.699219 453.738281 287.730469 453.789062 281.242188 " fill-opacity="1" fill-rule="nonzero"/><path fill="#30568f" d="M 438.441406 269.101562 C 433.105469 267.082031 434.019531 261.222656 439.28125 259.875 C 451.945312 258.953125 464.691406 258.898438 477.355469 257.449219 C 483.820312 257.285156 483.894531 267.394531 477.429688 267.457031 C 464.53125 268.304688 451.3125 270.332031 438.441406 269.101562 " fill-opacity="1" fill-rule="nonzero"/><path fill="#7a7575" d="M 940.59375 397.425781 C 947.199219 404.992188 937.066406 427.476562 936.625 437.90625 C 935.410156 450.171875 933.917969 452.113281 920.269531 451.503906 C 772.832031 458.492188 625.296875 457.347656 477.75 460.625 C 463.683594 460.3125 459.8125 457.777344 457.816406 443.242188 C 456.945312 436.71875 453.261719 418.269531 456.398438 410.617188 C 515.34375 406.5625 574.75 407.226562 633.851562 404.847656 C 735.6875 402.746094 838.449219 397.890625 939.855469 397.167969 C 940.097656 397.175781 940.351562 397.25 940.59375 397.425781 " fill-opacity="1" fill-rule="nonzero"/><path fill="#3a3333" d="M 486.527344 461.519531 C 480.953125 460.914062 473.945312 463.226562 469.769531 458.546875 C 467.320312 455.847656 469.207031 451.871094 472.363281 450.71875 C 623.761719 446.503906 775.53125 450.933594 926.910156 445.5 C 929.996094 445.300781 932.667969 447.976562 932.765625 450.984375 C 932.863281 454.15625 930.355469 456.648438 927.269531 456.855469 C 780.457031 461.859375 633.414062 458.570312 486.527344 461.519531 " fill-opacity="1" fill-rule="nonzero"/><path fill="#ffffff" d="M 635.808594 452.328125 C 635.976562 453.875 634.695312 455.269531 633.1875 455.382812 C 628.789062 455.40625 630.152344 449.035156 629.589844 446.101562 C 628.75 432.03125 631.632812 426.210938 614.277344 427.324219 C 592.511719 427.613281 570.761719 428.207031 549.011719 429.042969 C 549.726562 434.242188 549.75 439.515625 550.011719 444.746094 C 549.667969 447.792969 552.113281 453.84375 547.714844 454.515625 C 546.191406 454.628906 544.734375 453.433594 544.660156 451.886719 C 544.164062 444.363281 544.222656 436.71875 543.261719 429.273438 C 523.34375 429.96875 503.480469 431.4375 483.554688 431.835938 C 479.566406 432.117188 475.097656 431.644531 471.492188 433.550781 C 470.179688 440.398438 470.15625 447.417969 468.886719 454.269531 C 468.746094 456.832031 465.402344 458.210938 463.714844 456.089844 L 463.769531 456.175781 C 463.097656 455.335938 462.855469 454.101562 463.3125 453.105469 C 464.066406 448.964844 464.304688 444.84375 464.820312 440.683594 C 465.402344 437.269531 465.019531 433.457031 466.742188 430.363281 C 470.8125 424.273438 490.75 426.621094 498.199219 425.714844 C 536.136719 423.65625 574.09375 422.207031 612.082031 421.660156 C 637.667969 419.390625 634.4375 431.941406 635.808594 452.328125 " fill-opacity="1" fill-rule="nonzero"/><path fill="#ffffff" d="M 665.015625 405.207031 C 668.84375 406.167969 666.671875 410.808594 666.839844 413.566406 C 666.183594 416.492188 667.660156 422.285156 663.316406 422.429688 C 658.6875 421.738281 661.441406 415.683594 661.195312 412.5625 C 661.515625 409.863281 660.882812 404.664062 665.015625 405.207031 " fill-opacity="1" fill-rule="nonzero"/><path fill="#ffffff" d="M 675.453125 449.148438 C 675.675781 450.855469 674.117188 452.371094 672.449219 452.273438 C 669.949219 452.152344 669.574219 449.515625 669.75 447.601562 C 669.652344 441.078125 669.148438 434.632812 669.148438 428.238281 C 668.949219 424.519531 674.453125 424.089844 674.84375 427.816406 C 674.84375 434.957031 675.398438 442.007812 675.453125 449.148438 " fill-opacity="1" fill-rule="nonzero"/><path fill="#ffffff" d="M 937.734375 424.625 C 938.566406 428.128906 938.277344 449.074219 932.695312 447.472656 C 931.242188 447.191406 930.050781 445.644531 930.433594 444.140625 C 931.171875 441.238281 931.734375 438.289062 932.101562 435.492188 C 932.332031 431.835938 933.855469 422.660156 929.113281 421.683594 C 912.746094 419.511719 896.0625 420.402344 879.589844 420.167969 C 880.214844 430.292969 878.710938 437.125 878.910156 446.03125 C 878.683594 449.734375 873.078125 449.4375 873.222656 445.710938 C 873.101562 437.222656 874.566406 428.640625 873.742188 420.210938 C 843.605469 420.632812 813.4375 421.453125 783.34375 423.488281 C 784.230469 430.257812 784.398438 436.976562 784.109375 443.8125 C 783.527344 446.824219 785 454.21875 780.546875 454.132812 C 775.941406 453.460938 778.703125 447.546875 778.375 444.46875 C 778.671875 437.511719 778.566406 430.539062 777.621094 423.726562 C 759.367188 424.175781 740.554688 425 722.402344 425.21875 C 712.445312 425.410156 702.464844 424.699219 692.859375 427.03125 C 688.933594 427.878906 688.542969 429.21875 688.71875 433.273438 C 689.015625 439.949219 689.578125 446.65625 690.351562 453.292969 C 691.097656 456.960938 685.457031 458.066406 684.753906 454.378906 C 684.394531 446.335938 681.140625 432.726562 684.410156 425.691406 C 693.820312 414.632812 758.109375 421.035156 777.628906 417.972656 C 778.632812 416.761719 780.714844 416.578125 781.925781 417.789062 C 823.957031 415.296875 866.101562 413.957031 908.222656 414.664062 C 917.683594 415.921875 935.984375 411.515625 937.734375 424.625 " fill-opacity="1" fill-rule="nonzero"/><path fill="#cbc1c1" d="M 481.3125 351.523438 C 490.453125 350.160156 518.933594 349.398438 519.515625 364.199219 C 517.511719 378.539062 485.480469 376.4375 475.746094 375.902344 C 442.972656 373.128906 455.773438 352.886719 481.3125 351.523438 " fill-opacity="1" fill-rule="nonzero"/><path fill="#f7ac7b" d="M 1053.695312 506.832031 C 1073.480469 522.746094 1068.050781 536.210938 1048.472656 547.863281 C 1041.855469 552.117188 1034.214844 558.152344 1025.273438 556.269531 C 1017.710938 554.644531 1013.328125 548.246094 1008.050781 543.703125 C 997.4375 533.269531 987.023438 523.019531 977.097656 512.203125 C 959.433594 491.628906 969.855469 475.683594 975.542969 454.324219 C 978.121094 444.628906 977.242188 434.898438 978.738281 425.164062 C 980.679688 415.914062 984.25 407.21875 989.144531 422.164062 C 999.558594 454.667969 1016.15625 490.964844 1051.324219 507.222656 C 1051.683594 506.367188 1052.96875 506.207031 1053.695312 506.832031 " fill-opacity="1" fill-rule="nonzero"/><path fill="#f7ac7b" d="M 1154.085938 390.238281 C 1153.09375 410.65625 1110.429688 446.375 1090 445.453125 C 1084.859375 444.339844 1080.019531 441.640625 1074.925781 440.40625 C 1063.371094 437.695312 1050.660156 439.15625 1039.980469 444.074219 C 1038.644531 444.324219 1037.882812 442.457031 1039.050781 441.726562 C 1022.804688 433.554688 1007.816406 409.769531 1005.375 392 C 1004.332031 383.050781 1008.773438 379.921875 1015.125 374.890625 C 1031.546875 362.1875 1049.066406 350.59375 1067.964844 341.914062 C 1074.765625 339.125 1081.644531 335.582031 1089.046875 334.933594 C 1093.445312 334.726562 1094.460938 339.703125 1096.039062 342.84375 C 1111.058594 378.136719 1150.105469 377.617188 1154.085938 390.238281 " fill-opacity="1" fill-rule="nonzero"/><path fill="#f7ac7b" d="M 1044.363281 427.207031 C 1051.300781 461.304688 1016.972656 435.949219 1004.382812 427.566406 C 987.269531 419.496094 989.777344 413.230469 978.484375 401.464844 C 974.964844 398.171875 970.921875 395.390625 968.027344 391.472656 C 953.203125 372.253906 939.824219 350.496094 942.890625 325.210938 C 943.117188 323.9375 942.5625 321.679688 944.398438 321.621094 C 945.175781 321.648438 945.710938 322.359375 945.625 323.105469 C 961.261719 342.402344 973.925781 364.359375 990.410156 383.007812 C 992.679688 385.003906 995.203125 387.335938 998.191406 387.984375 C 999.847656 381.582031 1004.179688 379.363281 1010.597656 379.859375 C 1024.089844 382.441406 1036.417969 395.550781 1037.5 409.335938 C 1037.601562 411.59375 1035.910156 413.558594 1036.390625 415.746094 C 1036.824219 417.292969 1038.5625 417.851562 1039.546875 419.023438 C 1041.855469 421.21875 1043.539062 424.273438 1044.363281 427.207031 " fill-opacity="1" fill-rule="nonzero"/><path fill="#df8253" d="M 1022.917969 401.753906 C 1022.101562 399.398438 1019.074219 391.511719 1015.949219 395.320312 C 1015.308594 393.914062 1016.816406 392.394531 1018.078125 391.96875 C 1023.207031 390.925781 1025.835938 398.210938 1022.917969 401.753906 " fill-opacity="1" fill-rule="nonzero"/><path fill="#df8253" d="M 1043.457031 442.808594 C 1044.746094 430.53125 1044.378906 430.25 1036.222656 421.476562 C 1034.917969 419.730469 1033.414062 418.125 1033.507812 415.96875 C 1038.25 406.953125 1033.035156 396.609375 1027.21875 389.269531 C 1034.589844 394.910156 1038.210938 405.160156 1036.449219 414.230469 C 1042.160156 416.371094 1047.832031 421.957031 1045.773438 428.511719 C 1044.867188 433.222656 1044.835938 438.296875 1043.457031 442.808594 " fill-opacity="1" fill-rule="nonzero"/><path fill="#000000" d="M 1109.769531 362.941406 C 1119.101562 380.085938 1099.796875 368.503906 1074.621094 398.050781 C 1071.785156 401.425781 1069.605469 405.070312 1067.378906 408.804688 C 1066.144531 410.65625 1064.839844 414.039062 1062.082031 412.894531 C 1054.296875 408.261719 1046.636719 403.628906 1039.171875 398.507812 C 1031.820312 393.484375 1019.386719 382.128906 1010.179688 383.058594 C 1004.75 384.722656 1007.449219 391.871094 1006.457031 396.015625 C 1005.671875 402.121094 997.363281 402.730469 992.980469 400.136719 C 989.417969 397.792969 988.03125 393.433594 986.011719 389.875 C 984.675781 384.746094 962.726562 355.921875 958.359375 361.265625 C 955.972656 371.734375 945.117188 383.507812 934.167969 375.964844 C 927.945312 369.242188 933.253906 358.902344 933.40625 350.867188 C 933.398438 311.757812 949.484375 265.277344 991.867188 255.613281 C 993.742188 255.066406 1005.824219 252.566406 1003.234375 256.679688 C 1005.144531 257.261719 1007 256.621094 1008.773438 255.957031 C 1038.683594 245.171875 1069.765625 266.742188 1082.382812 293.4375 C 1094.390625 315.570312 1095.351562 341.867188 1109.769531 362.941406 " fill-opacity="1" fill-rule="nonzero"/><path fill="#000000" d="M 982.609375 263.585938 C 990.746094 252.976562 1013.226562 254.691406 1024.738281 258.441406 C 1026.5 258.867188 1028.816406 260.558594 1027.429688 262.519531 C 1025.609375 264.652344 1017.824219 262.191406 1015.042969 261.949219 C 1010.171875 261.109375 1005.253906 260.085938 1000.289062 260.140625 C 997.011719 260.675781 993.824219 261.542969 990.546875 262 C 990.5625 261.871094 990.769531 261.734375 990.859375 261.605469 C 988.105469 262.214844 985.300781 262.945312 982.609375 263.585938 " fill-opacity="1" fill-rule="nonzero"/><path fill="#000000" d="M 1009.363281 272.136719 C 1003.476562 259.78125 1006.191406 256.734375 992.308594 249.800781 C 1002.363281 245.628906 1013.28125 261.324219 1009.363281 272.136719 " fill-opacity="1" fill-rule="nonzero"/><path fill="#000000" d="M 989.480469 297.703125 C 985.933594 282.113281 1003.554688 246.859375 1021.734375 248.425781 C 1021.386719 248.617188 1020.882812 248.921875 1020.515625 249.191406 C 1008.722656 256.710938 999.117188 267.625 995.089844 281.167969 C 993.398438 286.722656 992.726562 292.796875 989.480469 297.703125 " fill-opacity="1" fill-rule="nonzero"/><path fill="#f7ac7b" d="M 966.144531 712.027344 C 936.523438 678.617188 920.195312 636.113281 900.714844 596.570312 C 883.125 551.605469 867.101562 508.136719 815.3125 494.730469 C 809.527344 493.230469 790.761719 487.0625 803.375 481.652344 C 825.511719 473.855469 849.023438 479.839844 871.835938 476.925781 C 894.113281 475.183594 918.25 471.242188 921.160156 500.050781 C 927.96875 534.289062 938.421875 568.347656 956.027344 598.824219 C 958.222656 602.398438 982.289062 644.582031 985.316406 634.203125 C 987.582031 627.152344 991.125 622.199219 999.34375 624.25 C 1012.0625 627.207031 1050.5 649.960938 1049.3125 663.632812 C 1052.175781 664.0625 1049.480469 667.71875 1049.074219 669.242188 C 1045.515625 677.9375 1041.230469 686.175781 1036.695312 694.453125 C 1022.125 707.003906 1006.550781 718.359375 990.394531 728.761719 C 980.375 726.347656 972.621094 719.519531 966.144531 712.027344 " fill-opacity="1" fill-rule="nonzero"/><g clip-path="url(#e5ddbb0004)"><path fill="#294273" d="M 1043.289062 670.1875 C 1019.257812 666.261719 997.566406 650.808594 981.421875 633.1875 C 980.316406 630.351562 980.992188 627.167969 981.101562 624.203125 C 988.3125 575.566406 982.730469 515.878906 1026.8125 482.964844 C 1043.449219 468.734375 1058.964844 452.554688 1074.882812 438 C 1098.636719 436.910156 1120.21875 418.300781 1131.960938 398.621094 C 1133.472656 395.613281 1134.515625 392.441406 1135.195312 389.171875 C 1136.167969 385.246094 1135.789062 380.84375 1137.9375 377.296875 C 1147.070312 368.578125 1160.34375 365.011719 1171.558594 359.570312 C 1184.277344 458.226562 1154.0625 560.4375 1091.730469 637.699219 C 1087.582031 629.75 1083.261719 621.574219 1078.320312 614.128906 C 1064.503906 592.515625 1057.109375 635.046875 1057.484375 644.589844 C 1056.972656 656.765625 1057.453125 673.25 1043.289062 670.1875 " fill-opacity="1" fill-rule="nonzero"/></g></svg>