<svg width="17" height="16" viewBox="0 0 17 16" fill="none" xmlns="http://www.w3.org/2000/svg">
<path d="M5.55769 5.86679C5.85508 5.86679 6.09615 6.10557 6.09615 6.40012V12.8001C6.09615 13.0947 5.85508 13.3335 5.55769 13.3335C5.26031 13.3335 5.01923 13.0947 5.01923 12.8001V6.40012C5.01923 6.10557 5.26031 5.86679 5.55769 5.86679Z" fill="#92929C"/>
<path d="M8.25 5.86679C8.54738 5.86679 8.78846 6.10557 8.78846 6.40012V12.8001C8.78846 13.0947 8.54738 13.3335 8.25 13.3335C7.95262 13.3335 7.71154 13.0947 7.71154 12.8001V6.40012C7.71154 6.10557 7.95262 5.86679 8.25 5.86679Z" fill="#92929C"/>
<path d="M11.4808 6.40012C11.4808 6.10557 11.2397 5.86679 10.9423 5.86679C10.6449 5.86679 10.4038 6.10557 10.4038 6.40012V12.8001C10.4038 13.0947 10.6449 13.3335 10.9423 13.3335C11.2397 13.3335 11.4808 13.0947 11.4808 12.8001V6.40012Z" fill="#92929C"/>
<path fill-rule="evenodd" clip-rule="evenodd" d="M15.25 3.20012C15.25 3.78923 14.7678 4.26679 14.1731 4.26679H13.6346V13.8668C13.6346 15.045 12.6703 16.0001 11.4808 16.0001H5.01923C3.82969 16.0001 2.86538 15.045 2.86538 13.8668V4.26679H2.32692C1.73215 4.26679 1.25 3.78923 1.25 3.20012V2.13346C1.25 1.54435 1.73215 1.06679 2.32692 1.06679H6.09615C6.09615 0.477685 6.57831 0.00012207 7.17308 0.00012207H9.32692C9.92169 0.00012207 10.4038 0.477685 10.4038 1.06679H14.1731C14.7678 1.06679 15.25 1.54435 15.25 2.13346V3.20012ZM4.06942 4.26679L3.94231 4.32974V13.8668C3.94231 14.4559 4.42446 14.9335 5.01923 14.9335H11.4808C12.0755 14.9335 12.5577 14.4559 12.5577 13.8668V4.32974L12.4306 4.26679H4.06942ZM2.32692 3.20012V2.13346H14.1731V3.20012H2.32692Z" fill="#92929C"/>
</svg>
