<svg xmlns="http://www.w3.org/2000/svg" viewBox="0 0 500 500"><g id="freepik--City--inject-43"><polygon id="freepik--city--inject-43" points="476.42 197.68 458.64 187.41 440.44 197.92 440.44 225.95 422.23 215.44 410.09 222.45 410.09 155.54 385.81 141.52 373.67 148.53 373.67 173.39 355.46 183.9 355.46 197.62 337.26 187.11 319.05 197.62 319.05 472.4 476.42 472.4 476.42 197.68" style="fill:#f0f0f0"></polygon></g><g id="freepik--Building--inject-43"><g id="freepik--building--inject-43"><rect x="27.95" y="34.72" width="291.1" height="437.68" style="fill:#397F77"></rect><rect x="27.95" y="34.72" width="291.1" height="437.68" style="fill:#fff;opacity:0.85"></rect><g id="freepik--Window--inject-43"><polygon points="38.08 450.51 38.08 440.35 309.11 283.83 309.11 293.99 38.08 450.51" style="fill:#f0f0f0"></polygon><polygon points="300.32 288.91 309.11 293.99 309.11 89.46 300.31 94.54 300.32 288.91" style="fill:#e0e0e0"></polygon><path d="M233.43,181.6V327.51l8.79,5.08V176.52Zm-72.5,187.81,8.79,5.08V218.42l-8.8,5.08ZM93.17,408.53l8.8,5.08V257.54l-8.8,5.08Z" style="fill:#e0e0e0"></path><polygon points="38.08 288.77 38.08 278.65 300.31 127.22 309.11 132.25 38.08 288.77" style="fill:#f0f0f0"></polygon><path d="M233.43,133.15v32.62l8.79,5.08V128.07Zm-72.5,74.52,8.79,5.08V170l-8.8,5.08ZM93.17,246.8l8.8,5.08V209.09l-8.8,5.09Z" style="fill:#e0e0e0"></path><polygon points="309.11 293.99 309.11 89.46 38.08 245.93 38.08 450.51 309.11 293.99" style="fill:#397F77;opacity:0.30000000000000004"></polygon><polygon points="102.19 413.48 148.94 386.48 269.71 112.21 222.96 139.2 102.19 413.48" style="fill:#fff;opacity:0.30000000000000004"></polygon><polygon points="132.78 191.25 38.07 406.34 38.07 338.23 92.56 214.47 132.78 191.25" style="fill:#fff;opacity:0.30000000000000004"></polygon><polygon points="309.11 164.12 309.11 243.46 279.27 311.22 232.43 338.27 309.11 164.12" style="fill:#fff;opacity:0.30000000000000004"></polygon><path d="M219,283.49c-2.19,5.17-4.38,10.34-6.43,15.56l-3.06,7.85c-1,2.64-2,5.25-2.89,7.92,1.31-2.5,2.5-5,3.74-7.56l3.56-7.63c2.37-5.09,4.6-10.24,6.83-15.39s4.37-10.34,6.42-15.56,4.11-10.45,5.95-15.77c-2.57,5-4.94,10.09-7.29,15.19S221.24,278.34,219,283.49Zm-28.08-11.92c2.37-5.09,4.6-10.24,6.83-15.39s4.37-10.33,6.42-15.56,4.1-10.45,5.95-15.77c-2.57,5-4.95,10.09-7.3,15.19s-4.59,10.24-6.82,15.39-4.38,10.34-6.43,15.56l-3.07,7.85c-.95,2.64-2,5.25-2.88,7.92,1.3-2.5,2.49-5,3.74-7.56ZM219,246.33c3.33-8.17,6.63-16.36,9.74-24.63-3.83,8-7.47,16-11.09,24.06S210.59,261.93,207,270c-3.4,8.14-6.88,16.25-10.22,24.42l-5,12.28c-1.59,4.12-3.24,8.21-4.78,12.35,1.93-4,3.75-8,5.64-12L198.17,295c3.61-8.05,7.08-16.17,10.62-24.25S215.68,254.51,219,246.33Zm39.55-14.86c2.37-5.09,4.6-10.24,6.83-15.39s4.37-10.34,6.42-15.57,4.1-10.45,5.95-15.76c-2.57,5-4.95,10.09-7.29,15.19s-4.6,10.24-6.83,15.39-4.38,10.33-6.43,15.56l-3.06,7.84c-1,2.64-2,5.26-2.89,7.92,1.31-2.49,2.5-5,3.74-7.55ZM293.47,228c-2.37,5.09-4.6,10.24-6.83,15.39s-4.37,10.33-6.42,15.56l-3.07,7.84c-1,2.64-2,5.26-2.89,7.92,1.31-2.49,2.5-5,3.75-7.55l3.55-7.63c2.37-5.09,4.6-10.24,6.83-15.39s4.37-10.34,6.42-15.57,4.11-10.45,5.95-15.76C298.19,217.81,295.82,222.9,293.47,228Zm-6.83-21.77c3.33-8.18,6.63-16.36,9.75-24.63-3.84,8-7.48,16-11.09,24.05s-7.08,16.17-10.63,24.25-6.88,16.26-10.22,24.43l-5,12.27c-1.59,4.12-3.24,8.22-4.78,12.36,1.93-4,3.76-8,5.64-12l5.45-12.06c3.62-8.06,7.08-16.17,10.62-24.26S283.31,214.4,286.64,206.23ZM79.91,327c3.33-8.17,6.63-16.36,9.74-24.63-3.83,8-7.47,16-11.09,24.06s-7.07,16.17-10.62,24.25c-3.4,8.14-6.88,16.25-10.22,24.42l-5,12.28c-1.59,4.12-3.24,8.21-4.78,12.35,1.93-4,3.76-8,5.64-12l5.45-12.07c3.61-8,7.08-16.17,10.62-24.25S76.58,335.15,79.91,327Zm0,37.16c-2.19,5.17-4.38,10.34-6.43,15.56l-3.06,7.85c-1,2.64-2,5.25-2.89,7.92,1.31-2.5,2.5-5,3.75-7.56l3.55-7.63c2.37-5.09,4.6-10.24,6.83-15.39s4.37-10.34,6.42-15.56,4.11-10.45,6-15.77c-2.57,5-4.94,10.09-7.29,15.19S82.14,359,79.91,364.13ZM51.83,352.21c2.37-5.09,4.6-10.24,6.83-15.39s4.37-10.33,6.42-15.56,4.1-10.45,6-15.76c-2.57,5-5,10.09-7.29,15.18s-4.6,10.24-6.83,15.39-4.38,10.34-6.43,15.56l-3.07,7.85c-.95,2.64-2,5.25-2.88,7.92,1.3-2.5,2.49-5,3.74-7.55Zm95.71-65.34c3.33-8.18,6.64-16.36,9.75-24.63-3.84,8-7.48,16-11.09,24.05s-7.08,16.17-10.63,24.25c-3.4,8.15-6.88,16.26-10.22,24.43l-5,12.27c-1.59,4.12-3.24,8.22-4.78,12.36,1.94-4,3.76-8,5.64-12l5.45-12.06c3.62-8.06,7.08-16.17,10.62-24.26S144.21,295,147.54,286.87Zm0,37.16c-2.19,5.16-4.37,10.33-6.42,15.56l-3.07,7.84c-1,2.64-2,5.26-2.89,7.92,1.31-2.49,2.5-5,3.75-7.55l3.55-7.63c2.37-5.09,4.6-10.24,6.83-15.39s4.37-10.34,6.42-15.57,4.11-10.45,5.95-15.76c-2.57,5-4.94,10.09-7.29,15.19S149.77,318.88,147.54,324Zm-28.08-11.92c2.37-5.09,4.6-10.24,6.83-15.39s4.37-10.34,6.42-15.57,4.11-10.45,5.95-15.76c-2.57,5-4.94,10.09-7.29,15.19s-4.6,10.24-6.83,15.39-4.38,10.33-6.43,15.56l-3.06,7.84c-1,2.64-2,5.26-2.89,7.92,1.31-2.49,2.5-5,3.74-7.55Z" style="fill:#397F77;opacity:0.2"></path><polygon points="242.23 332.59 242.23 332.59 225.31 342.36 242.23 332.59" style="fill:#fafafa"></polygon><polygon points="309.11 132.25 246.11 168.64 246.11 125.83 242.24 128.07 242.24 170.87 173.6 210.52 173.6 167.69 169.73 169.93 169.73 212.76 105.84 249.64 105.84 206.81 101.97 209.04 101.97 251.88 38.08 288.75 38.08 294.39 101.97 257.51 101.97 413.61 105.84 411.38 105.84 255.27 169.73 218.39 169.72 374.49 173.6 372.25 173.6 216.15 242.24 176.52 242.23 332.61 246.11 330.38 246.11 174.29 309.11 137.91 309.11 132.25" style="fill:#fafafa"></polygon><path d="M28,235.71h0V472.39l291.1-168V67.69ZM309.11,294l-271,156.52V245.93l271-156.47Z" style="fill:#fafafa"></path></g><g id="freepik--window--inject-43"><polygon points="309.11 472.4 309.11 310.09 300.31 315.18 300.31 472.4 309.11 472.4" style="fill:#e0e0e0"></polygon><polygon points="242.23 472.4 242.23 397.15 233.43 402.23 233.43 472.4 242.23 472.4" style="fill:#e0e0e0"></polygon><polygon points="169.72 472.4 169.72 439.05 160.92 444.13 160.92 472.4 169.72 472.4" style="fill:#e0e0e0"></polygon><polygon points="102.15 472.4 309.11 352.89 300.31 347.85 84.62 472.4 102.15 472.4" style="fill:#f0f0f0"></polygon><polygon points="101.78 472.4 101.97 472.4 101.97 429.73 93.17 434.81 93.17 467.43 101.78 472.4" style="fill:#e0e0e0"></polygon><polygon points="242.23 391.49 242.23 348.7 233.43 353.79 233.44 386.41 242.23 391.49" style="fill:#e0e0e0"></polygon><polygon points="169.72 433.39 169.72 390.6 160.92 395.69 160.93 428.31 169.72 433.39" style="fill:#e0e0e0"></polygon><polygon points="309.11 472.4 309.11 310.09 38.08 466.56 38.08 472.4 309.11 472.4" style="fill:#397F77;opacity:0.30000000000000004"></polygon><polygon points="208.26 472.4 269.71 332.84 222.96 359.83 173.4 472.4 208.26 472.4" style="fill:#fff;opacity:0.30000000000000004"></polygon><polygon points="106.14 472.4 132.78 411.88 73.48 446.12 61.91 472.4 106.14 472.4" style="fill:#fff;opacity:0.30000000000000004"></polygon><polygon points="309.11 472.4 309.11 318.11 241.17 472.4 309.11 472.4" style="fill:#fff;opacity:0.30000000000000004"></polygon><path d="M267.19,472.4c3.11-7,6.15-14.08,9.23-21.11,3.4-8.15,6.89-16.26,10.22-24.43s6.63-16.36,9.75-24.63c-3.84,8-7.48,16-11.09,24s-7.08,16.17-10.63,24.26c-3.05,7.29-6.14,14.55-9.15,21.86Z" style="fill:#397F77;opacity:0.2"></path><path d="M199.61,472.4c1.56-3.7,3.1-7.41,4.57-11.15,2.06-5.22,4.1-10.45,5.95-15.76-2.57,5-4.95,10.09-7.3,15.19-1.8,3.88-3.52,7.8-5.23,11.72Z" style="fill:#397F77;opacity:0.2"></path><path d="M285.06,472.4q1.68-3.81,3.33-7.63c2.19-5.17,4.37-10.34,6.42-15.56s4.11-10.45,5.95-15.77c-2.57,5-4.94,10.09-7.29,15.19s-4.6,10.24-6.83,15.39q-1.77,4.19-3.51,8.38Z" style="fill:#397F77;opacity:0.2"></path><path d="M258.56,452.1c2.37-5.09,4.6-10.24,6.83-15.39s4.37-10.34,6.42-15.56,4.1-10.45,5.95-15.77c-2.57,5-4.95,10.09-7.29,15.19s-4.6,10.24-6.83,15.39-4.38,10.34-6.43,15.56l-3.06,7.85c-1,2.64-2,5.25-2.89,7.92,1.31-2.5,2.5-5,3.74-7.56Z" style="fill:#397F77;opacity:0.2"></path><path d="M216.77,472.4q1.13-2.72,2.24-5.44c3.33-8.17,6.63-16.36,9.74-24.62-3.83,8-7.47,16-11.09,24.05q-1.33,3-2.66,6Z" style="fill:#397F77;opacity:0.2"></path><polygon points="111.91 472.4 169.73 439.02 169.73 472.4 173.6 472.4 173.6 436.78 242.24 397.16 242.23 472.4 246.11 472.4 246.11 394.92 309.11 358.54 309.11 352.89 246.11 389.27 246.11 346.47 242.24 348.7 242.24 391.51 173.6 431.16 173.6 388.33 169.73 390.56 169.73 433.39 105.84 470.27 105.84 427.44 101.97 429.68 101.97 472.4 111.91 472.4" style="fill:#fafafa"></polygon><polygon points="38.08 472.4 38.08 466.56 309.11 310.09 309.11 472.4 319.05 472.4 319.05 288.26 27.95 456.3 27.95 456.3 27.95 472.4 38.08 472.4" style="fill:#fafafa"></polygon></g><g id="freepik--window--inject-43"><polygon points="38.08 229.94 38.08 219.78 309.11 63.27 309.11 73.42 38.08 229.94" style="fill:#f0f0f0"></polygon><polygon points="300.31 34.72 300.32 68.35 309.11 73.43 309.11 34.72 300.31 34.72" style="fill:#e0e0e0"></polygon><polygon points="160.92 34.72 160.93 148.84 169.72 153.92 169.72 34.72 160.92 34.72" style="fill:#e0e0e0"></polygon><polygon points="93.17 187.97 101.97 193.05 101.97 36.97 93.17 42.06 93.17 187.97" style="fill:#e0e0e0"></polygon><polygon points="233.44 34.72 233.44 106.95 242.23 112.03 242.23 34.72 233.44 34.72" style="fill:#e0e0e0"></polygon><polygon points="78.53 34.72 38.08 58.08 38.08 68.21 96.07 34.72 78.53 34.72" style="fill:#f0f0f0"></polygon><polygon points="38.08 34.72 38.08 229.94 309.11 73.42 309.11 34.72 38.08 34.72" style="fill:#397F77;opacity:0.30000000000000004"></polygon><polygon points="171.85 34.72 102.19 192.91 148.94 165.92 206.71 34.72 171.85 34.72" style="fill:#fff;opacity:0.30000000000000004"></polygon><polygon points="60.36 34.72 38.08 85.33 38.08 185.78 104.59 34.72 60.36 34.72" style="fill:#fff;opacity:0.30000000000000004"></polygon><polygon points="303.89 34.72 279.25 90.67 232.36 117.75 268.92 34.72 303.89 34.72" style="fill:#fff;opacity:0.30000000000000004"></polygon><path d="M79.91,143.57c-2.19,5.16-4.38,10.33-6.43,15.56L70.42,167c-1,2.64-2,5.26-2.89,7.92,1.31-2.49,2.5-5,3.75-7.55l3.55-7.63c2.37-5.09,4.6-10.24,6.83-15.39S86,134,88.08,128.75,92.19,118.3,94,113c-2.57,5-4.94,10.09-7.29,15.19S82.14,138.42,79.91,143.57Z" style="fill:#397F77;opacity:0.2"></path><path d="M119.46,91.54c2.37-5.09,4.6-10.24,6.83-15.39s4.37-10.33,6.42-15.56,4.11-10.45,5.95-15.76c-2.57,5-4.94,10.09-7.29,15.18s-4.6,10.24-6.83,15.39S120.16,85.74,118.11,91l-3.06,7.84c-1,2.64-2,5.26-2.89,7.92,1.31-2.49,2.5-5,3.74-7.55Z" style="fill:#397F77;opacity:0.2"></path><path d="M51.83,131.65c2.37-5.09,4.6-10.24,6.83-15.39s4.37-10.34,6.42-15.57,4.1-10.45,6-15.76c-2.57,5-5,10.09-7.29,15.19s-4.6,10.24-6.83,15.39-4.38,10.33-6.43,15.56l-3.07,7.84c-.95,2.64-2,5.26-2.88,7.92,1.3-2.49,2.49-5,3.74-7.55Z" style="fill:#397F77;opacity:0.2"></path><path d="M79.91,106.41c3.33-8.18,6.63-16.36,9.74-24.63-3.83,8-7.47,16-11.08,24S71.49,122,67.94,130.08c-3.4,8.15-6.88,16.26-10.22,24.43l-5,12.27C51.17,170.9,49.52,175,48,179.14c1.93-4,3.76-8,5.64-12l5.45-12.06c3.61-8.06,7.08-16.17,10.62-24.26S76.58,114.58,79.91,106.41Z" style="fill:#397F77;opacity:0.2"></path><path d="M147.54,66.3c3.33-8.17,6.63-16.36,9.75-24.63-3.84,8-7.48,16-11.09,24.06S139.12,81.9,135.57,90c-3.4,8.14-6.88,16.25-10.22,24.43l-5,12.27c-1.59,4.12-3.24,8.21-4.78,12.35,1.94-4,3.76-8,5.64-12L126.7,115c3.62-8,7.08-16.17,10.62-24.25S144.21,74.48,147.54,66.3Z" style="fill:#397F77;opacity:0.2"></path><path d="M213.46,34.72q-3.21,7.37-6.42,14.72c-3.4,8.15-6.88,16.26-10.22,24.43l-5,12.27c-1.59,4.12-3.24,8.22-4.78,12.36,1.93-4,3.75-8,5.64-12l5.45-12.06c3.61-8.06,7.08-16.17,10.62-24.26q3.24-7.74,6.51-15.47Z" style="fill:#397F77;opacity:0.2"></path><path d="M264.07,34.72,259.49,46c-1.59,4.12-3.24,8.21-4.78,12.35,1.93-4,3.76-8,5.64-12l5.28-11.69Z" style="fill:#397F77;opacity:0.2"></path><path d="M281.7,34.72c-.5,1.22-1,2.44-1.48,3.66l-3.07,7.85c-1,2.64-2,5.25-2.89,7.92,1.31-2.5,2.5-5,3.75-7.55L281.56,39c.66-1.41,1.29-2.82,1.92-4.24Z" style="fill:#397F77;opacity:0.2"></path><path d="M196.07,34.72l-.06.15c-2.19,5.16-4.38,10.33-6.43,15.56l-3.07,7.84c-.95,2.64-2,5.26-2.88,7.92,1.3-2.49,2.49-5,3.74-7.55L190.93,51c2.37-5.09,4.6-10.24,6.83-15.39l.37-.9Z" style="fill:#397F77;opacity:0.2"></path><path d="M147.54,103.46c-2.19,5.17-4.37,10.34-6.42,15.56l-3.07,7.85c-1,2.64-2,5.25-2.88,7.92,1.3-2.49,2.49-5,3.74-7.55l3.55-7.64c2.37-5.09,4.6-10.24,6.83-15.39s4.37-10.33,6.42-15.56,4.11-10.45,5.95-15.76c-2.57,5-4.94,10.09-7.29,15.18S149.77,98.31,147.54,103.46Z" style="fill:#397F77;opacity:0.2"></path><path d="M232,34.72c-2.12,4.24-4.13,8.52-6.11,12.82-2.37,5.09-4.6,10.24-6.83,15.39s-4.38,10.33-6.43,15.56l-3.06,7.84c-1,2.64-2,5.26-2.89,7.92,1.31-2.49,2.5-5,3.74-7.55l3.56-7.63c2.37-5.09,4.6-10.24,6.83-15.39s4.37-10.34,6.42-15.57c1.76-4.44,3.48-8.89,5.1-13.39Z" style="fill:#397F77;opacity:0.2"></path><polygon points="242.23 112.03 242.23 112.03 225.31 121.8 242.23 112.03" style="fill:#fafafa"></polygon><polygon points="169.73 34.72 169.72 153.92 173.6 151.69 173.6 34.72 169.73 34.72" style="fill:#fafafa"></polygon><polygon points="96.06 34.72 38.08 68.19 38.08 73.83 101.97 36.94 101.97 193.05 105.84 190.81 105.84 34.72 96.06 34.72" style="fill:#fafafa"></polygon><polygon points="242.23 34.72 242.23 112.05 246.11 109.81 246.11 34.72 242.23 34.72" style="fill:#fafafa"></polygon><polygon points="309.11 34.72 309.11 73.42 38.08 229.94 38.08 34.72 27.95 34.72 27.95 251.82 319.05 83.78 319.05 34.72 309.11 34.72" style="fill:#fafafa"></polygon></g></g></g><g id="freepik--Clouds--inject-43"><g id="freepik--clouds--inject-43"><path d="M395.12,74.51l-3.73,1.84V67.73c0-6.51-5.19-8.07-10.83-4.81h0c-5.63,3.25-10.2,11.17-10.2,17.68v1.19a5.49,5.49,0,0,0-4.74.73h0a16.23,16.23,0,0,0-7.35,12.72v.54l-5.19,3a10.72,10.72,0,0,0-4.84,8.38c0,3.09,2.17,4.34,4.84,2.79l42-24.27A10.69,10.69,0,0,0,400,77.3C400,74.22,397.79,73,395.12,74.51Z" style="fill:#f0f0f0"></path><path d="M467.79,117.59l-6.76,3.9c0-.3.06-.6.06-.89v-2c0-3.48-2.45-4.89-5.47-3.15a10.48,10.48,0,0,0-3.25,3.13c-.5-4.38-3.93-6-8.11-3.6-4.51,2.6-8.17,8.94-8.17,14.15v2.93a7.71,7.71,0,0,0,.69,3.39l-5.61,3.24a6.72,6.72,0,0,0-3,5.25c0,1.93,1.36,2.72,3,1.75l36.62-21.14a6.72,6.72,0,0,0,3-5.25C470.82,117.41,469.46,116.63,467.79,117.59Z" style="fill:#f0f0f0"></path></g></g><g id="freepik--Sun--inject-43"><circle id="freepik--sun--inject-43" cx="448.41" cy="60.95" r="19.17" transform="translate(286.07 483.36) rotate(-76.72)" style="fill:#ffbda7"></circle></g><g id="freepik--Rope--inject-43"><rect id="freepik--rope--inject-43" x="188.91" y="34.72" width="3.62" height="437.68" style="fill:#263238"></rect></g><g id="freepik--Character--inject-43"><g id="freepik--character--inject-43"><g id="freepik--Bucket--inject-43"><path d="M262.28,343.76l-34.75-.47-.3,28.37h0c0,2.56,1.64,5.15,5,7.15,6.75,4,17.75,4.11,24.58.26,3.44-1.94,5.16-4.52,5.16-7.11Z" style="fill:#37474f"></path><path d="M232.7,336.25c-6.82,3.85-6.89,10.2-.15,14.19s17.74,4.11,24.57.27,6.9-10.2.16-14.19S239.53,332.41,232.7,336.25Z" style="fill:#455a64"></path><path d="M260.79,343.65a4.4,4.4,0,0,1-.25,1.36,8.4,8.4,0,0,1-4.16,4.38,25.71,25.71,0,0,1-23.06-.24,8.44,8.44,0,0,1-4-4.39,4.25,4.25,0,0,1-.25-1.45c0-2.12,1.59-4.16,4.41-5.73A23.18,23.18,0,0,1,245,335a23.47,23.47,0,0,1,11.51,2.85C259.29,339.47,260.81,341.53,260.79,343.65Z" style="fill:#263238"></path><path d="M260.54,345a8.4,8.4,0,0,1-4.16,4.38,25.71,25.71,0,0,1-23.06-.24,8.44,8.44,0,0,1-4-4.39,8.31,8.31,0,0,1,4.16-4.36,25.55,25.55,0,0,1,23.06.24A8.49,8.49,0,0,1,260.54,345Z" style="fill:#fafafa"></path><path d="M256.38,349.39a12,12,0,0,0,1.58-1c-6.34,3.4-17.25,2-20.65-.7s-3.86-7.24,1.67-9.28a19.38,19.38,0,0,0-5.53,2,8.31,8.31,0,0,0-4.16,4.36,8.44,8.44,0,0,0,4,4.39,25.71,25.71,0,0,0,23.06.24Z" style="fill:#ebebeb"></path><path d="M252.31,354.39c.77-.43,1.37-.07,1.37.81a3,3,0,0,1-1.4,2.36c-.76.43-1.37.07-1.36-.81A3,3,0,0,1,252.31,354.39Z" style="fill:#263238"></path><path d="M253,355.86a.73.73,0,0,1-1.45,0c0-.84,0-1.87,0-3.06a99.59,99.59,0,0,0-1.73-18.9c-1.14-5.31-3-9.9-6.18-11.87a3.49,3.49,0,0,0-3.71-.4c-2.87,1.59-4.53,7.7-5.3,13.7a11.53,11.53,0,0,0-1.55.72c.72-6.43,2.49-13.66,6.15-15.68a4.86,4.86,0,0,1,5.18.43c3.62,2.26,5.75,7.35,7,13.42a104.39,104.39,0,0,1,1.59,18.2C253,353.6,253,354.74,253,355.86Z" style="fill:#e0e0e0"></path></g><g id="freepik--Bottom--inject-43"><path d="M224.63,356.2c.76,4.53,1.64,9.7,1.93,11.58.33,2.15,1.71,3.58,2,4.66s-2.39,5.6-6.59,7.19-7.75.7-8.3-1.59-5.9-17-5.9-17Z" style="fill:#ffa8a7"></path><path d="M234.92,380.53c-.31,4.66-6.92,8.37-9.12,12.64s-4.66,8.08-8.15,10.25-11.11,3.88-14.71,1.74c-1.44-3.16-.24-7.43,2-9.84a48.69,48.69,0,0,0,6.58-8.73,12.62,12.62,0,0,0,1.55-8.35c-.37-2-.78-2.2.12-2.63s1.6-.73,1.68.14c1.75-1.4,5.11,1.8,5.47-.06s1.56-5.19,4.53-6.59c2-.94,3.81,1.33,4.85,3.53S235.14,377.79,234.92,380.53Z" style="fill:#455a64"></path><path d="M235.17,379.73a9.53,9.53,0,0,1-.88-1.36c-3-1.19-7.22,2.56-9,6.34s-3,6.4-9.42,9.77-12.74,8.77-12.89,10.68a1.7,1.7,0,0,0,.87,1.36c3.61,2.14,11.23.42,14.72-1.74s6-6,8.15-10.25,8.8-8,9.11-12.64A3.75,3.75,0,0,0,235.17,379.73Z" style="fill:#263238"></path><path d="M218.53,404.78c3.49-2.17,6-6,8.15-10.25s8.8-8,9.11-12.64a3.75,3.75,0,0,0-.62-2.16c-3-1.19-7.23,2.56-9,6.34s-3,6.4-9.43,9.77-12.73,8.77-12.89,10.68C207.42,408.66,215,406.94,218.53,404.78Z"></path><path d="M217.49,329.57l.23-.74H194.31c.31,6.4,2.83,10.08,6.54,19.73,4.53,11.76,10.8,24.38,10.8,24.38s4.28-6,15.12-6.34c-1.43-8.57-2.52-15-4.09-23C220.54,332.75,217.49,329.57,217.49,329.57Z" style="fill:#455a64"></path><path d="M166.26,364.07s-4,9.47-5.3,13a77.32,77.32,0,0,0-2.39,7.4s-8.29,3.9-11.79,1.93-5.35-9.48-5.35-9.48,2.43-1,4.17-7.47c1-3.51,3.44-14,3.44-14Z" style="fill:#ffa8a7"></path><path d="M112.84,381.88c-.72.17-1.24,2.25-.83,3.27.28.71,1.89,4.55,9.2,7.3s13.46,1.86,16.43,2.57a32.8,32.8,0,0,1,6.39,2.25c3.25,1.32,7.49,3,10.41,2.16.85-.73,1.45-3.21,1.45-3.21Z" style="fill:#263238"></path><path d="M160.18,382.54a1.1,1.1,0,0,0-.13-1c-.35-.41-1.13-.38-1.61-.46a9.49,9.49,0,0,0-2-.16,6.68,6.68,0,0,0-3.73,1.33c-.88.68-1.76,1.64-2.87,1.51-1.89-.21-2.41-2.62-2.82-4.13a10.49,10.49,0,0,0-1.68-3.42,12.26,12.26,0,0,0-1.26-1.44c-.33-.32-.72-1.07-1.25-.87a1.82,1.82,0,0,0-.62.52c-.15.17-.31.33-.48.49a10.12,10.12,0,0,1-5.28,2.38,38.17,38.17,0,0,1-6.66.67,36.67,36.67,0,0,1-5.42-.32c-5-.67-9.76-1.05-11.72,4.71-.17,2,2.7,6.58,11.32,9.09,5.54,1.61,12.56.85,18.71,3.41s9.49,3.32,12.64,2.73c2.09-1.79,2.95-4.61,3.31-7.24.18-1.28.33-2.56.54-3.83a35.44,35.44,0,0,1,.94-3.75Z" style="fill:#455a64"></path><path d="M141.73,379.27a34.61,34.61,0,0,1-3.76,1.27,20.73,20.73,0,0,1-3.92.67,26.39,26.39,0,0,1-4-.13,25.85,25.85,0,0,1-3.9-.67c1.31.18,2.62.27,3.93.34a32.06,32.06,0,0,0,3.92,0A40.43,40.43,0,0,0,141.73,379.27Z" style="opacity:0.15"></path><path d="M128.83,378.84a5.47,5.47,0,0,0-.67-.91,1,1,0,0,0-.54-.31,1.42,1.42,0,0,0-.58,0c-.11,0-.37.29-.18.36a1.07,1.07,0,0,1,.41.28l.39.43a5.42,5.42,0,0,1,.6.9,5.1,5.1,0,0,1,.39.9,3.59,3.59,0,0,0,.12.47,1.58,1.58,0,0,0,.09.26.31.31,0,0,0,.14.09c.07,0,.16,0,.21-.1C129.75,380.5,129.2,379.46,128.83,378.84Z" style="fill:#e0e0e0"></path><path d="M132.69,379.08a4.5,4.5,0,0,0-.59-1,1,1,0,0,0-.51-.36,1.39,1.39,0,0,0-.57-.08c-.12,0-.39.24-.2.33a1.13,1.13,0,0,1,.38.31l.35.46a5.5,5.5,0,0,1,.53,1,4.65,4.65,0,0,1,.31.91c0,.16,0,.32.08.47a1.73,1.73,0,0,0,.08.27.24.24,0,0,0,.13.09c.06,0,.16,0,.21-.07C133.48,380.78,133,379.72,132.69,379.08Z" style="fill:#e0e0e0"></path><path d="M136.54,378.68a4.49,4.49,0,0,0-.65-.9,1.09,1.09,0,0,0-.52-.32,1.38,1.38,0,0,0-.57,0c-.11,0-.37.26-.18.33a1.14,1.14,0,0,1,.4.29c.13.13.25.28.37.42a5.28,5.28,0,0,1,.59.89,4.74,4.74,0,0,1,.37.87c0,.15.06.31.11.46a1.84,1.84,0,0,0,.09.25.29.29,0,0,0,.14.08c.07,0,.16,0,.2-.08C137.43,380.29,136.9,379.28,136.54,378.68Z" style="fill:#e0e0e0"></path><path d="M139.74,377.88a4.56,4.56,0,0,0-.62-.87,1.09,1.09,0,0,0-.51-.31,1.5,1.5,0,0,0-.56,0c-.11,0-.35.26-.17.33a1.05,1.05,0,0,1,.39.27l.36.41a5,5,0,0,1,.57.87,3.74,3.74,0,0,1,.36.85,3.6,3.6,0,0,0,.12.44.75.75,0,0,0,.09.25c0,.05.08.06.13.08s.15,0,.19-.08C140.61,379.45,140.1,378.47,139.74,377.88Z" style="fill:#e0e0e0"></path><path d="M178.72,332.16l-19.58-23c-3.33,3.63-4.57,8.2-7.06,20.72-3.37,16.88-7.55,41-7.55,41s.36,4.45,7.68,6.84,9.69.21,9.69.21,2.8-5.31,6.3-13.47C172.48,354.41,178.26,339.25,178.72,332.16Z" style="fill:#455a64"></path><path d="M168.6,324.57c1.11,6.26,6.41,9.59,9.64,10.92a24.92,24.92,0,0,0,.48-3.33C173.46,330.65,169.74,327,168.6,324.57Z" style="fill:#37474f"></path><path d="M256,322.56a.76.76,0,0,1-.49-.18L201,272.88l30.63,33.94a.73.73,0,1,1-1.07,1L190.19,263a.72.72,0,0,1,1-1L256.5,321.3a.72.72,0,0,1-.49,1.26Z" style="fill:#37474f"></path><polygon points="172.88 335.23 201.23 351.6 257.93 318.86 229.58 302.49 172.88 335.23" style="fill:#397F77"></polygon><polygon points="172.88 335.23 201.23 351.6 257.93 318.86 229.58 302.49 172.88 335.23" style="fill:#fff;opacity:0.5"></polygon><polygon points="172.88 335.23 201.23 351.6 201.23 356.28 172.88 339.91 172.88 335.23" style="fill:#397F77"></polygon><polygon points="257.93 318.86 257.93 323.55 201.23 356.28 201.23 351.6 257.93 318.86" style="fill:#397F77"></polygon><polygon points="257.93 318.86 257.93 323.55 201.23 356.28 201.23 351.6 257.93 318.86" style="fill:#fff;opacity:0.30000000000000004"></polygon><path d="M225.23,328.37c9.11.05,19.82-4.92,23-13,2.23-5.77,1.81-10.61-.31-17.16H225.45Z" style="fill:#37474f"></path><path d="M234.68,298.62l-35.52-6.95c0,5-.94,5.79-6,6.87-20.48,4.36-28.72,6-34,10.58l19.23,22.93s4.71-.15,17.53,1.52c3,.39,7.44.8,11.89,1.29,10.47,1.13,14.85-1,18.6-2.73C235.51,328,240.54,316.19,234.68,298.62Z" style="fill:#455a64"></path><path d="M246.4,290.32a2.45,2.45,0,0,1-.22.41c-.06-.87-.11-1.8-.13-2.83,0-1.91,0-3.75.19-5.49H197.85c.25,3.18.42,5.83.47,8.56a32.87,32.87,0,0,0,0,3.56A9.36,9.36,0,0,1,197,297c1.29,2.37,7.81,8.6,16.8,10.88s21.23,3.14,28,.3,7.7-5.72,7.7-5.72-.91-2.46-1.81-5.46A43.48,43.48,0,0,1,246.4,290.32Z" style="fill:#397F77"></path><g id="freepik--Harness--inject-43"><path d="M237.76,325.5a26.52,26.52,0,0,0,3.88-2.25,22.83,22.83,0,0,0,4-8.69c1.05-5,.25-11.2-2.3-14.91l-1.73,1.6c2.16,3,3.11,8.63,1.71,13.69C242.53,317.77,240,323.22,237.76,325.5Z" style="fill:#263238"></path><path d="M243.06,315.57c.2,3.69,1.47,7.26,2.92,8.93a4.29,4.29,0,0,0,2.11-.79c-1.28-.83-3-5.35-2.87-7.71Z" style="fill:#455a64"></path><path d="M244,310c-.91.29-.49,1.24-.64,2.87s-.74,2.35-.28,2.68a3.13,3.13,0,0,0,2.79.2c.62-.46.82-2.57.77-4s0-1.83-.53-1.82C246.17,310.86,243.94,310.9,244,310Z" style="fill:#397F77"></path><path d="M229.33,306.26c-.23,4.34-2.21,7.9-7.73,13.07-6.59,6.17-30.34,8-30.34,8l-1-2.15s24-2.18,29.55-7.35,6.95-7.91,7.31-11.49Z" style="fill:#263238"></path><path d="M220.55,317.14c-1.5,2-2.24,5.43-1.82,9.71a3.39,3.39,0,0,0,2.09.48s-.2-2.91-.13-4.56a7,7,0,0,1,1.63-4.13Z" style="fill:#37474f"></path><path d="M224.5,312.81c-.89-.34-1,.8-2.18,2s-2,1.58-1.88,2.13,1.58,2,2.42,1.75,1.88-1.55,2.72-2.69,1.13-1.45.71-1.76C225.8,315,223.92,313.48,224.5,312.81Z" style="fill:#397F77"></path><path d="M202.22,334.27l-2.17-.23c-8.54-4.23-12.75-14-12.64-22A46,46,0,0,1,189,299.57l1.53-.38s-.49-1-2.26-.43c-3.79,1.12-6.49,1.56-7.4,3.25-2.89,5.31-2.23,14.63-1.07,19.13,2.08,8.1,6.82,11.25,9.13,12.21a26,26,0,0,0,8.5,1.7C201.43,335.23,202.39,335.34,202.22,334.27Z" style="fill:#37474f"></path><path d="M198.27,289.22s5.46,3.07,16.65,3.71,20-.56,24.85-2.05,6.28-3,6.28-3v-1.7s.74-.63.88,1.07-.1,4.55.48,6.52,1.37,3.36,1.46,5-1.59,4.22-8.17,6.7-21.18,1.55-26-.25S206,298.33,203.16,297a49.73,49.73,0,0,0-5-2.07c-.64-.26-.56-1.14-.56-3.17,0-1.42-.28-3.6.61-3.67Z" style="fill:#263238"></path><path d="M248.14,295.91a6.21,6.21,0,0,1-1.8,1.35,5.11,5.11,0,0,1-3.75.08,10.22,10.22,0,0,0-5.91,0,13.25,13.25,0,0,0-4,2.18,12.29,12.29,0,0,1-7.59,2.84c-5.22.2-11.21-1.81-18.11-4.14l-4-1.32.1.05a12.82,12.82,0,0,1,2.42,1.69l1.18.39c6.67,2.25,12.47,4.2,17.68,4.2h.73a13.11,13.11,0,0,0,8.05-3,12.73,12.73,0,0,1,3.71-2.05,9.49,9.49,0,0,1,5.47,0,6,6,0,0,0,4.31-.14,6.77,6.77,0,0,0,1.73-1.24C248.35,296.51,248.25,296.21,248.14,295.91Z" style="fill:#37474f"></path><path d="M243.74,290.9a.64.64,0,0,0-.49.76c1.1,5.27-.7,9.31-4.69,10.55A8.31,8.31,0,0,1,227.81,296a.64.64,0,0,0-.71-.55.63.63,0,0,0-.55.72,9.57,9.57,0,0,0,9.35,7.77,10.35,10.35,0,0,0,3-.47c4.6-1.43,6.79-6.15,5.56-12A.64.64,0,0,0,243.74,290.9ZM226,302.21a.65.65,0,0,0-.81.41c-.85,2.67-3.59,5.34-8.53,4.11a5.28,5.28,0,0,1-3.78-2.7,4.65,4.65,0,0,1,0-3.79.64.64,0,1,0-1.16-.54,6,6,0,0,0,0,4.88A6.49,6.49,0,0,0,216.3,308a11.2,11.2,0,0,0,2.65.34,7.54,7.54,0,0,0,7.41-5.3A.64.64,0,0,0,226,302.21Zm26.42-2.57a.64.64,0,0,0-.87-.22c-.93.54-2.3.76-4.64-2.53a.64.64,0,0,0-1,.74c1.61,2.27,3.14,3.39,4.62,3.39a3.34,3.34,0,0,0,1.71-.5A.65.65,0,0,0,252.37,299.64Z" style="fill:#fafafa"></path></g><path d="M199.33,353.86a.73.73,0,0,1-.72-.66l-8.16-85.9-15.31,71.46a.72.72,0,0,1-1.41-.31L190,262.4a.71.71,0,0,1,.75-.57.74.74,0,0,1,.68.65l8.61,90.59a.74.74,0,0,1-.66.79Z" style="fill:#37474f"></path></g><g id="freepik--bucket--inject-43"><path d="M203.79,377.3,169,376.83l-.3,28.38h0c0,2.56,1.64,5.15,5,7.15,6.74,4,17.74,4.11,24.57.26,3.44-1.94,5.16-4.51,5.16-7.11Z" style="fill:#37474f"></path><path d="M174.22,369.8c-6.83,3.84-6.9,10.19-.16,14.18s17.75,4.11,24.58.27,6.89-10.2.15-14.19S181,366,174.22,369.8Z" style="fill:#455a64"></path><path d="M202.3,377.19a4.12,4.12,0,0,1-.25,1.36,8.37,8.37,0,0,1-4.16,4.38,25.71,25.71,0,0,1-23.06-.24,8.44,8.44,0,0,1-4-4.39,4.24,4.24,0,0,1-.24-1.45c0-2.12,1.58-4.16,4.4-5.73a23.2,23.2,0,0,1,11.55-2.61A23.54,23.54,0,0,1,198,371.36C200.81,373,202.32,375.07,202.3,377.19Z" style="fill:#263238"></path><path d="M202.05,378.55a8.37,8.37,0,0,1-4.16,4.38,25.71,25.71,0,0,1-23.06-.24,8.44,8.44,0,0,1-4-4.39,8.31,8.31,0,0,1,4.16-4.36,23.42,23.42,0,0,1,11.55-2.63A23.65,23.65,0,0,1,198,374.18,8.51,8.51,0,0,1,202.05,378.55Z" style="fill:#397F77"></path><path d="M197.89,382.93a11.8,11.8,0,0,0,1.59-1c-6.35,3.41-17.26,2-20.66-.7s-3.86-7.24,1.67-9.28a19.49,19.49,0,0,0-5.53,2,8.31,8.31,0,0,0-4.16,4.36,8.44,8.44,0,0,0,4,4.39,25.71,25.71,0,0,0,23.06.24Z" style="opacity:0.15"></path><path d="M193.83,387.93c.76-.43,1.37-.07,1.36.81a3,3,0,0,1-1.4,2.36c-.76.43-1.37.07-1.36-.81A3,3,0,0,1,193.83,387.93Z" style="fill:#263238"></path><path d="M194.53,389.4a.73.73,0,0,1-1.45,0c0-.84,0-1.87,0-3.06a100.34,100.34,0,0,0-1.72-18.9c-1.15-5.3-3-9.9-6.19-11.87a3.49,3.49,0,0,0-3.71-.4c-2.87,1.59-4.53,7.7-5.3,13.7a10.46,10.46,0,0,0-1.55.73c.72-6.44,2.49-13.66,6.16-15.69a4.85,4.85,0,0,1,5.17.43c3.62,2.26,5.75,7.35,7,13.42A103.51,103.51,0,0,1,194.5,386C194.53,387.14,194.53,388.28,194.53,389.4Z" style="fill:#e0e0e0"></path><g id="freepik--Carabiner--inject-43"><path d="M185.54,357.5a4,4,0,0,1-4.71-2.42l-1.72-4.25a4.08,4.08,0,0,1,1.71-5l1.85-1.08a4.05,4.05,0,0,1,6.06,2.93l.62,4.24A5,5,0,0,1,185.54,357.5ZM184.2,346a2.18,2.18,0,0,0-.62.25l-1.85,1.08a2.27,2.27,0,0,0-.95,2.8l1.72,4.25a2.25,2.25,0,0,0,2.62,1.34,3.21,3.21,0,0,0,2.44-3.61l-.61-4.24A2.27,2.27,0,0,0,184.2,346Z" style="fill:#263238"></path></g><path d="M194.5,386a103.51,103.51,0,0,0-1.59-18.2c-1.23-6.07-3.36-11.16-7-13.42a6.38,6.38,0,0,0-2.24-.9V355a5.16,5.16,0,0,1,1.47.62c3.14,2,5,6.57,6.19,11.87a100.34,100.34,0,0,1,1.72,18.9c0,1.19,0,2.22,0,3.06a.73.73,0,0,0,1.45,0C194.53,388.28,194.53,387.14,194.5,386Z" style="fill:#e0e0e0"></path></g><g id="freepik--Top--inject-43"><path d="M252,251.78c1.57-7.63,3.76-16.45-.87-23.6-2.81-4.34-6.47-6.47-11.26-9.39-7.32-4.46-28.45-17.83-28.45-17.83s-10.22-31.49-11.18-34.33c-.41-1.2-4.44-.95-5.7-1.06a9,9,0,0,0-3.73.63,3.37,3.37,0,0,0-1.08.56,2.88,2.88,0,0,0-.8,2.55c1.18,8,4.4,29,5.07,34.12.87,6.8,2.11,9.06,6.2,12.25C205.74,220,229,237.3,229,237.3Z" style="fill:#f28f8f"></path><path d="M189.4,175.1c2.42,1.69,10.29-.61,12.83-3.52l9.84,29.56s23.63,14.58,28.64,17.77,17.58,9.59,11.48,31.83l-19.53.43-14.51-21.5s-12.44-9.14-16-11.78c-5.49-4.07-7.31-6-8-10.73C192.89,199.37,189.4,175.1,189.4,175.1Z" style="fill:#455a64"></path><path d="M201.33,170c.12,0-1.62-6.45-1.77-7-.53-2.09-1-4.19-1.64-6.26s-1.95-3.08-3.63-4.12a40.16,40.16,0,0,0-5.62-2.87,13,13,0,0,0-3.93-1,3.31,3.31,0,0,0-1.74.2,2.36,2.36,0,0,0-1.22,1.61,4.24,4.24,0,0,0,.09,2.06,3.38,3.38,0,0,1,.21,1.5c-.14.69-.77,1.16-1,1.81a2.8,2.8,0,0,0,.27,2.25,2.51,2.51,0,0,1,.28.68c.13.77-.67,1.44-.65,2.23s.71,1.31.72,2a7.65,7.65,0,0,1-.15.94,2.52,2.52,0,0,0,.66,1.75,14.28,14.28,0,0,0,4.37,3.19c1.37.81,2.54,1.68,2.82,3.35C189.74,174.66,201.31,170.05,201.33,170Z" style="fill:#f28f8f"></path><path d="M189,154.1c.89.54,1.87,1,2.77,1.48a4.89,4.89,0,0,1,1.54,1.28,2.21,2.21,0,0,1,.39,1.9,1.44,1.44,0,0,1-1.52,1,1.68,1.68,0,0,1,.53,1.92,1.66,1.66,0,0,1-1.72,1,1.68,1.68,0,0,1,.83,1.59,1.53,1.53,0,0,1-1.39,1.3,1.68,1.68,0,0,1,.84,1.24,1.43,1.43,0,0,1-.84,1.24,3.73,3.73,0,0,1-1.55.3,16.28,16.28,0,0,1-1.71-.05,2,2,0,0,1-.88-.2c-.59-.32-.93-1.56-1.18-2.15a23.62,23.62,0,0,1-1-2.75,25.59,25.59,0,0,1-1-5.76c-.12-2,0-4.1,1.26-5.64a1.5,1.5,0,0,1,.59-.5c.75-.31,1.55.39,2,.92A8.41,8.41,0,0,0,189,154.1Z" style="fill:#b16668"></path><path d="M191.71,160.43a4.16,4.16,0,0,0-1.3-1.09c.84.09,1.86,0,2.07-.35a2.35,2.35,0,0,0-.52-2.51,23.91,23.91,0,0,0-3.09-1.75c-.74-.47-1.61-2.59-2.26-4-.31-.66-.71-1.83-1.48-1.92a3.76,3.76,0,0,0-2.78.55,2.79,2.79,0,0,0-.76,2.1,3.39,3.39,0,0,1-.66,1.87l-.18.22a3.26,3.26,0,0,0-.52,2.77,5.14,5.14,0,0,1,.33,1.31c0,1-.89,1.79-.62,2.88a3.35,3.35,0,0,1,.27,1.29c-.06.58-.41,1.07-.48,1.65a2.24,2.24,0,0,0,.58,1.48,14.45,14.45,0,0,0,3.55,2.78c.63.34,1.61.46,4,.25a15,15,0,0,0,2.14-.42c.4-.1.7-.25.74-.66a1.12,1.12,0,0,0-.19-.71,2.37,2.37,0,0,0-1.35-.86,4.11,4.11,0,0,0,1.22-.24c.74-.29.66-1,.41-1.55a2.16,2.16,0,0,0-1.17-1.08,2.88,2.88,0,0,0,2.13-.53C192.18,161.56,192.08,161,191.71,160.43Z" style="fill:#f28f8f"></path><path d="M181.86,152.65c1.61,1.71,2.8,3.83,4.6,5.26a18.23,18.23,0,0,0,3.95,1.43,9.1,9.1,0,0,1-4.3-.81c-2-1.4-3.2-3.73-4.25-5.88Z" style="fill:#b16668"></path><path d="M180.75,157.49c1.69,1.33,3.05,3.09,4.88,4.15a16.39,16.39,0,0,0,3.77.77,8.21,8.21,0,0,1-4-.16c-2-1-3.41-2.95-4.65-4.76Z" style="fill:#b16668"></path><path d="M180.49,161.77c1.36.92,2.56,2,3.91,2.83s3.11.46,4.61.69c-1.64.24-3.36.71-4.94-.15a13.22,13.22,0,0,1-3.58-3.37Z" style="fill:#b16668"></path><path d="M198.27,162.3c-.21-.73-.44-1.45-.68-2.18-.15-.47-.32-1-.48-1.42a4.72,4.72,0,0,0-.39-1.15c-.41-.48-1.48-.05-2,0-.85.12-1.71.27-2.57.32a4.81,4.81,0,0,1-3.51-.94,12,12,0,0,0-2.41-1.62,2.26,2.26,0,0,0-1.82,0,.68.68,0,0,0-.45.41.83.83,0,0,0,0,.44,16.5,16.5,0,0,0,1.87,4.07,8.14,8.14,0,0,0,.93,1.38,7.39,7.39,0,0,0,1.72,1.31,51,51,0,0,0,4.79,2.54c1.43.67,2.94,1.58,4.56,1.59a1.05,1.05,0,0,0,1.17-1.35A29.24,29.24,0,0,0,198.27,162.3Z" style="fill:#f28f8f"></path><path d="M194.71,157.58a18.61,18.61,0,0,1-3.85.48c-2.41.1-4.21-3.62-6.55-2.23,0,0,0,.06,0,.18a14.66,14.66,0,0,0,3.38,6,33.86,33.86,0,0,0,3.27,1.93c2.23,1.14,4.36,2.85,6.92,3.17-2.62,0-4.88-1.62-7.2-2.66a24.26,24.26,0,0,1-3.4-1.9c-1.77-1.5-2.74-3.77-3.52-5.91-.1-.39-.29-.82,0-1.23a1.77,1.77,0,0,1,1.06-.51,3.47,3.47,0,0,1,2.88,1,6.36,6.36,0,0,0,3.2,1.81,21.23,21.23,0,0,0,3.81-.12Z" style="fill:#b16668"></path><path d="M192.54,237.74V165.38l-1-.51a1.74,1.74,0,0,1-1.17.71,1.68,1.68,0,0,1,.84,1.23,1.45,1.45,0,0,1-.84,1.26,3.64,3.64,0,0,1-1.47.29v69.38Z" style="fill:#263238"></path><path d="M192.54,156.12c-1.09-.79-2-1-3.63-2V34.72h3.63Z" style="fill:#263238"></path><polygon points="220.58 221.64 222.3 234.29 239.49 233.41 237.63 219.72 220.58 221.64" style="fill:#ffa8a7"></polygon><path d="M213.73,198c-1.32,1.68-5.43,6.74-5.58,7.71l3.35,2.06Z" style="fill:#b16668"></path><path d="M223.29,185.27c-5.31-.57-8.75,3.19-10.3,14.49-.06.44-.71,1.14-1.21,2.83-2.13,7.25-.94,14.16.29,16,3.07,2.48,6.49,3.4,11.45,3,3.77-.32,11.08-.4,16-5.5,5.74-6,11-16.1,6.88-20.79C240.63,188.67,226.21,185.58,223.29,185.27Z" style="fill:#ffa8a7"></path><path d="M212.07,218.58c.68,1,5.54,3.51,8.59,3.71l-.28-2.38A31.89,31.89,0,0,1,212.07,218.58Z" style="fill:#b16668"></path><path d="M245.07,192.28c3.88,2.36,6.65,10.07.6,18.42-2.56,3.52-5.5,4.92-8,9a27.94,27.94,0,0,1-10.81.71c-3.74-3.31-3.29-9.48-3.29-9.48s3.06,2.79,6.64-.55c2.19-2,3.52-8.05-.94-8.39a4.82,4.82,0,0,0-3.28,1.11,13.81,13.81,0,0,0-1.94,2.24,1,1,0,0,1-1.77-.29,7,7,0,0,1-.09-3.22c1.49-4.8-1.56-3.86-3-5.76-.85-1.15,0-3.37.27-4.54C223.68,190.09,245.07,192.28,245.07,192.28Z" style="fill:#455a64"></path><path d="M219.46,191.55c0-.77-.83-1.57-1.38-2a6,6,0,0,0-2.16-1,11.11,11.11,0,0,1,3.43-5.76c6.29-5.56,13.14-1.21,19.45,1.6,4.77,2.13,9.95,3.62,7.93,9.43C242.48,196.73,224.9,194.33,219.46,191.55Z" style="fill:#263238"></path><g id="freepik--Helmet--inject-43"><path d="M226.31,197.56A26.06,26.06,0,0,0,222.48,210a2,2,0,0,0,1.16,1.8s6.56,2.36,13.11-4.38l1.36.59a14.9,14.9,0,0,1-16,5.3,8.45,8.45,0,0,0-2.37,6.19,5,5,0,0,0,.48,2.76,6.52,6.52,0,0,1-1.67-.37c-.7-2.27-.63-5.91,2.55-10.11-1-2.78.1-9.41,3.74-15.33Z" style="fill:#37474f"></path><path d="M221.63,195.65c-7.37-1-13.81-5.38-13.21-10.35.52-4.36,6.8-6.94,13.72-4.54C222.14,180.76,221.66,195.69,221.63,195.65Z" style="fill:#397F77"></path><path d="M221.63,195.65c-7.37-1-13.81-5.38-13.21-10.35.52-4.36,6.8-6.94,13.72-4.54C222.14,180.76,221.66,195.69,221.63,195.65Z" style="fill:#fff;opacity:0.30000000000000004"></path><path d="M226.47,201.92c-5.12-3.46-11-8-12.74-13.66.85-2.43,1.93-4.09,4.42-7.06,4.51-5.39,15.25-7.08,23.83-2.3s10.93,14.11,8.94,22.69a24.86,24.86,0,0,1-4.11,8.38C237.78,209.78,232.62,206.07,226.47,201.92Z" style="fill:#397F77"></path><g style="opacity:0.30000000000000004"><path d="M241.57,178.7a19.05,19.05,0,0,0-2-.93c7.64,5.61,9.25,16.72,8.49,25.74-.1,1.52-.3,3-.55,4.53C250.53,198.62,249.72,185.09,241.57,178.7Z"></path><path d="M230.54,176.11h0c10.1,4.56,13.13,16.62,12,26.82-.1,1.51-.3,3-.55,4.52C245.81,196.24,243.31,180.09,230.54,176.11Z"></path></g></g><path d="M197,270.81c.43,6.15.83,10.48,1.08,14.23,8,4.61,38.64,6.63,48.05,0a67.22,67.22,0,0,1,1.87-13.3c2.8-11.42,4-17,4.62-25.24.5-6.73-1.63-17-6.41-18.92-2.82-1.16-3.32-1.58-7.68-1.52l.13.94c-2.52,2.15-13.09,3.38-17,2.37,0,0-9.6-.72-13.23.64s-1.34,4.62-3.42,8.42c-2.09,4.56-9.56,7-9,16.29C196.27,260.6,196.31,261.62,197,270.81Z" style="fill:#397F77"></path><path d="M148.5,202.85a4.27,4.27,0,0,1-3.81-.29,1.37,1.37,0,0,1-.7-1.18l4-56.78,5.39.41-4,56.78A1.33,1.33,0,0,1,148.5,202.85Z" style="fill:#263238"></path><path d="M142.31,148.44c4.17-1.45,5,.5,4.69,4.91s-.53,7.49-.53,7.49.5,1.34,2.95,1.62,3.05-1.12,3.05-1.12.35-5,.54-7.63.76-10.07,6.05-12.29Z" style="fill:#397F77"></path><polygon points="121 147.85 127.4 152.69 177.16 131.84 170.76 126.99 121 147.85" style="fill:#397F77"></polygon><polygon points="121 147.85 127.4 152.69 177.16 131.84 170.76 126.99 121 147.85" style="fill:#fff;opacity:0.5"></polygon><polygon points="121 147.85 127.4 152.69 127.03 155.57 120.63 150.73 121 147.85" style="fill:#397F77"></polygon><polygon points="177.16 131.84 176.79 134.72 127.03 155.57 127.4 152.69 177.16 131.84" style="fill:#397F77"></polygon><polygon points="177.16 131.84 176.79 134.72 127.03 155.57 127.4 152.69 177.16 131.84" style="fill:#fff;opacity:0.30000000000000004"></polygon><polygon points="120.63 150.73 113.9 144.17 121 147.85 120.63 150.73" style="fill:#37474f"></polygon><polygon points="170.76 126.99 121 147.85 113.9 144.17 163.66 123.31 170.76 126.99" style="fill:#455a64"></polygon><path d="M162.8,238.48c5,2.24,13.4,5.24,22,8.54s10.79,8.24,11.47,12.44c6.85.86,13.85-7.1,15.51-13.74,1.8-7.2.84-13.46-.56-15.36-3.67-1-5.4-1.13-13.65-2.92-5.74-1.24-8.36-1.58-14.26-3-5.38-1.26-12.3-3.13-12.3-3.13s-6.87-16.28-9.52-22.31-3.84-6.8-4.6-12.79a40.3,40.3,0,0,0-1-5.22,32.53,32.53,0,0,1-1-7.85,3.63,3.63,0,0,0-.14-1.32,1.08,1.08,0,0,0-1-.75,1.43,1.43,0,0,0-.56.22,5.29,5.29,0,0,0-2.52,3.73,22.28,22.28,0,0,0-.24,2.95c0,.92.6,2.86-.21,3.61a4.3,4.3,0,0,1-4.86-.36l.55-7.91s-2.11,1.21-3.9,2.1a6.7,6.7,0,0,0-3.22,2.67,5.9,5.9,0,0,0-.2,2.4,4.46,4.46,0,0,1-.81,1.93,2.86,2.86,0,0,0-.29,2.18,8.11,8.11,0,0,1,.3,1.07,11.43,11.43,0,0,1-.36,2.13c-.09,1.33,1,2.53.92,3.86,0,.33-.11.64-.11,1,0,2.68,3.76,4.19,5.54,5.59a19.91,19.91,0,0,1,5.59,6.42c1,2,1.28,4.48,1.78,6.64,1,4.33,2,8.68,3,13,.28,1.22.56,2.43.85,3.64C156.84,235.5,157.76,236.24,162.8,238.48Z" style="fill:#ffa8a7"></path><path d="M213.27,229.25c-3.83-.36-40.83-8.58-40.83-8.58l-10.08-21.29s-.65,3.77-6.38,5.64-6.64.84-6.64.84,4.65,19.5,5.49,24.73,1.79,6.08,5.74,8.25,23.61,8.25,28.08,11.4,7.44,7.63,7.66,10.94C207.1,263.74,217.23,247,213.27,229.25Z" style="fill:#455a64"></path></g></g></g></svg>
