<svg width="17" height="16" viewBox="0 0 17 16" fill="none" xmlns="http://www.w3.org/2000/svg">
<path fill-rule="evenodd" clip-rule="evenodd" d="M4.89645 4.64645C5.09171 4.45118 5.40829 4.45118 5.60355 4.64645L8.25 7.29289L10.8964 4.64645C11.0917 4.45118 11.4083 4.45118 11.6036 4.64645C11.7988 4.84171 11.7988 5.15829 11.6036 5.35355L8.95711 8L11.6036 10.6464C11.7988 10.8417 11.7988 11.1583 11.6036 11.3536C11.4083 11.5488 11.0917 11.5488 10.8964 11.3536L8.25 8.70711L5.60355 11.3536C5.40829 11.5488 5.09171 11.5488 4.89645 11.3536C4.70118 11.1583 4.70118 10.8417 4.89645 10.6464L7.54289 8L4.89645 5.35355C4.70118 5.15829 4.70118 4.84171 4.89645 4.64645Z" fill="#F93232"/>
</svg>
